<svg xmlns="http://www.w3.org/2000/svg" xmlns:xlink="http://www.w3.org/1999/xlink" width="56" zoomAndPan="magnify" viewBox="0 0 42 42.75" height="57" preserveAspectRatio="xMidYMid meet" version="1.0"><defs><clipPath id="9ca4fe80f9"><path d="M 0.121094 0 L 41.875 0 L 41.875 42.5 L 0.121094 42.5 Z M 0.121094 0 " clip-rule="nonzero"/></clipPath></defs><g clip-path="url(#9ca4fe80f9)"><path fill="#ddffeb" d="M 41.84375 21.25 C 41.84375 21.933594 41.808594 22.617188 41.742188 23.296875 C 41.675781 23.976562 41.574219 24.648438 41.441406 25.320312 C 41.308594 25.992188 41.144531 26.652344 40.945312 27.304688 C 40.746094 27.960938 40.515625 28.601562 40.253906 29.234375 C 39.992188 29.863281 39.703125 30.480469 39.378906 31.085938 C 39.058594 31.6875 38.707031 32.273438 38.328125 32.839844 C 37.949219 33.410156 37.542969 33.957031 37.109375 34.484375 C 36.675781 35.011719 36.214844 35.519531 35.734375 36 C 35.25 36.484375 34.746094 36.941406 34.214844 37.375 C 33.6875 37.808594 33.140625 38.214844 32.570312 38.59375 C 32.003906 38.976562 31.417969 39.324219 30.816406 39.648438 C 30.214844 39.96875 29.597656 40.261719 28.964844 40.523438 C 28.335938 40.785156 27.691406 41.015625 27.039062 41.214844 C 26.382812 41.410156 25.722656 41.578125 25.050781 41.710938 C 24.382812 41.84375 23.707031 41.945312 23.027344 42.011719 C 22.347656 42.078125 21.664062 42.109375 20.984375 42.109375 C 20.300781 42.109375 19.617188 42.078125 18.9375 42.011719 C 18.257812 41.945312 17.582031 41.84375 16.914062 41.710938 C 16.242188 41.578125 15.582031 41.410156 14.925781 41.214844 C 14.273438 41.015625 13.628906 40.785156 13 40.523438 C 12.367188 40.261719 11.75 39.96875 11.148438 39.648438 C 10.546875 39.324219 9.960938 38.976562 9.394531 38.59375 C 8.824219 38.214844 8.277344 37.808594 7.75 37.375 C 7.21875 36.941406 6.714844 36.484375 6.230469 36 C 5.75 35.519531 5.289062 35.011719 4.855469 34.484375 C 4.421875 33.957031 4.015625 33.410156 3.636719 32.839844 C 3.257812 32.273438 2.90625 31.6875 2.585938 31.085938 C 2.261719 30.480469 1.972656 29.863281 1.710938 29.234375 C 1.449219 28.601562 1.21875 27.960938 1.019531 27.304688 C 0.820312 26.652344 0.65625 25.992188 0.523438 25.320312 C 0.390625 24.648438 0.289062 23.976562 0.222656 23.296875 C 0.15625 22.617188 0.121094 21.933594 0.121094 21.25 C 0.121094 20.566406 0.15625 19.886719 0.222656 19.207031 C 0.289062 18.527344 0.390625 17.851562 0.523438 17.179688 C 0.65625 16.511719 0.820312 15.847656 1.019531 15.195312 C 1.21875 14.542969 1.449219 13.898438 1.710938 13.269531 C 1.972656 12.636719 2.261719 12.019531 2.585938 11.417969 C 2.90625 10.816406 3.257812 10.230469 3.636719 9.660156 C 4.015625 9.09375 4.421875 8.546875 4.855469 8.015625 C 5.289062 7.488281 5.75 6.984375 6.230469 6.5 C 6.714844 6.015625 7.21875 5.558594 7.75 5.125 C 8.277344 4.691406 8.824219 4.285156 9.394531 3.90625 C 9.960938 3.527344 10.546875 3.175781 11.148438 2.851562 C 11.75 2.53125 12.367188 2.238281 13 1.976562 C 13.628906 1.714844 14.273438 1.488281 14.925781 1.289062 C 15.582031 1.089844 16.242188 0.925781 16.914062 0.792969 C 17.582031 0.65625 18.257812 0.558594 18.9375 0.492188 C 19.617188 0.421875 20.300781 0.390625 20.984375 0.390625 C 21.664062 0.390625 22.347656 0.421875 23.027344 0.492188 C 23.707031 0.558594 24.382812 0.65625 25.050781 0.792969 C 25.722656 0.925781 26.382812 1.089844 27.039062 1.289062 C 27.691406 1.488281 28.335938 1.714844 28.964844 1.976562 C 29.597656 2.238281 30.214844 2.53125 30.816406 2.851562 C 31.417969 3.175781 32.003906 3.527344 32.570312 3.90625 C 33.140625 4.285156 33.6875 4.691406 34.214844 5.125 C 34.746094 5.558594 35.25 6.015625 35.734375 6.5 C 36.214844 6.984375 36.675781 7.488281 37.109375 8.015625 C 37.542969 8.546875 37.949219 9.09375 38.328125 9.660156 C 38.707031 10.230469 39.058594 10.816406 39.378906 11.417969 C 39.703125 12.019531 39.992188 12.636719 40.253906 13.269531 C 40.515625 13.898438 40.746094 14.542969 40.945312 15.195312 C 41.144531 15.847656 41.308594 16.511719 41.441406 17.179688 C 41.574219 17.851562 41.675781 18.527344 41.742188 19.207031 C 41.808594 19.886719 41.84375 20.566406 41.84375 21.25 Z M 41.84375 21.25 " fill-opacity="1" fill-rule="nonzero"/></g><path stroke-linecap="butt" transform="matrix(0.645202, -0.372508, 0.372508, 0.645202, -9.28202, 5.538209)" fill-opacity="1" fill="#ffffff" fill-rule="nonzero" stroke-linejoin="miter" d="M 10.017795 27.259715 L 39.622702 27.260819 C 39.951793 27.257082 40.272127 27.320941 40.579166 27.449775 C 40.886204 27.57861 41.152702 27.75669 41.392282 27.99188 C 41.627321 28.224449 41.803657 28.495776 41.931072 28.799404 C 42.060408 29.110193 42.118822 29.428471 42.122559 29.757561 L 42.121185 48.761227 C 42.124922 49.090317 42.056522 49.40803 41.932229 49.71769 C 41.806016 50.020188 41.625314 50.291227 41.392746 50.526266 C 41.155636 50.758683 40.886228 50.942181 40.57806 51.066975 C 40.274433 51.194391 39.953533 51.257346 39.619902 51.258462 L 10.014995 51.257358 C 9.685905 51.261096 9.36557 51.197236 9.058532 51.068402 C 8.751493 50.939568 8.484995 50.761488 8.249956 50.528919 C 8.012998 50.289188 7.834041 50.022401 7.706625 49.718774 C 7.57729 49.407984 7.518876 49.089706 7.515138 48.760616 L 7.516512 29.756951 C 7.512775 29.427861 7.581175 29.110147 7.705469 28.800487 C 7.831682 28.497989 8.012383 28.226951 8.244952 27.991912 C 8.482061 27.759494 8.75147 27.575997 9.059638 27.451202 C 9.363265 27.323786 9.684164 27.260831 10.017795 27.259715 Z M 10.017795 27.259715 " stroke="#000b69" stroke-width="1" stroke-opacity="1" stroke-miterlimit="4"/><path stroke-linecap="butt" transform="matrix(0.645202, -0.372508, 0.372508, 0.645202, -9.28202, 5.538209)" fill-opacity="1" fill="#009685" fill-rule="nonzero" stroke-linejoin="miter" d="M 10.017795 27.259715 L 39.622702 27.260819 C 39.951793 27.257082 40.272127 27.320941 40.579166 27.449775 C 40.886204 27.57861 41.152702 27.75669 41.392282 27.99188 C 41.627321 28.224449 41.803657 28.495776 41.931072 28.799404 C 42.060408 29.110193 42.118822 29.428471 42.122559 29.757561 L 42.121675 33.607587 C 42.122791 33.941218 42.061553 34.257012 41.932718 34.564051 C 41.803884 34.871089 41.623183 35.142128 41.390614 35.377167 C 41.153505 35.609585 40.886717 35.788542 40.575928 35.917877 C 40.272301 36.045293 39.951401 36.108248 39.620392 36.104823 L 10.015485 36.103719 C 9.686395 36.107457 9.36606 36.043597 9.059021 35.914763 C 8.753902 35.793091 8.485485 35.607849 8.250446 35.37528 C 8.015407 35.142711 7.834531 34.868762 7.707115 34.565135 C 7.58232 34.256967 7.516744 33.940608 7.515628 33.606977 L 7.516512 29.756951 C 7.512775 29.427861 7.581175 29.110147 7.705469 28.800487 C 7.831682 28.497989 8.012383 28.226951 8.244952 27.991912 C 8.482061 27.759494 8.75147 27.575997 9.059638 27.451202 C 9.363265 27.323786 9.684164 27.260831 10.017795 27.259715 Z M 10.017795 27.259715 " stroke="#000b69" stroke-width="1" stroke-opacity="1" stroke-miterlimit="4"/><path fill="#cb3728" d="M 8.242188 24.304688 L 30.238281 11.609375 L 31.648438 14.050781 L 9.652344 26.75 Z M 8.242188 24.304688 " fill-opacity="1" fill-rule="nonzero"/><path fill="#cb3728" d="M 28.527344 21.066406 C 28.664062 20.988281 28.804688 20.96875 28.957031 21.007812 C 29.109375 21.050781 29.222656 21.136719 29.300781 21.273438 L 30.144531 22.738281 C 30.222656 22.875 30.242188 23.015625 30.203125 23.167969 C 30.164062 23.316406 30.074219 23.433594 29.941406 23.511719 C 29.804688 23.589844 29.664062 23.605469 29.511719 23.566406 C 29.359375 23.527344 29.246094 23.4375 29.167969 23.304688 L 28.324219 21.835938 C 28.246094 21.703125 28.226562 21.558594 28.265625 21.410156 C 28.304688 21.257812 28.394531 21.144531 28.527344 21.066406 Z M 28.527344 21.066406 " fill-opacity="1" fill-rule="nonzero"/><path fill="#cb3728" d="M 27.0625 21.914062 C 27.195312 21.835938 27.339844 21.816406 27.492188 21.855469 C 27.640625 21.898438 27.753906 21.984375 27.832031 22.121094 L 28.679688 23.585938 C 28.757812 23.722656 28.777344 23.863281 28.734375 24.015625 C 28.695312 24.164062 28.609375 24.28125 28.472656 24.355469 C 28.339844 24.433594 28.195312 24.453125 28.042969 24.414062 C 27.894531 24.375 27.78125 24.285156 27.703125 24.152344 L 26.855469 22.683594 C 26.777344 22.550781 26.757812 22.40625 26.800781 22.257812 C 26.839844 22.105469 26.925781 21.992188 27.0625 21.914062 Z M 27.0625 21.914062 " fill-opacity="1" fill-rule="nonzero"/><path fill="#cb3728" d="M 25.59375 22.757812 C 25.730469 22.683594 25.875 22.664062 26.023438 22.703125 C 26.175781 22.742188 26.289062 22.832031 26.367188 22.964844 L 27.214844 24.433594 C 27.289062 24.566406 27.308594 24.710938 27.269531 24.859375 C 27.230469 25.011719 27.140625 25.125 27.007812 25.203125 C 26.871094 25.28125 26.730469 25.300781 26.578125 25.261719 C 26.429688 25.21875 26.3125 25.132812 26.234375 24.996094 L 25.390625 23.53125 C 25.3125 23.394531 25.292969 23.253906 25.332031 23.101562 C 25.371094 22.953125 25.460938 22.835938 25.59375 22.757812 Z M 25.59375 22.757812 " fill-opacity="1" fill-rule="nonzero"/><path fill="#cb3728" d="M 29.996094 20.21875 C 30.128906 20.140625 30.273438 20.121094 30.421875 20.164062 C 30.574219 20.203125 30.6875 20.289062 30.765625 20.425781 L 31.613281 21.890625 C 31.691406 22.027344 31.710938 22.167969 31.667969 22.320312 C 31.628906 22.472656 31.539062 22.585938 31.40625 22.664062 C 31.269531 22.742188 31.128906 22.757812 30.976562 22.71875 C 30.828125 22.679688 30.710938 22.589844 30.636719 22.457031 L 29.789062 20.992188 C 29.710938 20.855469 29.691406 20.710938 29.730469 20.5625 C 29.773438 20.410156 29.859375 20.296875 29.996094 20.21875 Z M 29.996094 20.21875 " fill-opacity="1" fill-rule="nonzero"/><path fill="#cb3728" d="M 31.460938 19.375 C 31.597656 19.296875 31.738281 19.277344 31.890625 19.316406 C 32.039062 19.359375 32.152344 19.445312 32.230469 19.582031 L 33.078125 21.046875 C 33.15625 21.179688 33.175781 21.324219 33.136719 21.476562 C 33.09375 21.625 33.007812 21.738281 32.871094 21.816406 C 32.738281 21.894531 32.59375 21.914062 32.445312 21.875 C 32.292969 21.832031 32.179688 21.746094 32.101562 21.609375 L 31.253906 20.144531 C 31.175781 20.007812 31.15625 19.867188 31.199219 19.714844 C 31.238281 19.566406 31.324219 19.453125 31.460938 19.375 Z M 31.460938 19.375 " fill-opacity="1" fill-rule="nonzero"/><path fill="#48d882" d="M 23.964844 15.621094 C 22.414062 16.03125 20.734375 16.246094 19.113281 16.234375 C 19.027344 16.234375 18.945312 16.28125 18.90625 16.355469 C 18.089844 17.8125 17.128906 19.09375 15.972656 20.269531 C 15.898438 20.347656 15.886719 20.460938 15.941406 20.554688 L 17.15625 22.644531 C 18.40625 24.796875 20.230469 25.640625 21.535156 25.972656 C 22.945312 26.328125 24.273438 26.207031 24.648438 25.984375 C 25.03125 25.765625 25.792969 24.671875 26.175781 23.269531 C 26.53125 21.972656 26.695312 19.96875 25.445312 17.816406 L 24.226562 15.726562 C 24.175781 15.636719 24.066406 15.59375 23.964844 15.621094 Z M 23.964844 15.621094 " fill-opacity="1" fill-rule="nonzero"/><path fill="#ffffff" d="M 22.40625 18.082031 C 22.425781 18.007812 22.472656 17.941406 22.542969 17.902344 C 22.609375 17.863281 22.6875 17.851562 22.765625 17.871094 C 22.925781 17.914062 23.019531 18.078125 22.976562 18.234375 L 21.921875 22.222656 C 21.902344 22.300781 21.855469 22.363281 21.785156 22.402344 C 21.71875 22.441406 21.636719 22.453125 21.5625 22.433594 L 19.652344 21.929688 C 19.492188 21.886719 19.398438 21.726562 19.441406 21.566406 C 19.460938 21.492188 19.507812 21.425781 19.578125 21.386719 C 19.644531 21.347656 19.726562 21.335938 19.800781 21.355469 L 21.195312 21.722656 C 21.257812 21.738281 21.320312 21.730469 21.375 21.699219 C 21.429688 21.667969 21.46875 21.617188 21.484375 21.554688 Z M 22.40625 18.082031 " fill-opacity="1" fill-rule="nonzero"/></svg>