<svg xmlns="http://www.w3.org/2000/svg" xmlns:xlink="http://www.w3.org/1999/xlink" width="56" zoomAndPan="magnify" viewBox="0 0 42 42.75" height="57" preserveAspectRatio="xMidYMid meet" version="1.0"><defs><clipPath id="06f924597c"><path d="M 0.15625 0 L 41.875 0 L 41.875 42.5 L 0.15625 42.5 Z M 0.15625 0 " clip-rule="nonzero"/></clipPath></defs><g clip-path="url(#06f924597c)"><path fill="#ddffeb" d="M 41.867188 21.246094 C 41.867188 21.929688 41.832031 22.609375 41.765625 23.289062 C 41.699219 23.96875 41.597656 24.644531 41.464844 25.3125 C 41.332031 25.984375 41.167969 26.644531 40.96875 27.296875 C 40.769531 27.953125 40.539062 28.59375 40.277344 29.226562 C 40.019531 29.855469 39.726562 30.472656 39.402344 31.074219 C 39.082031 31.679688 38.730469 32.261719 38.351562 32.832031 C 37.972656 33.398438 37.566406 33.945312 37.132812 34.476562 C 36.699219 35.003906 36.242188 35.507812 35.757812 35.992188 C 35.277344 36.472656 34.769531 36.933594 34.242188 37.367188 C 33.714844 37.800781 33.167969 38.207031 32.597656 38.585938 C 32.03125 38.964844 31.445312 39.316406 30.84375 39.636719 C 30.242188 39.960938 29.625 40.25 28.992188 40.511719 C 28.363281 40.773438 27.71875 41.003906 27.066406 41.203125 C 26.414062 41.398438 25.75 41.566406 25.082031 41.699219 C 24.410156 41.832031 23.734375 41.933594 23.054688 42 C 22.375 42.066406 21.695312 42.097656 21.011719 42.097656 C 20.328125 42.097656 19.648438 42.066406 18.96875 42 C 18.289062 41.933594 17.613281 41.832031 16.945312 41.699219 C 16.273438 41.566406 15.613281 41.398438 14.957031 41.203125 C 14.304688 41.003906 13.664062 40.773438 13.03125 40.511719 C 12.398438 40.25 11.785156 39.960938 11.179688 39.636719 C 10.578125 39.316406 9.992188 38.964844 9.425781 38.585938 C 8.859375 38.207031 8.308594 37.800781 7.78125 37.367188 C 7.253906 36.933594 6.75 36.472656 6.265625 35.992188 C 5.78125 35.507812 5.324219 35.003906 4.890625 34.476562 C 4.457031 33.945312 4.050781 33.398438 3.671875 32.832031 C 3.292969 32.261719 2.941406 31.679688 2.621094 31.074219 C 2.296875 30.472656 2.007812 29.855469 1.746094 29.226562 C 1.484375 28.59375 1.253906 27.953125 1.054688 27.296875 C 0.855469 26.644531 0.691406 25.984375 0.558594 25.3125 C 0.425781 24.644531 0.324219 23.96875 0.257812 23.289062 C 0.191406 22.609375 0.15625 21.929688 0.15625 21.246094 C 0.15625 20.5625 0.191406 19.878906 0.257812 19.199219 C 0.324219 18.519531 0.425781 17.847656 0.558594 17.175781 C 0.691406 16.507812 0.855469 15.84375 1.054688 15.191406 C 1.253906 14.539062 1.484375 13.894531 1.746094 13.265625 C 2.007812 12.632812 2.296875 12.015625 2.621094 11.414062 C 2.941406 10.8125 3.292969 10.226562 3.671875 9.660156 C 4.050781 9.089844 4.457031 8.542969 4.890625 8.015625 C 5.324219 7.488281 5.78125 6.980469 6.265625 6.5 C 6.75 6.015625 7.253906 5.558594 7.78125 5.125 C 8.308594 4.691406 8.859375 4.285156 9.425781 3.90625 C 9.992188 3.527344 10.578125 3.175781 11.179688 2.851562 C 11.785156 2.53125 12.398438 2.238281 13.03125 1.976562 C 13.664062 1.714844 14.304688 1.488281 14.957031 1.289062 C 15.613281 1.089844 16.273438 0.925781 16.945312 0.789062 C 17.613281 0.65625 18.289062 0.558594 18.96875 0.492188 C 19.648438 0.421875 20.328125 0.390625 21.011719 0.390625 C 21.695312 0.390625 22.375 0.421875 23.054688 0.492188 C 23.734375 0.558594 24.410156 0.65625 25.082031 0.789062 C 25.75 0.925781 26.414062 1.089844 27.066406 1.289062 C 27.71875 1.488281 28.363281 1.714844 28.992188 1.976562 C 29.625 2.238281 30.242188 2.53125 30.84375 2.851562 C 31.445312 3.175781 32.03125 3.527344 32.597656 3.90625 C 33.167969 4.285156 33.714844 4.691406 34.242188 5.125 C 34.769531 5.558594 35.277344 6.015625 35.757812 6.5 C 36.242188 6.980469 36.699219 7.488281 37.132812 8.015625 C 37.566406 8.542969 37.972656 9.089844 38.351562 9.660156 C 38.730469 10.226562 39.082031 10.8125 39.402344 11.414062 C 39.726562 12.015625 40.019531 12.632812 40.277344 13.265625 C 40.539062 13.894531 40.769531 14.539062 40.96875 15.191406 C 41.167969 15.84375 41.332031 16.507812 41.464844 17.175781 C 41.597656 17.847656 41.699219 18.519531 41.765625 19.199219 C 41.832031 19.878906 41.867188 20.5625 41.867188 21.246094 Z M 41.867188 21.246094 " fill-opacity="1" fill-rule="nonzero"/></g><path stroke-linecap="butt" transform="matrix(0.744807, 0, 0, 0.744807, 0.157519, 0.017894)" fill-opacity="1" fill="#009685" fill-rule="nonzero" stroke-linejoin="miter" d="M 28.350848 39.604514 C 30.385771 38.749636 31.985387 37.58008 33.160188 36.106335 C 34.334988 34.63259 34.922389 33.027729 34.922389 31.286506 C 34.922389 29.550529 34.334988 27.945667 33.160188 26.471922 C 31.985387 24.998177 30.385771 23.828621 28.350848 22.973744 C 26.321171 22.118867 24.113175 21.688806 21.726861 21.688806 C 19.335303 21.688806 17.127308 22.118867 15.09763 22.973744 C 13.067952 23.828621 11.463091 24.998177 10.28829 26.471922 C 9.11349 27.945667 8.52609 29.550529 8.52609 31.286506 C 8.52609 32.775986 8.971885 34.176306 9.85823 35.487467 C 10.744575 36.803873 11.961332 37.905248 13.513747 38.807327 C 13.387876 39.106272 13.262004 39.384238 13.130888 39.630737 C 12.999772 39.88248 12.842433 40.123733 12.65887 40.354498 C 12.480552 40.585262 12.338947 40.768825 12.239298 40.899941 C 12.13965 41.031057 11.977066 41.21462 11.751546 41.450629 C 11.526027 41.686638 11.379177 41.843977 11.321486 41.917402 C 11.321486 41.906913 11.295262 41.933136 11.242816 42.006561 C 11.195614 42.074741 11.164146 42.106209 11.158902 42.09572 C 11.153657 42.090475 11.127434 42.121943 11.085477 42.190124 C 11.043519 42.258304 11.017296 42.295016 11.017296 42.295016 L 10.970094 42.38942 C 10.95436 42.426133 10.938626 42.462845 10.933382 42.499558 C 10.928137 42.53627 10.922893 42.578227 10.922893 42.620184 C 10.922893 42.667386 10.933382 42.704099 10.943871 42.746056 C 10.970094 42.90864 11.043519 43.039756 11.158902 43.139404 C 11.279528 43.239053 11.4054 43.286254 11.541761 43.286254 L 11.599452 43.286254 C 12.223565 43.20234 12.763763 43.097447 13.214802 42.98731 C 15.139587 42.489068 16.875565 41.686638 18.422735 40.585262 C 19.550334 40.789803 20.651709 40.889452 21.726861 40.889452 C 24.113175 40.889452 26.321171 40.459391 28.350848 39.604514 Z M 28.350848 39.604514 " stroke="#000b69" stroke-width="1" stroke-opacity="1" stroke-miterlimit="4"/><path fill="#48d882" d="M 10.492188 20.550781 C 10.492188 20.402344 10.609375 20.285156 10.757812 20.285156 L 21.84375 20.285156 C 21.992188 20.285156 22.113281 20.402344 22.113281 20.550781 C 22.113281 20.699219 21.992188 20.820312 21.84375 20.820312 L 10.757812 20.820312 C 10.609375 20.820312 10.492188 20.699219 10.492188 20.550781 Z M 10.492188 20.550781 " fill-opacity="1" fill-rule="evenodd"/><path fill="#48d882" d="M 10.492188 22.757812 C 10.492188 22.609375 10.609375 22.488281 10.757812 22.488281 L 21.84375 22.488281 C 21.992188 22.488281 22.113281 22.609375 22.113281 22.757812 C 22.113281 22.90625 21.992188 23.023438 21.84375 23.023438 L 10.757812 23.023438 C 10.609375 23.023438 10.492188 22.90625 10.492188 22.757812 Z M 10.492188 22.757812 " fill-opacity="1" fill-rule="evenodd"/><path fill="#48d882" d="M 10.492188 24.960938 C 10.492188 24.8125 10.609375 24.691406 10.757812 24.691406 L 17.941406 24.691406 C 18.089844 24.691406 18.210938 24.8125 18.210938 24.960938 C 18.210938 25.109375 18.089844 25.230469 17.941406 25.230469 L 10.757812 25.230469 C 10.609375 25.230469 10.492188 25.109375 10.492188 24.960938 Z M 10.492188 24.960938 " fill-opacity="1" fill-rule="evenodd"/><path fill="#48d882" d="M 15.054688 19.507812 C 15.054688 17.585938 16.609375 16.03125 18.53125 16.03125 L 21.757812 16.03125 C 23.8125 16.03125 25.480469 17.699219 25.480469 19.753906 L 25.480469 22.984375 C 25.480469 24.902344 23.925781 26.457031 22.003906 26.457031 C 18.164062 26.457031 15.054688 23.347656 15.054688 19.507812 Z M 15.054688 19.507812 " fill-opacity="1" fill-rule="nonzero"/><path stroke-linecap="butt" transform="matrix(0.744807, 0, 0, 0.744807, 0.157519, 0.017894)" fill-opacity="1" fill="#ffffff" fill-rule="nonzero" stroke-linejoin="miter" d="M 23.982059 14.262388 L 44.236878 14.262388 C 45.76307 14.262388 47.000806 15.49488 47.000806 17.021072 L 47.000806 31.75328 C 47.000806 33.279471 45.76307 34.511963 44.236878 34.511963 L 40.969464 34.511963 L 41.47295 39.017113 C 41.525397 39.520599 41.163516 39.976883 40.654786 40.034574 C 40.397798 40.060798 40.135566 39.976883 39.941514 39.80381 L 34.062267 34.511963 L 23.982059 34.511963 C 22.461112 34.511963 21.223376 33.279471 21.223376 31.75328 L 21.223376 17.021072 C 21.223376 15.49488 22.461112 14.262388 23.982059 14.262388 Z M 23.982059 14.262388 " stroke="#000b69" stroke-width="1" stroke-opacity="1" stroke-miterlimit="4"/><path fill="#cb3728" d="M 29.96875 17.230469 C 29.910156 17.058594 29.757812 16.9375 29.578125 16.921875 L 27.113281 16.710938 L 26.125 14.4375 C 26.050781 14.269531 25.886719 14.164062 25.707031 14.164062 C 25.523438 14.167969 25.359375 14.273438 25.289062 14.441406 L 24.332031 16.726562 L 21.867188 16.964844 C 21.6875 16.984375 21.535156 17.105469 21.480469 17.28125 C 21.425781 17.453125 21.476562 17.640625 21.613281 17.761719 L 23.488281 19.382812 L 22.953125 21.804688 C 22.914062 21.980469 22.980469 22.164062 23.128906 22.269531 C 23.210938 22.328125 23.304688 22.355469 23.398438 22.355469 C 23.476562 22.355469 23.558594 22.335938 23.628906 22.289062 L 25.746094 21.007812 L 27.875 22.265625 C 28.03125 22.359375 28.230469 22.347656 28.375 22.242188 C 28.523438 22.132812 28.589844 21.949219 28.550781 21.773438 L 27.988281 19.355469 L 29.839844 17.714844 C 29.972656 17.59375 30.023438 17.402344 29.96875 17.230469 Z M 29.96875 17.230469 " fill-opacity="1" fill-rule="nonzero"/></svg>