<svg xmlns="http://www.w3.org/2000/svg" xmlns:xlink="http://www.w3.org/1999/xlink" width="56" zoomAndPan="magnify" viewBox="0 0 42 42.75" height="57" preserveAspectRatio="xMidYMid meet" version="1.0"><defs><g/><clipPath id="fbe9fa8e77"><path d="M 0.121094 0.390625 L 41.875 0.390625 L 41.875 42.109375 L 0.121094 42.109375 Z M 0.121094 0.390625 " clip-rule="nonzero"/></clipPath><clipPath id="f4fd1abc96"><path d="M 21 0.390625 C 9.46875 0.390625 0.121094 9.730469 0.121094 21.25 C 0.121094 32.769531 9.46875 42.109375 21 42.109375 C 32.53125 42.109375 41.878906 32.769531 41.878906 21.25 C 41.878906 9.730469 32.53125 0.390625 21 0.390625 Z M 21 0.390625 " clip-rule="nonzero"/></clipPath><clipPath id="7763517888"><path d="M 12.203125 10.449219 L 30 10.449219 L 30 32.074219 L 12.203125 32.074219 Z M 12.203125 10.449219 " clip-rule="nonzero"/></clipPath><clipPath id="2ebf76ab57"><path d="M 23 10.449219 L 30 10.449219 L 30 17 L 23 17 Z M 23 10.449219 " clip-rule="nonzero"/></clipPath><clipPath id="61b6dc82bc"><path d="M 14 27 L 28 27 L 28 32.074219 L 14 32.074219 Z M 14 27 " clip-rule="nonzero"/></clipPath><clipPath id="1170d92671"><path d="M 13 26 L 29 26 L 29 32.074219 L 13 32.074219 Z M 13 26 " clip-rule="nonzero"/></clipPath><clipPath id="6629aa4b75"><path d="M 15.746094 27.964844 L 26.261719 27.964844 L 26.261719 31.828125 L 15.746094 31.828125 Z M 15.746094 27.964844 " clip-rule="nonzero"/></clipPath><clipPath id="d6da233001"><path d="M 16.601562 27.964844 L 25.398438 27.964844 C 25.871094 27.964844 26.253906 28.347656 26.253906 28.820312 L 26.253906 30.972656 C 26.253906 31.445312 25.871094 31.828125 25.398438 31.828125 L 16.601562 31.828125 C 16.128906 31.828125 15.746094 31.445312 15.746094 30.972656 L 15.746094 28.820312 C 15.746094 28.347656 16.128906 27.964844 16.601562 27.964844 Z M 16.601562 27.964844 " clip-rule="nonzero"/></clipPath></defs><g clip-path="url(#fbe9fa8e77)"><g clip-path="url(#f4fd1abc96)"><path fill="#ddffeb" d="M 0.121094 0.390625 L 41.839844 0.390625 L 41.839844 42.109375 L 0.121094 42.109375 Z M 0.121094 0.390625 " fill-opacity="1" fill-rule="nonzero"/></g></g><g clip-path="url(#7763517888)"><path stroke-linecap="round" transform="matrix(0.143143, 0, 0, 0.143143, -14.802621, -14.510881)" fill-opacity="1" fill="#009685" fill-rule="evenodd" stroke-linejoin="round" d="M 195.703607 174.672229 L 268.129107 174.672229 L 311.136864 217.707275 L 311.136864 318.267926 C 311.136864 320.12359 310.481924 321.706363 309.172043 323.016244 C 307.862162 324.326125 306.279389 324.981065 304.423725 324.981065 L 195.703607 324.981065 C 193.847943 324.981065 192.26517 324.326125 190.955289 323.016244 C 189.645408 321.706363 188.990467 320.12359 188.990467 318.267926 L 188.990467 181.385368 C 188.990467 179.529704 189.672697 177.946931 190.982578 176.63705 C 192.292459 175.327169 193.847943 174.672229 195.703607 174.672229 Z M 195.703607 174.672229 " stroke="#565656" stroke-width="0.57" stroke-opacity="1" stroke-miterlimit="4"/></g><g clip-path="url(#2ebf76ab57)"><path stroke-linecap="round" transform="matrix(0.143143, 0, 0, 0.143143, -14.802621, -14.510881)" fill-opacity="1" fill="#cb3728" fill-rule="evenodd" stroke-linejoin="round" d="M 274.542066 218.007456 L 311.164154 218.007456 L 267.828926 174.644939 L 267.828926 211.267027 C 267.828926 213.122692 268.483867 214.705465 269.793747 216.015345 C 271.103628 217.325226 272.686401 218.007456 274.542066 218.007456 Z M 274.542066 218.007456 " stroke="#565656" stroke-width="0.57" stroke-opacity="1" stroke-miterlimit="4"/></g><g clip-path="url(#61b6dc82bc)"><path fill="#cb3728" d="M 15.1875 27.308594 L 26.804688 27.308594 C 27.023438 27.308594 27.210938 27.386719 27.363281 27.542969 C 27.519531 27.695312 27.59375 27.882812 27.597656 28.101562 L 27.597656 31.21875 C 27.59375 31.4375 27.519531 31.621094 27.363281 31.777344 C 27.210938 31.929688 27.023438 32.007812 26.804688 32.007812 L 15.1875 32.007812 C 14.96875 32.007812 14.78125 31.929688 14.628906 31.777344 C 14.472656 31.621094 14.394531 31.4375 14.394531 31.21875 L 14.394531 28.101562 C 14.394531 27.882812 14.472656 27.695312 14.628906 27.542969 C 14.78125 27.386719 14.96875 27.308594 15.1875 27.308594 Z M 15.1875 27.308594 " fill-opacity="1" fill-rule="evenodd"/></g><g clip-path="url(#1170d92671)"><path stroke-linecap="butt" transform="matrix(0.143143, 0, 0, 0.143143, -14.802621, -14.510881)" fill="none" stroke-linejoin="miter" d="M 209.511935 292.152175 L 290.669975 292.152175 C 292.198169 292.152175 293.50805 292.697958 294.572328 293.789526 C 295.663896 294.853804 296.18239 296.163685 296.20968 297.691879 L 296.20968 319.46865 C 296.18239 320.996844 295.663896 322.279436 294.572328 323.371004 C 293.50805 324.435282 292.198169 324.981065 290.669975 324.981065 L 209.511935 324.981065 C 207.983741 324.981065 206.67386 324.435282 205.609582 323.371004 C 204.518014 322.279436 203.972231 320.996844 203.972231 319.46865 L 203.972231 297.691879 C 203.972231 296.163685 204.518014 294.853804 205.609582 293.789526 C 206.67386 292.697958 207.983741 292.152175 209.511935 292.152175 Z M 209.511935 292.152175 " stroke="#565656" stroke-width="0.57" stroke-opacity="1" stroke-miterlimit="10"/></g><path fill="#ffffff" d="M 16.214844 30.984375 L 16.214844 30.445312 L 16.625 30.445312 L 16.625 30.984375 Z M 17.117188 30.984375 L 17.117188 28.332031 L 18.078125 28.332031 C 18.273438 28.328125 18.464844 28.363281 18.648438 28.4375 C 18.808594 28.503906 18.945312 28.597656 19.058594 28.722656 C 19.171875 28.847656 19.253906 28.984375 19.308594 29.140625 C 19.363281 29.308594 19.390625 29.480469 19.386719 29.65625 C 19.390625 29.84375 19.359375 30.027344 19.292969 30.203125 C 19.238281 30.363281 19.152344 30.503906 19.03125 30.621094 C 18.914062 30.742188 18.777344 30.832031 18.621094 30.894531 C 18.445312 30.957031 18.265625 30.988281 18.078125 30.988281 Z M 18.867188 29.65625 C 18.871094 29.535156 18.851562 29.421875 18.816406 29.304688 C 18.785156 29.199219 18.734375 29.105469 18.660156 29.019531 C 18.59375 28.941406 18.507812 28.882812 18.414062 28.839844 C 18.304688 28.796875 18.195312 28.777344 18.078125 28.777344 L 17.628906 28.777344 L 17.628906 30.535156 L 18.078125 30.535156 C 18.195312 30.539062 18.308594 30.515625 18.417969 30.464844 C 18.515625 30.421875 18.597656 30.359375 18.664062 30.28125 C 18.730469 30.195312 18.78125 30.105469 18.816406 30.003906 C 18.851562 29.890625 18.871094 29.773438 18.867188 29.65625 Z M 20.617188 28.339844 L 21.09375 28.339844 L 21.390625 29.214844 L 21.691406 28.339844 L 22.167969 28.339844 L 21.71875 29.546875 L 22.054688 30.40625 L 22.804688 28.339844 L 23.363281 28.339844 L 22.285156 30.992188 L 21.855469 30.992188 L 21.398438 29.882812 L 20.9375 30.992188 L 20.507812 30.992188 L 19.429688 28.339844 L 19.980469 28.339844 L 20.738281 30.40625 L 21.066406 29.546875 Z M 25.777344 30.304688 C 25.777344 30.40625 25.757812 30.5 25.710938 30.589844 C 25.664062 30.675781 25.605469 30.75 25.523438 30.804688 C 25.441406 30.867188 25.351562 30.910156 25.25 30.933594 C 25.144531 30.964844 25.035156 30.980469 24.921875 30.980469 L 23.632812 30.980469 L 23.632812 28.332031 L 25.054688 28.332031 C 25.140625 28.332031 25.222656 28.351562 25.300781 28.394531 C 25.378906 28.429688 25.441406 28.480469 25.492188 28.546875 C 25.546875 28.613281 25.585938 28.683594 25.613281 28.761719 C 25.644531 28.84375 25.660156 28.925781 25.660156 29.011719 C 25.660156 29.140625 25.628906 29.261719 25.5625 29.375 C 25.496094 29.492188 25.398438 29.574219 25.277344 29.628906 C 25.429688 29.664062 25.550781 29.75 25.644531 29.875 C 25.738281 30.003906 25.78125 30.148438 25.769531 30.304688 Z M 25.257812 30.207031 C 25.261719 30.15625 25.253906 30.109375 25.234375 30.0625 C 25.21875 30.019531 25.195312 29.984375 25.164062 29.949219 C 25.140625 29.917969 25.109375 29.890625 25.074219 29.871094 C 25.03125 29.851562 24.992188 29.84375 24.945312 29.84375 L 24.15625 29.84375 L 24.15625 30.542969 L 24.921875 30.542969 C 24.96875 30.542969 25.011719 30.535156 25.050781 30.515625 C 25.09375 30.5 25.128906 30.476562 25.160156 30.445312 C 25.226562 30.375 25.257812 30.296875 25.257812 30.203125 Z M 24.15625 28.777344 L 24.15625 29.445312 L 24.847656 29.445312 C 24.9375 29.445312 25.011719 29.414062 25.070312 29.351562 C 25.136719 29.285156 25.167969 29.203125 25.164062 29.109375 C 25.171875 29.015625 25.140625 28.933594 25.078125 28.867188 C 25.023438 28.804688 24.957031 28.773438 24.871094 28.777344 Z M 24.15625 28.777344 " fill-opacity="1" fill-rule="nonzero"/><path fill="#ffffff" d="M 14.664062 17.773438 L 23.519531 17.773438 C 23.660156 17.761719 23.742188 17.828125 23.761719 17.96875 C 23.746094 18.113281 23.664062 18.179688 23.519531 18.164062 L 14.664062 18.164062 C 14.519531 18.179688 14.4375 18.117188 14.417969 17.96875 C 14.4375 17.824219 14.519531 17.761719 14.664062 17.773438 Z M 14.664062 17.773438 " fill-opacity="1" fill-rule="evenodd"/><path fill="#ffffff" d="M 14.683594 19.085938 L 24.019531 19.085938 C 24.160156 19.085938 24.277344 19.175781 24.277344 19.28125 C 24.277344 19.386719 24.160156 19.472656 24.019531 19.472656 L 14.683594 19.472656 C 14.542969 19.472656 14.425781 19.386719 14.425781 19.28125 C 14.425781 19.175781 14.542969 19.085938 14.683594 19.085938 Z M 14.683594 19.085938 " fill-opacity="1" fill-rule="evenodd"/><path fill="#ffffff" d="M 14.714844 20.398438 L 23.367188 20.398438 C 23.53125 20.398438 23.664062 20.484375 23.664062 20.59375 C 23.664062 20.699219 23.53125 20.789062 23.367188 20.789062 L 14.714844 20.789062 C 14.550781 20.789062 14.417969 20.699219 14.417969 20.59375 C 14.417969 20.484375 14.550781 20.398438 14.714844 20.398438 Z M 14.714844 20.398438 " fill-opacity="1" fill-rule="evenodd"/><path fill="#ffffff" d="M 14.683594 21.703125 L 24.019531 21.703125 C 24.160156 21.703125 24.277344 21.792969 24.277344 21.898438 C 24.277344 22.007812 24.160156 22.09375 24.019531 22.09375 L 14.683594 22.09375 C 14.542969 22.09375 14.425781 22.007812 14.425781 21.898438 C 14.425781 21.792969 14.542969 21.703125 14.683594 21.703125 Z M 14.683594 21.703125 " fill-opacity="1" fill-rule="evenodd"/><path fill="#ffffff" d="M 14.683594 23.019531 L 24.019531 23.019531 C 24.167969 23.003906 24.253906 23.070312 24.277344 23.21875 C 24.277344 23.324219 24.160156 23.414062 24.019531 23.414062 L 14.683594 23.414062 C 14.542969 23.414062 14.425781 23.324219 14.425781 23.21875 C 14.445312 23.070312 14.535156 23.003906 14.683594 23.019531 Z M 14.683594 23.019531 " fill-opacity="1" fill-rule="evenodd"/><path fill="#ffffff" d="M 14.683594 24.335938 L 22.269531 24.335938 C 22.414062 24.335938 22.53125 24.425781 22.53125 24.53125 C 22.53125 24.640625 22.414062 24.722656 22.269531 24.722656 L 14.683594 24.722656 C 14.542969 24.722656 14.425781 24.640625 14.425781 24.53125 C 14.425781 24.425781 14.542969 24.335938 14.683594 24.335938 Z M 14.683594 24.335938 " fill-opacity="1" fill-rule="evenodd"/><g clip-path="url(#6629aa4b75)"><g clip-path="url(#d6da233001)"><path fill="#cb3728" d="M 15.746094 27.964844 L 26.246094 27.964844 L 26.246094 31.828125 L 15.746094 31.828125 Z M 15.746094 27.964844 " fill-opacity="1" fill-rule="nonzero"/></g></g><g fill="#ffffff" fill-opacity="1"><g transform="translate(17.74006, 30.202964)"><g><path d="M 0.359375 0.015625 C 0.316406 0.015625 0.273438 0.00390625 0.234375 -0.015625 C 0.203125 -0.0351562 0.175781 -0.0625 0.15625 -0.09375 C 0.144531 -0.125 0.140625 -0.160156 0.140625 -0.203125 C 0.140625 -0.242188 0.144531 -0.28125 0.15625 -0.3125 C 0.175781 -0.34375 0.203125 -0.363281 0.234375 -0.375 C 0.273438 -0.394531 0.316406 -0.40625 0.359375 -0.40625 C 0.398438 -0.40625 0.4375 -0.394531 0.46875 -0.375 C 0.507812 -0.363281 0.535156 -0.34375 0.546875 -0.3125 C 0.566406 -0.28125 0.578125 -0.242188 0.578125 -0.203125 C 0.578125 -0.140625 0.554688 -0.0859375 0.515625 -0.046875 C 0.472656 -0.00390625 0.421875 0.015625 0.359375 0.015625 Z M 0.359375 0.015625 "/></g></g></g><g fill="#ffffff" fill-opacity="1"><g transform="translate(18.453603, 30.202964)"><g><path d="M 0.90625 -1.859375 C 1.207031 -1.859375 1.4375 -1.78125 1.59375 -1.625 C 1.75 -1.46875 1.828125 -1.234375 1.828125 -0.921875 C 1.828125 -0.617188 1.75 -0.390625 1.59375 -0.234375 C 1.4375 -0.078125 1.207031 0 0.90625 0 L 0.234375 0 L 0.234375 -1.859375 Z M 0.890625 -0.3125 C 1.078125 -0.3125 1.21875 -0.359375 1.3125 -0.453125 C 1.40625 -0.546875 1.453125 -0.703125 1.453125 -0.921875 C 1.453125 -1.140625 1.40625 -1.296875 1.3125 -1.390625 C 1.21875 -1.492188 1.078125 -1.546875 0.890625 -1.546875 L 0.609375 -1.546875 L 0.609375 -0.3125 Z M 0.890625 -0.3125 "/></g></g></g><g fill="#ffffff" fill-opacity="1"><g transform="translate(20.42753, 30.202964)"><g><path d="M 1.015625 0.03125 C 0.835938 0.03125 0.679688 -0.00390625 0.546875 -0.078125 C 0.421875 -0.148438 0.320312 -0.253906 0.25 -0.390625 C 0.175781 -0.535156 0.140625 -0.710938 0.140625 -0.921875 C 0.140625 -1.140625 0.175781 -1.316406 0.25 -1.453125 C 0.320312 -1.597656 0.421875 -1.703125 0.546875 -1.765625 C 0.679688 -1.835938 0.835938 -1.875 1.015625 -1.875 C 1.179688 -1.875 1.328125 -1.835938 1.453125 -1.765625 C 1.585938 -1.703125 1.691406 -1.597656 1.765625 -1.453125 C 1.835938 -1.316406 1.875 -1.140625 1.875 -0.921875 C 1.875 -0.710938 1.835938 -0.535156 1.765625 -0.390625 C 1.691406 -0.253906 1.585938 -0.148438 1.453125 -0.078125 C 1.328125 -0.00390625 1.179688 0.03125 1.015625 0.03125 Z M 1.015625 -0.296875 C 1.171875 -0.296875 1.289062 -0.34375 1.375 -0.4375 C 1.457031 -0.539062 1.5 -0.703125 1.5 -0.921875 C 1.5 -1.140625 1.457031 -1.300781 1.375 -1.40625 C 1.289062 -1.507812 1.171875 -1.5625 1.015625 -1.5625 C 0.847656 -1.5625 0.722656 -1.507812 0.640625 -1.40625 C 0.554688 -1.300781 0.515625 -1.140625 0.515625 -0.921875 C 0.515625 -0.703125 0.554688 -0.539062 0.640625 -0.4375 C 0.722656 -0.34375 0.847656 -0.296875 1.015625 -0.296875 Z M 1.015625 -0.296875 "/></g></g></g><g fill="#ffffff" fill-opacity="1"><g transform="translate(22.439343, 30.202964)"><g><path d="M 1.015625 0.03125 C 0.835938 0.03125 0.679688 -0.00390625 0.546875 -0.078125 C 0.421875 -0.148438 0.320312 -0.253906 0.25 -0.390625 C 0.175781 -0.535156 0.140625 -0.710938 0.140625 -0.921875 C 0.140625 -1.128906 0.175781 -1.304688 0.25 -1.453125 C 0.320312 -1.597656 0.421875 -1.703125 0.546875 -1.765625 C 0.679688 -1.835938 0.835938 -1.875 1.015625 -1.875 C 1.191406 -1.875 1.34375 -1.835938 1.46875 -1.765625 C 1.59375 -1.703125 1.679688 -1.597656 1.734375 -1.453125 L 1.46875 -1.296875 L 1.4375 -1.296875 C 1.394531 -1.390625 1.335938 -1.457031 1.265625 -1.5 C 1.203125 -1.539062 1.117188 -1.5625 1.015625 -1.5625 C 0.859375 -1.5625 0.734375 -1.507812 0.640625 -1.40625 C 0.554688 -1.300781 0.515625 -1.140625 0.515625 -0.921875 C 0.515625 -0.703125 0.554688 -0.539062 0.640625 -0.4375 C 0.734375 -0.34375 0.859375 -0.296875 1.015625 -0.296875 C 1.253906 -0.296875 1.398438 -0.410156 1.453125 -0.640625 L 1.484375 -0.640625 L 1.75 -0.5 C 1.695312 -0.320312 1.609375 -0.1875 1.484375 -0.09375 C 1.367188 -0.0078125 1.210938 0.03125 1.015625 0.03125 Z M 1.015625 0.03125 "/></g></g></g></svg>