<?xml version="1.0" encoding="utf-8"?>
<!DOCTYPE svg PUBLIC "-//W3C//DTD SVG 1.0//EN" "http://www.w3.org/TR/2001/REC-SVG-20010904/DTD/svg10.dtd">
<svg version="1.0" xmlns="http://www.w3.org/2000/svg" width="250px" height="250px" viewBox="0 0 250 250" preserveAspectRatio="xMidYMid meet">
 <g fill="#bb3324">
  <path d="M113.4 243.8 c-12 -1 -16.4 -2.4 -16.4 -5.2 0 -2 0.7 -2.4 8 -3.6 4.8 -0.8 8 -1.8 8 -2.6 0 -0.6 -0.7 -2.8 -1.5 -4.9 -1 -2.2 -1.5 -5.8 -1.3 -9.3 l0.3 -5.7 12.3 -0.3 12.2 -0.3 0 -3.4 c0 -1.9 0.4 -3.5 1 -3.5 0.5 0 0.7 -2.1 0.3 -5 l-0.6 -5 4.7 0 4.6 0 0 4.5 c0 3.1 -0.5 4.7 -1.5 5.1 -1 0.4 -1.5 2 -1.5 4.5 0 2.1 -0.4 3.9 -1 3.9 -0.5 0 -1 0.5 -1 1 0 1.4 7.7 1.3 8.2 -0.1 0.2 -0.6 2.5 -1.3 5.1 -1.6 l4.7 -0.6 0 3.6 c0 3.7 -1.4 4.7 -7.2 4.7 -1.4 0 -2.8 0.5 -3 1.1 -0.2 0.6 -2.5 1.3 -5.1 1.6 -4.4 0.5 -4.7 0.8 -4.7 3.4 0 2.2 -0.5 2.9 -2 2.9 -1.1 0 -2 0.5 -2 1 0 0.6 -2.8 1 -6.5 1 -3.7 0 -6.5 0.4 -6.5 1 0 0.6 2.7 1 6 1 l6 0 0 3.5 0 3.5 -5.4 0 c-4.9 0 -5.5 0.2 -5.8 2.3 -0.3 2.1 -0.5 2.2 -8.4 1.5z m23.6 -23.3 c0 -1.2 -1.8 -1.5 -10 -1.5 -5.5 0 -10 0.4 -10 0.9 0 1.6 2.1 1.9 11.3 2 7.1 0.1 8.7 -0.2 8.7 -1.4z"/>
  <path d="M160 235.5 c0 -2.9 0.5 -3.7 2.6 -4.5 1.4 -0.6 4.5 -2.4 7 -4.1 3.7 -2.5 5.2 -3 9.2 -2.7 9.6 0.6 4.1 6.2 -12 12.2 l-6.8 2.6 0 -3.5z"/>
  <path d="M78.8 234.4 c-6.1 -3.1 -6.4 -5.4 -0.7 -5.4 5.6 0 7.9 1.4 7.9 5 0 3.6 -1 3.7 -7.2 0.4z"/>
  <path d="M62.7 225.5 c-7.6 -5.1 -8.6 -7.5 -3.2 -7.5 3 0 3.5 0.3 3.5 2.4 0 2.1 0.5 2.5 3.8 2.8 3.4 0.3 3.7 0.6 4 3.6 0.2 1.7 0 3.2 -0.5 3.2 -0.5 0 -3.9 -2 -7.6 -4.5z"/>
  <path d="M85.5 215.5 c-2.2 -0.8 -4.1 -1.5 -4.2 -1.5 -0.2 0 -0.3 -1.6 -0.3 -3.5 0 -3.4 0.1 -3.5 3.7 -3.5 2 0 5.4 0.8 7.4 1.8 3.3 1.4 3.9 2.2 3.9 5 0 3 -0.2 3.2 -3.2 3.2 -1.8 -0.1 -5.1 -0.7 -7.3 -1.5z"/>
  <path d="M107 203.5 c-0.7 -2.5 -1.7 -4.8 -2.1 -5.1 -0.5 -0.3 -0.9 -2.1 -0.9 -4 0 -3.3 0.1 -3.4 3.9 -3.4 3.8 0 4 0.2 5.5 4.7 0.9 2.6 1.6 6.4 1.6 8.5 0 3.7 -0.1 3.8 -3.4 3.8 -3.1 0 -3.4 -0.3 -4.6 -4.5z"/>
  <path d="M34 197.8 c-3.1 -4.9 -10 -17.3 -10 -18 0 -0.5 1.8 -0.8 4 -0.8 4.7 0 6 1.8 6 8.4 0 3.4 0.4 4.6 1.5 4.6 1.1 0 1.5 1.1 1.5 4 0 4.5 -0.9 5 -3 1.8z"/>
  <path d="M141.6 189.9 c-1 -5.2 -0.7 -7.9 0.9 -7.9 0.8 0 1.5 -0.7 1.5 -1.5 0 -1 1.1 -1.5 3.5 -1.5 3.1 0 3.5 0.3 3.5 2.6 0 1.4 -0.5 4.5 -1.1 7 -1.1 4.1 -1.4 4.4 -4.4 4.4 -2.8 0 -3.3 -0.4 -3.9 -3.1z"/>
  <path d="M216 187.5 c0 -3.4 0.1 -3.5 4 -3.5 4.5 0 4.6 0 2.5 4 -1.1 2.1 -2.3 3 -4 3 -2.2 0 -2.5 -0.4 -2.5 -3.5z"/>
  <path d="M124 184.9 c0 -3.8 2.3 -5.8 6.8 -5.9 3.3 0 3.3 0 3 4.3 l-0.3 4.2 -4.7 0.3 c-4.8 0.3 -4.8 0.3 -4.8 -2.9z"/>
  <path d="M219 179.5 c0 -1.9 0.4 -3.5 0.8 -3.5 0.5 0 1.5 -2.2 2.2 -5 l1.4 -5 4.2 0 4.3 0 -1.8 5.3 c-3.3 9.5 -4.8 11.7 -8.1 11.7 -2.8 0 -3 -0.3 -3 -3.5z"/>
  <path d="M106 175.6 c0 -2.5 0.4 -3.6 1.5 -3.6 1 0 1.5 -1 1.5 -2.7 0 -1.4 0.7 -3.5 1.7 -4.5 1.5 -1.7 1.5 -1.8 -1 -1.8 -4.4 0 -5.7 -1 -5.7 -4.5 0 -5.6 0.8 -6.5 5.6 -6.5 l4.4 0 0.1 4.3 c0 3.2 0.2 3.7 0.9 2.2 0.4 -1.2 1.5 -2.7 2.4 -3.4 0.9 -0.7 1.6 -1.9 1.6 -2.6 0 -0.8 0.8 -2.7 1.8 -4.4 1.3 -2.3 2.4 -3.1 4.6 -3.1 2.3 0 2.7 -0.3 2 -1.7 -0.4 -1 -0.9 -3.5 -1.2 -5.5 l-0.4 -3.8 3.9 0 c3.6 0 4.1 0.4 6.1 4.1 1.2 2.2 2.2 5.8 2.2 8 0 3.7 -0.2 3.9 -3 3.9 l-3.1 0 3.1 4.4 c2.6 3.9 3 5.3 3 11 l0 6.6 -3.6 1.5 c-2 0.8 -5.8 1.5 -8.5 1.5 -3.1 0 -5.1 0.5 -5.6 1.4 -0.5 0.9 -3.4 1.7 -7.5 2.1 l-6.8 0.7 0 -3.6z"/>
  <path d="M198 171.5 c0 -2.4 0.5 -3.5 1.5 -3.5 0.9 0 1.5 -0.9 1.5 -2.3 0 -1.2 0.9 -4.7 2 -7.7 1.1 -3 2 -5.6 2 -5.7 0 -0.2 1.6 -0.3 3.6 -0.3 l3.6 0 -0.5 4.8 c-0.6 6.3 -3.6 14.2 -5.3 14.2 -0.8 0 -1.4 0.9 -1.4 2 0 1.6 -0.7 2 -3.5 2 -3.3 0 -3.5 -0.2 -3.5 -3.5z"/>
  <path d="M90 156.5 c0 -3.2 0.2 -3.5 3 -3.5 1.7 0 3 -0.4 3 -1 0 -0.5 -0.7 -1 -1.5 -1 -0.8 0 -1.5 -0.7 -1.5 -1.5 0 -0.8 -0.7 -1.5 -1.5 -1.5 -1.2 0 -1.5 -1.3 -1.5 -5.9 0 -3.2 0.5 -7.2 1.1 -9 1.1 -3 1.3 -3.1 7.1 -3.1 7.7 0 8.7 1.2 8.8 10.3 l0 6.7 -3.5 0 c-2.4 0 -3.5 0.5 -3.5 1.5 0 0.8 0.7 1.5 1.5 1.5 1 0 1.5 1.1 1.5 3.5 0 3.2 -0.2 3.5 -3 3.5 -2 0 -3 0.5 -3 1.5 0 1 -1.1 1.5 -3.5 1.5 -3.3 0 -3.5 -0.2 -3.5 -3.5z"/>
  <path d="M230.8 149.9 c-1.8 -1 -2.3 -4.5 -1.2 -8.6 0.5 -1.7 1.4 -2.3 3.5 -2.3 2.7 0 2.9 0.3 2.9 3.8 0 7.5 -1.4 9.4 -5.2 7.1z"/>
  <path d="M143 135.6 c0 -2.3 0.5 -5.7 1.1 -7.5 1 -2.8 1.5 -3.1 5.5 -3.1 4.2 0 4.4 0.1 4.4 3 0 1.6 -0.5 5 -1.2 7.5 -1.2 4.4 -1.3 4.5 -5.5 4.5 l-4.3 0 0 -4.4z"/>
  <path d="M229.6 126.9 c-0.3 -1.7 -0.6 -5.6 -0.6 -8.5 0 -5 0.2 -5.4 2.4 -5.4 2.9 0 3.3 0.9 4.2 9.9 l0.7 7.1 -3 0 c-2.6 0 -3.1 -0.5 -3.7 -3.1z"/>
  <path d="M15.4 118.8 c1 -7.8 1.7 -9.8 3.2 -9.8 1.9 0 2.8 6.6 1.5 11.1 -0.9 2.9 -1.7 3.9 -3.3 3.9 -1.9 0 -2 -0.4 -1.4 -5.2z"/>
  <path d="M91 115.1 c0 -2.2 0.6 -4.6 1.3 -5.3 1.5 -1.5 3.7 -10.5 3.7 -14.9 0 -2.7 0.3 -2.9 3.5 -2.9 l3.5 0 0 8.9 c0 7.6 -0.3 9.2 -1.9 10.3 -1 0.7 -2.2 2.8 -2.5 4.6 -0.7 2.8 -1.1 3.2 -4.2 3.2 -3.3 0 -3.4 -0.1 -3.4 -3.9z"/>
  <path d="M39.3 114.5 c-2 -2.2 -1.7 -6.2 1.3 -20.3 0.9 -4.3 3.9 -6.2 9.9 -6.2 5.5 0 5.5 0 5.5 3 0 1.7 -1.5 6.1 -3.4 9.8 -1.8 3.7 -3.9 8.6 -4.6 11 -1.2 3.8 -1.6 4.2 -4.4 4.2 -1.7 -0.1 -3.7 -0.7 -4.3 -1.5z"/>
  <path d="M155 112 c0 -3.3 -0.3 -4 -2 -4 -1.6 0 -2 -0.7 -2 -3.5 0 -3.3 0.2 -3.5 3.5 -3.5 2.4 0 3.5 0.5 3.5 1.5 0 0.8 0.9 1.5 2 1.5 1.8 0 2 0.7 2 6 l0 6 -3.5 0 c-3.4 0 -3.5 -0.1 -3.5 -4z"/>
  <path d="M129.6 110.4 c-1.5 -3.8 -0.3 -10.4 1.8 -10.4 0.6 0 1.9 -3.3 2.9 -7.3 1.3 -5.2 2.4 -7.7 4.2 -9 1.4 -1 2.5 -2.5 2.5 -3.2 0 -0.7 0.5 -1.5 1.2 -1.7 2.4 -0.8 -0.1 -3.8 -3.2 -3.8 -2.8 0 -3 -0.3 -3 -3.5 0 -2.4 0.5 -3.5 1.5 -3.5 1 0 1.5 -1 1.5 -3.4 0 -3.8 1.2 -4.6 7.1 -4.6 4.8 0 5.7 1.8 6.6 12.9 0.5 6.8 0.3 8.4 -2.2 14.6 -2.5 6.2 -7.7 14.4 -9.7 15.3 -0.5 0.2 -0.8 1.6 -0.8 3.2 0 5.1 -0.9 6 -5.5 6 -3 0 -4.5 -0.5 -4.9 -1.6z"/>
  <path d="M104 100 l0 -4 4.5 0 4.5 0 0 4 0 4 -4.5 0 -4.5 0 0 -4z"/>
  <path d="M114.7 101.4 c-1.3 -1.3 -0.7 -7.2 0.8 -8.8 0.9 -0.8 2.2 -3.1 3 -5.1 1.3 -3.1 2 -3.5 5 -3.5 3.5 0 3.5 0.1 3.5 4.3 -0.1 2.3 -1.1 6.2 -2.3 8.7 -1.9 3.9 -2.7 4.5 -5.7 4.8 -2 0.2 -3.9 0 -4.3 -0.4z"/>
  <path d="M197.3 97.3 c-0.7 -0.2 -1.3 -1.3 -1.3 -2.3 0 -1.1 -1.6 -3.5 -3.6 -5.4 -3 -2.9 -3.6 -4.3 -4.1 -9 l-0.6 -5.6 3.5 0 c3.9 0 8.8 3.7 8.8 6.7 0 1 1.2 3.6 2.5 5.8 1.4 2.2 2.5 5.5 2.5 7.3 0 3 -0.2 3.2 -3.2 3.1 -1.8 0 -3.9 -0.3 -4.5 -0.6z"/>
  <path d="M25 88.4 c0 -3.7 14.3 -23.5 22.9 -31.9 l4.1 -3.9 0 3 c0 1.7 -0.7 5.2 -1.6 7.7 -1.3 3.8 -2.6 5.4 -6.9 8.3 -3 1.9 -6.3 5.1 -7.4 7 -1.1 1.9 -2.7 3.7 -3.6 4 -0.9 0.4 -1.5 1.8 -1.5 3.5 0 2.6 -0.4 2.9 -3 2.9 -1.6 0 -3 -0.3 -3 -0.6z"/>
  <path d="M67.7 71.3 c-0.4 -0.3 -0.7 -2.1 -0.7 -4 0 -2.9 0.3 -3.3 2.5 -3.3 1.8 0 2.5 -0.5 2.5 -2 0 -1.5 0.7 -2 2.5 -2 1.6 0 2.5 -0.6 2.5 -1.5 0 -1 1 -1.5 3 -1.5 2.3 0 3 -0.4 3 -2 0 -2.1 2.7 -4 5.9 -4 1.2 0 2.1 -0.5 2.1 -1.1 0 -0.6 1.9 -0.9 4.8 -0.7 l4.7 0.3 0 4.5 c0 4.2 -0.2 4.5 -2.9 4.8 -1.6 0.2 -3.8 1.2 -4.9 2.3 -1.1 1 -3 1.9 -4.1 1.9 -1.2 0 -2.7 0.9 -3.4 2 -0.7 1.1 -1.9 2 -2.7 2 -0.8 0 -1.5 0.5 -1.5 1 0 0.6 -1.1 1 -2.5 1 -1.6 0 -2.5 0.6 -2.5 1.5 0 1.1 -1.1 1.5 -3.8 1.5 -2.1 0 -4.2 -0.3 -4.5 -0.7z"/>
  <path d="M157.2 61.4 c-1.3 -0.9 -2.2 -2.6 -2.2 -4.1 0 -3 3.7 -11.3 5 -11.3 0.5 0 1.2 -3.6 1.6 -8 0.6 -7.6 1.7 -9.9 3.1 -6.5 0.3 0.9 3.5 2.9 7.1 4.6 6.6 3 15.1 7.9 18.5 10.8 2.5 2.1 0.5 3.1 -6.6 3.1 -5.6 0 -5.8 -0.1 -7.4 -3.5 -0.9 -1.9 -2 -3.5 -2.4 -3.5 -0.4 0 -1.4 -0.2 -2.2 -0.6 -0.9 -0.3 -1.9 0.6 -2.7 2.5 -0.7 1.7 -1.6 3.1 -2.1 3.1 -0.5 0 -0.9 1.4 -0.9 3 0 1.7 0.5 3 1 3 0.6 0 1 2 1 4.5 l0 4.5 -4.3 0 c-2.3 0 -5.3 -0.7 -6.5 -1.6z"/>
  <path d="M195.8 60.9 c-2 -1.1 -2.5 -8.3 -0.7 -9.5 1.4 -0.8 8.9 6.5 8.9 8.8 0 1.4 -0.8 1.8 -3.2 1.8 -1.8 0 -4.1 -0.5 -5 -1.1z"/>
  <path d="M102 50.1 c0 -5.9 1.3 -6.7 9.1 -5.6 4.7 0.7 4.9 0.8 4.9 3.8 0 3.9 -4.2 6.7 -10.1 6.7 l-3.9 0 0 -4.9z"/>
  <path d="M129.2 30.3 l0.3 -3.8 5.5 -0.3 c3 -0.2 6 -0.8 6.7 -1.4 1 -0.8 1.3 -0.3 1.3 2.1 0 2.4 -0.6 3.4 -2.4 4.1 -1.3 0.5 -2.7 1.4 -3.1 1.9 -0.3 0.6 -2.4 1.1 -4.6 1.1 l-4 0 0.3 -3.7z"/>
  <path d="M92 31.6 c0 -1.9 11.7 -4.6 22.8 -5.3 7.6 -0.5 8.2 -0.4 8.2 1.3 0 3.5 -7.1 5.4 -19.8 5.4 -9 0 -11.2 -0.3 -11.2 -1.4z"/>
 </g>
 <g fill="#c93427">
  <path d="M119.1 243.3 c-1.3 -1 -3.4 -2.8 -4.6 -4 -2 -2.1 -2.5 -2.1 -8.3 -1 -3.4 0.6 -6.3 1.7 -6.4 2.3 -0.4 1.6 -16.8 -3.5 -16.8 -5.2 0 -1.7 -3.8 -3.7 -5.6 -3 -1.8 0.7 -8.9 -2.8 -9.7 -4.7 -0.3 -0.8 -2 -1.7 -3.7 -2.1 -2.1 -0.4 -3.4 -1.3 -3.7 -2.7 -0.4 -1.5 -0.8 -1.7 -1.3 -0.8 -1.1 1.6 -23.7 -20.9 -24.5 -24.4 -0.4 -1.4 -1.3 -2.8 -2.1 -3.1 -0.9 -0.3 -1.4 -2 -1.4 -4.6 0 -5.3 -1.5 -8.3 -3.9 -7.5 -1.5 0.5 -2.4 -0.8 -5 -7.2 -1.7 -4.3 -4 -12 -5.1 -17.1 -2.8 -12.6 -3.2 -37.5 -0.8 -39.3 0.5 -0.3 1 -3.4 1.2 -7 0.4 -7.1 5.5 -21.8 8.7 -25 1.1 -1.1 1.9 -2.7 1.9 -3.7 0 -1.1 0.9 -2.7 2.1 -3.8 1.2 -1 2.7 -3.1 3.5 -4.5 0.7 -1.5 3.8 -4.3 6.8 -6.3 4.5 -3 5.7 -4.4 7.1 -8.5 1.7 -5.3 4.6 -8.1 16 -15.8 7.1 -4.7 13.4 -8 23 -11.8 5.9 -2.3 8.3 -2.7 16.1 -2.6 7.2 0 10.2 -0.4 13.6 -1.9 2.4 -1.1 5.8 -2 7.6 -2 3 0 3.2 0.2 3.2 3.3 0 2.2 -1 4.4 -3 6.7 -1.6 2 -2.9 4.7 -3 6.3 0 2 -0.5 2.7 -2 2.7 -1.4 0 -2 0.7 -2 2.1 0 3.2 -3.8 7.9 -6.4 7.9 -1.3 0 -4 0.7 -6.1 1.5 -4.8 2.1 -13.9 1.5 -14.3 -0.9 -0.5 -2.3 -4.2 -0.2 -4.2 2.4 0 2 -0.9 2.4 -4.1 2.1 -1.1 -0.1 -1.9 0.9 -2.4 3.1 -0.5 2.2 -0.9 2.7 -1.2 1.6 -0.2 -1 -1.2 -1.8 -2.1 -1.7 -1.1 0 -1.2 0.2 -0.4 0.6 1.7 0.7 1.5 2.3 -0.3 2.3 -0.8 0 -1.5 0.9 -1.5 2 0 1.1 -0.4 2 -0.9 2 -0.5 0 -1.1 1.2 -1.3 2.8 -0.3 2.3 -0.8 2.8 -3.7 3 -1.9 0.2 -4 1 -4.5 1.7 -0.6 0.7 -2 1.5 -3.1 1.7 -1.9 0.3 -2.9 3.6 -4.4 14.1 -0.1 0.4 -1 0.7 -2.2 0.7 -1.5 0 -1.9 -0.5 -1.5 -1.5 0.4 -1.1 -0.1 -1.5 -1.9 -1.5 -2.9 0 -6.2 3 -6.9 6.2 -2.4 11.4 -2.6 12.9 -1.3 14.2 1 1.1 1.4 0.9 2.5 -1.3 1 -2.2 1.2 -1.4 0.7 6.3 -0.2 4.9 -0.8 9.2 -1.3 9.5 -1.5 1 0.4 21.9 2.7 29.6 1.1 3.9 2.1 8 2.1 9.3 0 1.3 0.6 2.2 1.6 2.2 1.2 0 1.5 0.9 1.3 3.8 -0.3 4.4 2.8 9.3 6.4 10.2 1.6 0.4 2.3 1.5 2.5 3.8 0.3 2.6 0.8 3.2 2.8 3.2 2 0 2.4 0.5 2.4 2.8 0 2.1 1.2 3.6 5.3 6.8 2.8 2.2 6 4.3 7 4.7 0.9 0.3 1.7 1.1 1.7 1.6 0 0.5 1.7 1.2 3.7 1.6 2 0.4 4.2 1.3 4.8 2 1.2 1.6 8.6 4.5 13.3 5.2 1.9 0.3 3.6 1.1 3.8 1.8 0.7 1.7 4.4 0.7 4.4 -1.1 0 -0.9 1.1 -1.4 3 -1.4 2 0 3 -0.5 3 -1.5 0 -1.1 -1.1 -1.5 -3.8 -1.5 -3.6 0 -4 -0.3 -4.9 -3.7 -3.5 -12.2 -4.2 -18.8 -2 -19.6 0.6 -0.3 0.2 -0.6 -1 -0.6 -3.2 -0.1 -3.1 -5.2 0.2 -9.5 1.4 -1.8 2.5 -4 2.5 -4.9 0 -2.8 3.9 -2 6.7 1.4 2.2 2.6 2.8 2.8 3.5 1.5 1.2 -2.2 2.8 -2 2.8 0.4 0 1.1 0.5 2 1.1 2 0.7 0 2.4 1.2 3.8 2.8 2.5 2.5 6.1 3.2 6.1 1.1 0 -0.5 1.5 -0.9 3.3 -0.9 2.6 0 3.7 0.6 4.8 2.6 0.7 1.4 2.3 3 3.5 3.5 1.8 0.6 2.4 1.9 2.9 6.3 0.4 3 0.4 5.9 0.1 6.4 -0.3 0.6 -1.2 4.1 -2 7.9 -0.7 3.7 -1.6 7.6 -2 8.5 -1.3 3 18.4 -3.3 27.9 -9 6.5 -3.9 7.5 -4.8 7.5 -6.8 0 -2.2 2.9 -5.2 7.3 -7.4 1.8 -0.9 3 -2.5 3.4 -4.2 0.4 -1.9 1.2 -2.8 2.4 -2.8 1.1 0 1.9 -0.3 1.9 -0.8 0 -0.4 1.8 -2.5 4 -4.7 2.1 -2.2 3.9 -4.8 4 -5.8 0 -1 0.3 -1.6 0.8 -1.3 0.4 0.2 0.6 -1.4 0.4 -3.6 -0.5 -4.8 1.6 -12.8 3.3 -12.8 1.3 0 2.5 -10.4 2.5 -22.1 0 -9.3 -2.1 -20.9 -3.7 -20.9 -0.7 0 -1.3 -1.1 -1.3 -2.4 0 -1.3 -0.3 -2.6 -0.8 -2.8 -1.3 -0.6 -5.2 -9.8 -5.2 -12.3 0 -1.8 -0.5 -2.5 -2 -2.5 -1.1 0 -2 -0.6 -2 -1.4 0 -0.8 -0.7 -1.6 -1.5 -2 -0.9 -0.3 -1.5 -1.9 -1.5 -4.1 0 -1.9 -0.4 -3.5 -1 -3.5 -0.5 0 -1 -1.1 -1 -2.3 0 -2.6 -5 -7.7 -7.5 -7.7 -0.8 0 -1.5 -0.8 -1.5 -1.9 0 -1 -0.7 -2.4 -1.5 -3.1 -1 -0.9 -1.5 -0.9 -1.5 -0.1 0 0.6 -1.6 1.1 -3.5 1.1 -3.1 0 -3.5 -0.3 -3.5 -2.5 0 -2.1 -0.5 -2.5 -3 -2.5 -1.6 0 -3 -0.4 -3 -0.9 0 -0.5 -0.9 -1.3 -2 -1.6 -1.1 -0.3 -2 -1.1 -2 -1.6 0 -0.6 1 -0.3 2.2 0.5 2.8 2 4.8 2 4.8 0.1 0 -0.8 -0.3 -1.5 -0.7 -1.5 -0.5 0 -1.4 -0.4 -2.2 -0.9 -1 -0.7 -1.1 -1.3 -0.1 -3 0.6 -1.2 0.9 -2.7 0.7 -3.4 -0.2 -0.7 -1.2 0.6 -2.2 2.8 -1.4 3 -1.9 3.5 -2.2 2.2 -0.3 -1 0 -3.1 0.5 -4.5 0.6 -1.5 1.3 -4.8 1.7 -7.4 0.4 -3.1 1.1 -4.8 2 -4.8 0.7 0 1.6 -0.6 1.9 -1.2 0.4 -0.7 0.4 1 0.1 3.7 l-0.4 5 1.8 -3.5 c1 -1.9 1.7 -4 1.4 -4.7 -0.6 -1.4 3.3 -1.8 6.3 -0.6 1.6 0.6 1.6 0.7 -0.2 1.3 -1.6 0.6 -1.4 0.8 1.2 1.4 2.2 0.5 3.5 1.7 4.8 4.3 1.6 3.4 1.9 3.5 5.9 3 3.6 -0.5 4.7 -0.1 8.9 3 4 2.9 4.6 3.8 3.7 5 -0.9 1 -0.9 1.7 -0.1 2.5 0.9 0.9 1.2 0.8 1.2 -0.5 0 -2.8 1.2 -2 7.6 4.5 9.1 9.5 18.4 22.6 18.4 26.2 0 0.7 1.4 4 3 7.2 4.1 8 7.3 20.8 5.4 21.2 -2.2 0.5 -1.9 7.2 0.4 7.3 1 0 1.2 0.3 0.5 0.6 -1.8 0.7 -1.6 3.3 0.2 3.3 1.2 0 1.5 1.5 1.5 7.5 0 6.4 -0.2 7.5 -1.7 7.6 -1.1 0 -1.3 0.3 -0.5 0.6 1.8 0.7 1.5 2.3 -0.5 2.3 -1.7 0.1 -1.6 0.2 0.1 1.5 2.1 1.6 1.9 6.4 -1 16.7 -1.4 4.7 -2.1 5.8 -3.8 5.8 -2.9 0 -5.2 6.6 -2.8 7.9 1.4 0.8 1.4 1.3 -0.2 5 -1.2 2.5 -2.9 4.4 -4.5 5 -1.7 0.6 -2 1 -0.8 1 0.9 0.1 1.7 0.4 1.7 0.7 0 1 -6.3 9.9 -7.7 10.7 -0.7 0.4 -1.3 1.4 -1.3 2.2 0 2.2 -16.1 17.7 -24 23.1 -5.4 3.7 -7.3 4.5 -8.2 3.6 -1.8 -1.8 -3.6 -1.5 -8.3 1.8 -2.4 1.6 -5.5 3.4 -6.9 4 -1.6 0.6 -2.4 1.5 -2 2.3 1.2 3.2 -8.8 2.7 -20.4 -1 -2.3 -0.7 -5.2 -1.3 -6.3 -1.3 -1.1 0 -2.2 -0.6 -2.5 -1.4 -0.4 -1 -2.8 -1.7 -7 -2.2 -7.1 -0.7 -8.8 -0.1 -5.8 2.1 1.4 1 3.4 1.2 7.2 0.8 l5.2 -0.6 0 3.7 c0 3.4 -0.2 3.6 -4 4.2 -3 0.5 -4 1.1 -4 2.5 0 2.5 -3.8 2.5 -6.9 0.2z m8.7 -7 c-1.6 -0.2 -4 -0.2 -5.5 0 -1.6 0.2 -0.3 0.4 2.7 0.4 3 0 4.3 -0.2 2.8 -0.4z m2.2 -8.9 c-3.5 -0.7 -14.8 -0.9 -14.4 -0.2 0.3 0.4 4 0.7 8.2 0.7 4.2 -0.1 7 -0.3 6.2 -0.5z m1.3 -2.1 c-2.3 -0.2 -6.4 -0.2 -9 0 -2.6 0.2 -0.7 0.3 4.2 0.3 5 0 7.1 -0.1 4.8 -0.3z m-5.2 -10.1 c-6.3 -0.1 -11.8 0.1 -12.2 0.5 -0.5 0.4 4.7 0.6 11.4 0.3 l12.2 -0.5 -11.4 -0.3z m-37.7 -3.7 c-1 -0.8 -2.6 -1.4 -3.4 -1.4 -0.9 0 -0.4 0.6 1 1.4 3.3 1.9 4.9 1.9 2.4 0z m40.6 -1.6 c0 -2.4 -0.3 -3 -1.6 -2.5 -0.9 0.3 -2.2 0.6 -3 0.6 -0.8 0 -1.4 1 -1.4 2.5 0 2.1 0.5 2.5 3 2.5 2.7 0 3 -0.3 3 -3.1z m-18.5 -10.8 c-0.9 -2.8 -2.1 -5.1 -2.7 -5.1 -0.7 0 -0.7 0.4 0 1.3 0.5 0.6 1.6 3.1 2.3 5.5 0.7 2.3 1.4 4 1.7 3.8 0.2 -0.3 -0.4 -2.7 -1.3 -5.5z m31.5 0.3 c0 -0.8 -0.6 -1.4 -1.4 -1.4 -0.9 0 -1.2 0.7 -0.9 2 0.6 2.2 2.3 1.8 2.3 -0.6z m-11.5 -15.5 c1.1 -1.7 0.2 -1.8 -1.9 -0.3 -1.7 1.2 -1.7 1.4 -0.4 1.4 0.9 0 2 -0.5 2.3 -1.1z m75.5 -19.9 c0 -1.3 -0.1 -1.3 -1 0 -0.5 0.8 -1 2.2 -1 3 0 1.3 0.1 1.3 1 0 0.5 -0.8 1 -2.2 1 -3z m2.5 -6.1 c1 -3 0 -3.3 -1.3 -0.4 -0.6 1.4 -0.7 2.5 -0.2 2.5 0.5 0 1.2 -0.9 1.5 -2.1z m-9.9 -69.1 c-0.7 -1.3 -1.6 -3.5 -2 -4.9 -0.3 -1.5 -1.7 -3.4 -3.1 -4.3 -2.6 -1.7 -2.6 -1.7 -1.9 1.1 0.4 1.5 2.3 4.5 4.3 6.5 4.2 4.4 4.7 4.6 2.7 1.6z m-101 -35.7 c-0.7 -1.1 -3.6 -1.6 -3.6 -0.6 0 0.3 0.6 1.2 1.3 2 1.3 1.5 3.3 0.3 2.3 -1.4z m11.8 -2.6 c2.1 -1.6 2 -2.2 -0.4 -2.5 -3 -0.5 -4 0 -4 2 0 2.3 1.7 2.5 4.4 0.5z"/>
  <path d="M126 174.2 c0 -1.3 1.3 -2.3 4.1 -3.2 5.1 -1.7 5.4 -2.3 3.5 -6.2 -2 -3.9 -2 -4.2 0 -3.4 1.5 0.6 1.5 0.4 0.3 -1 -1.3 -1.6 -1.1 -1.7 1.6 -1 1.7 0.4 3.6 1.4 4.3 2.3 1.4 1.9 1.7 8.3 0.3 8.3 -0.5 0 -1.1 0.9 -1.4 2 -0.3 1.2 -1.4 2 -2.5 2 -1.2 0 -2.4 0.5 -2.7 1 -0.3 0.6 -2.2 1 -4.1 1 -2.6 0 -3.4 -0.4 -3.4 -1.8z"/>
  <path d="M114 161.6 c0 -1.9 0.4 -3.6 0.9 -3.8 0.4 -0.1 1.2 -1.4 1.6 -2.7 0.7 -2.3 0.6 -2.4 -3.1 -1.8 -2.2 0.4 -5.1 0.7 -6.6 0.7 -1.8 0 -2.8 0.5 -2.8 1.5 0 1 -1.1 1.5 -3.5 1.5 -3.3 0 -3.5 -0.2 -3.5 -3.5 0 -2.8 0.4 -3.5 2 -3.5 1.7 0 2 -0.6 1.9 -4.7 -0.1 -2.7 -0.3 -4 -0.6 -3 -0.2 0.9 -1.3 1.7 -2.4 1.7 -1.4 0 -1.9 -0.7 -1.9 -3 0 -2 -0.5 -3 -1.5 -3 -1 0 -1.5 1 -1.5 3 0 2.5 -0.4 3 -2.5 3 -2 0 -2.7 -0.6 -3.1 -3 -0.4 -1.6 -1 -3 -1.5 -3 -1.2 0 -1.1 -7.6 0.2 -12.5 1.3 -5.1 5.1 -14.8 5.9 -15.5 0.4 -0.3 1.3 -2.9 2 -5.7 0.8 -2.9 1.7 -5.3 2.2 -5.3 0.4 0 0.8 -1.6 0.8 -3.5 0 -3.3 0.2 -3.5 3.5 -3.5 2.5 0 4.4 0.8 6.7 3 1.7 1.7 3.4 3 3.7 3 1.6 -0.1 5.1 -4 5.1 -5.7 0 -2.3 1.1 -3.8 3.1 -4.5 1.6 -0.6 2.6 -6.3 4.4 -27 l0.7 -6.8 4.2 0 c3.9 0 4.4 0.3 5.9 3.5 0.9 2 1.7 4.1 1.7 4.8 0.1 1.6 3.5 5.7 4.8 5.7 1.4 0 5.2 5.4 5.2 7.3 0 0.9 0.6 1.8 1.3 2 0.9 0.4 0.8 0.8 -0.3 1.6 -1.3 1 -1.3 1.2 0 2.1 1.2 0.8 1.1 1 -0.7 1 -1.4 0 -2.3 0.6 -2.3 1.5 0 0.8 -1.1 2.2 -2.4 3 -2.9 1.9 -5.2 9.5 -3.3 10.7 0.8 0.5 0.5 0.8 -0.8 0.8 -1.5 0 -1.7 0.2 -0.6 0.9 1.8 1.1 6.7 -5.2 10 -12.7 2 -4.7 2.5 -7 3 -11.9 0 -0.7 0.8 -1.3 1.7 -1.3 1.5 0 1.6 0.8 1.1 5.9 -0.9 8 -3.4 14.1 -5.8 14.1 -1.4 0 -1.9 0.7 -1.9 3 0 1.7 -0.3 3 -0.7 3 -0.5 0 -1.6 2 -2.6 4.5 -1.8 4.3 -1.8 4.5 -0.1 7.5 1 1.6 2.4 3 3.1 3 2.2 0 5.3 3.9 5.3 6.5 0 2.1 0.5 2.5 3 2.5 2.8 0 3 0.3 3 3.5 0 1.9 -0.4 3.5 -1 3.5 -0.5 0 -1 0.9 -1 2 0 1.1 -0.4 2 -1 2 -0.5 0 -1 1.8 -1 4 0 3.4 -0.4 4.1 -2.5 4.6 -1.4 0.3 -4.1 0.3 -5.9 0 -2 -0.4 -3.7 -0.2 -4.1 0.4 -0.3 0.5 -1.7 1 -3 1 -1.8 0 -2.9 -0.9 -4.1 -3.5 -0.9 -1.9 -2 -3.5 -2.5 -3.5 -0.5 0 -0.2 1.4 0.6 3.1 2.1 3.9 1 5.2 -1.7 1.9 -1.8 -2.3 -2.1 -2.3 -3.3 -0.7 -0.7 0.9 -1.7 1.7 -2.4 1.7 -0.6 0 -1.1 1.1 -1.1 2.4 0 1.4 -0.7 3.2 -1.6 4 -1.4 1.5 -1.3 1.6 1.2 1.6 2.2 0 2.5 0.3 1.6 1.2 -0.7 0.7 -1.2 1.9 -1.2 2.8 0 0.9 -0.9 2.5 -2 3.5 -1.1 1 -2 2.2 -2 2.7 0 1 -2.5 3.8 -3.4 3.8 -0.3 0 -0.6 -1.5 -0.6 -3.4z m-11.4 -26.8 c-1.9 -2.7 -1.9 -2.4 -0.4 4.4 l1.3 5.3 0.3 -3.7 c0.2 -2.3 -0.3 -4.7 -1.2 -6z m46.7 -0.5 c0.3 -1.6 0.9 -3.6 1.2 -4.5 0.5 -1.3 0.2 -1.8 -1 -1.8 -0.9 0 -1.3 0.5 -1 1 0.3 0.6 0 1 -0.7 1.1 -1 0 -1 0.2 0 0.6 1.7 0.7 1.5 2.3 -0.3 2.3 -0.8 0 -1.5 0.9 -1.5 2 0 3 2.7 2.4 3.3 -0.7z m-49.4 -33.7 l-0.1 -6.1 -0.8 5 c-0.4 2.8 -1.1 6.2 -1.5 7.5 -0.7 2.2 -0.6 2.3 0.9 1.1 1.2 -1 1.6 -2.9 1.5 -7.5z m36.5 6.9 c0.7 -2 -0.3 -4.5 -1.9 -4.5 -0.7 0 -1.5 0.7 -1.9 1.5 -0.7 2 0.3 4.5 1.9 4.5 0.7 0 1.5 -0.7 1.9 -1.5z m-26.4 -7.5 c0 -0.5 -0.7 -1 -1.5 -1 -0.8 0 -1.5 0.5 -1.5 1 0 0.6 0.7 1 1.5 1 0.8 0 1.5 -0.4 1.5 -1z m12.5 -7.6 c2.1 -5.4 1.3 -7.2 -0.9 -2 -0.8 2 -2.2 4.4 -3.1 5.2 -1.8 1.9 -1 4 1 2.4 0.7 -0.6 2 -3.1 3 -5.6z"/>
 </g>
 <g fill="#c23836">
  <path d="M120.3 244.4 c-2 -0.9 -1.5 -2.2 1 -2.7 2.2 -0.4 2.2 -0.4 -0.2 -0.6 -3.6 -0.2 -0.7 -3.1 3.3 -3.2 3.6 -0.1 8.4 -1.7 5.4 -1.8 -2 -0.1 -2.5 -2.7 -0.6 -3.3 2.1 -0.7 -0.3 -2.8 -3.3 -2.8 -1.6 0 -2.9 -0.4 -2.9 -1 0 -0.5 2.1 -1 4.8 -1.1 3.5 0 4.2 -0.3 2.7 -0.9 -1.6 -0.7 -1.3 -0.9 1.6 -0.9 2.9 -0.1 3.8 0.4 4.8 2.5 0.6 1.5 1.4 2.4 1.8 2.1 0.3 -0.4 1.8 0.2 3.2 1.2 1.4 1.1 4.3 1.9 6.3 1.9 2 0 5.6 0.4 8 0.8 2.4 0.4 4.9 0.8 5.7 0.8 0.8 0.1 1.6 0.6 1.8 1.2 0.4 1.1 -9.5 4.4 -18.7 6.3 -5.7 1.1 -23.1 2.2 -24.7 1.5z"/>
  <path d="M92.6 239.7 c-7.8 -2.5 -9.7 -4.5 -3.9 -4.1 5.8 0.3 11.3 2.6 11.3 4.6 0 1 -0.1 1.8 -0.2 1.7 -0.2 0 -3.4 -1 -7.2 -2.2z"/>
  <path d="M68.1 228.2 c-0.6 -1.1 -2.4 -2.2 -4.2 -2.6 -1.9 -0.4 -3.3 -1.3 -3.6 -2.6 -0.3 -1.1 -0.9 -1.7 -1.5 -1.4 -1.4 0.9 -9.7 -6.4 -9.5 -8.5 0.1 -1.2 0.6 -1.7 1.5 -1.4 0.9 0.4 1 0.8 0.3 1.3 -0.6 0.3 0.9 1.7 3.6 3 2.7 1.3 6.1 3.3 7.6 4.4 3.3 2.4 8.1 8.5 7.4 9.3 -0.3 0.2 -1 -0.4 -1.6 -1.5z"/>
  <path d="M110.4 224.9 c-1 -1.2 -1.8 -2.4 -1.8 -2.8 0.1 -0.3 -0.1 -1.2 -0.4 -2 -0.3 -0.8 0 -1.7 0.6 -1.9 0.7 -0.2 1.2 -1.2 1.2 -2.3 0 -1.6 0.7 -1.9 3.8 -1.8 2.4 0.1 2.9 0.3 1.4 0.6 -1.8 0.4 -2.1 0.9 -1.6 2.5 0.5 1.7 0.3 1.9 -1.4 1.4 -1.1 -0.4 -2.3 -0.2 -2.7 0.4 -0.3 0.6 0.3 1 1.4 1 1.2 0 2.1 0.5 2.1 1 0 0.6 0.9 0.5 2.1 -0.2 1.7 -1 2.3 -1 2.6 0 0.3 0.6 1.1 1.2 1.9 1.2 2.1 0 1.7 2.7 -0.5 3.3 -1.1 0.2 -2.4 0 -3.1 -0.7 -0.8 -0.8 -1.5 -0.7 -2.4 0.6 -1.2 1.7 -1.4 1.7 -3.2 -0.3z"/>
  <path d="M185.5 225 c-0.7 -1.2 4.2 -3.7 5.2 -2.7 0.4 0.4 -0.2 1.4 -1.3 2.2 -2.3 1.7 -3.1 1.8 -3.9 0.5z"/>
  <path d="M123 224 c0 -0.5 2 -1 4.5 -1 3.3 0 4.5 -0.4 4.5 -1.5 0 -0.8 0.7 -1.5 1.6 -1.5 1.6 0 4.3 -2.6 4.4 -4.2 0 -0.4 -1 -0.9 -2.2 -1.1 -1.4 -0.3 -0.9 -0.5 1.5 -0.6 3.3 -0.1 3.7 0.2 3.7 2.4 0 1.9 -0.5 2.5 -2.2 2.5 -1.5 0 -1.9 0.3 -1 0.8 0.9 0.6 0.7 1.4 -0.8 3 -1.7 1.8 -3.2 2.2 -8 2.2 -3.3 0 -6 -0.4 -6 -1z"/>
  <path d="M142 216.3 c0 -1.3 1.7 -2.3 6.3 -3.7 7.5 -2.3 18.4 -7.6 21.4 -10.5 1.2 -1.2 2.5 -2.1 2.8 -2.1 1 0 6.9 -4.4 7.8 -5.7 0.4 -0.7 3.2 -4 6.1 -7.4 3 -3.4 6.6 -8.5 8 -11.5 1.4 -2.9 3 -5.5 3.5 -5.9 0.5 -0.3 1.2 -1.9 1.6 -3.5 0.4 -1.7 1 -3 1.5 -3 0.4 0 1 -1 1.3 -2.2 2.3 -9.4 3.7 -16.6 3.7 -18.5 0 -1.7 0.6 -2.3 2.1 -2.3 2 0 2.1 0.4 1.7 5 -0.3 2.7 -0.1 4.7 0.3 4.4 1.6 -0.9 -0.2 4.8 -2.2 6.9 -1.1 1.2 -1.7 2.7 -1.5 3.4 0.3 0.7 0 1.3 -0.6 1.3 -0.6 0 -0.8 0.3 -0.5 0.7 0.4 0.3 0.2 1.2 -0.4 2 -0.6 0.7 -0.9 2.3 -0.5 3.5 0.9 3.7 -1.5 10 -5.6 14.3 -2.1 2.2 -3.8 4.3 -3.8 4.7 0 1.3 -9.1 9.9 -9.9 9.4 -0.4 -0.3 -1.9 0.6 -3.2 2.1 -1.3 1.4 -1.8 2.3 -1.1 1.9 2.8 -1.6 1 2.4 -2 4.6 -8 5.7 -15 9 -25 11.7 -9.5 2.6 -11.8 2.7 -11.8 0.4z"/>
  <path d="M112 211.5 c0 -0.8 -0.9 -1.5 -2 -1.5 -1.6 0 -2 -0.7 -2 -3.5 0 -2.4 0.5 -3.5 1.5 -3.5 0.8 0 1.5 0.7 1.5 1.5 0 0.8 0.5 1.5 1 1.5 0.6 0 1 -0.5 1 -1.1 0 -0.8 0.4 -0.8 1.4 0 0.7 0.6 2.6 1 4.2 0.9 1.6 -0.1 5.9 -0.1 9.7 0 5 0.2 6.7 0.6 6.7 1.6 0 0.8 -0.8 1.7 -1.7 1.9 -1.7 0.4 -1.7 0.5 0 0.6 0.9 0 1.7 0.8 1.7 1.6 0 1.2 -1.9 1.5 -11.5 1.5 -9.6 0 -11.5 -0.3 -11.5 -1.5z"/>
  <path d="M81.5 208.8 c-2.2 -0.6 -4.4 -1.7 -4.8 -2.4 -0.4 -0.8 -1.3 -1.4 -1.9 -1.4 -2.8 0 -15.7 -12 -18.3 -17.1 -1.6 -3 -1.6 -3.1 0 -2.6 0.9 0.4 1.4 0.3 1 -0.3 -0.3 -0.6 -1.5 -1 -2.5 -1 -1.1 0 -2.4 -0.9 -3 -2 -1 -1.8 -0.8 -2 2.5 -2 2.7 0 4.2 0.7 6.5 3.3 1.6 1.7 3 3.8 3 4.5 0 0.6 0.4 1.2 0.9 1.2 0.5 0 3.1 2.2 5.9 4.8 2.7 2.6 7.2 6.3 10.1 8.2 3.5 2.5 5.1 4.2 5.1 5.8 0 1.2 -0.1 2.2 -0.2 2.1 -0.2 -0.1 -2.1 -0.6 -4.3 -1.1z"/>
  <path d="M139 204 c-0.8 -0.5 -1.1 -1.2 -0.7 -1.7 0.5 -0.4 1.2 -0.1 1.6 0.6 0.6 1 1.1 0.4 1.6 -1.9 0.6 -2.5 0.3 -3.5 -0.9 -4.2 -0.9 -0.5 -1.6 -1.6 -1.6 -2.3 0 -0.8 -0.4 -1.5 -0.9 -1.5 -0.4 0 -0.6 -1.1 -0.3 -2.5 0.2 -1.5 -0.4 -3.8 -1.7 -5.7 -1.1 -1.8 -2.1 -2.8 -2.1 -2.2 0 0.7 -0.9 1.4 -1.9 1.7 -1.4 0.3 -1.8 0.1 -1.4 -1 0.5 -1.3 0.3 -1.3 -1.6 -0.2 -1.1 0.8 -2.1 1.9 -2.1 2.6 0 0.7 -0.7 1 -1.5 0.7 -0.8 -0.4 -1.5 -1.2 -1.5 -1.8 0 -1.4 -4.5 -5.6 -6 -5.6 -1.6 0 -1.2 -5.6 0.5 -7 1.8 -1.5 7.5 -0.3 7.5 1.6 0 0.8 -0.5 2.3 -1.2 3.4 -0.7 1 -0.9 2.2 -0.5 2.6 1.2 1.3 3.7 -1.8 3.7 -4.7 0 -1.6 0.3 -2.8 0.8 -2.7 0.4 0 1.5 -0.2 2.5 -0.5 0.9 -0.4 2.4 -0.9 3.2 -1.2 1.2 -0.3 1.3 -1 0.5 -3 -1.3 -3.5 -1.3 -3.8 0.6 -3.1 0.8 0.3 1.2 0.2 0.9 -0.4 -0.3 -0.6 -1.2 -1 -2 -1 -0.8 0 -1.7 -0.5 -2.1 -1.2 -0.5 -0.8 -0.1 -0.9 1.2 -0.4 1.5 0.6 1.7 0.5 0.7 -0.5 -1.7 -1.7 -1.6 -2.9 0.2 -2.9 1.4 0 0.4 -3.2 -3.6 -11.2 -0.5 -1 -0.9 -3 -0.9 -4.5 0 -2.7 0.1 -2.7 2.5 1.2 1.3 2.2 2.5 3.3 2.5 2.4 0 -0.8 -0.5 -2 -1.1 -2.6 -1.2 -1.2 -0.3 -3.7 1.1 -2.8 0.5 0.3 1.2 0 1.5 -0.6 0.5 -0.7 1.1 -0.4 1.9 0.9 6.9 11.8 8 13.3 9.5 13 2.2 -0.4 2.7 -4.6 0.7 -5.4 -1.1 -0.4 -1.6 -1.9 -1.6 -5 0 -4 0.2 -4.4 2.4 -4.4 2.5 0 5.6 -3.2 5.6 -5.7 0 -0.7 -1.1 -1.3 -2.4 -1.3 -1.9 0 -2.3 -0.4 -1.9 -1.9 0.3 -1.3 -0.2 -2.4 -1.6 -3.3 -1.3 -0.8 -2.1 -2.3 -2.1 -4 0 -1.8 -0.7 -2.9 -2 -3.3 -1.1 -0.4 -1.8 -1.1 -1.5 -1.6 0.4 -0.5 -0.9 -0.9 -2.7 -1 -1.8 0 -2.7 -0.3 -2 -0.6 1 -0.4 1 -0.8 0.1 -1.9 -0.9 -1.1 -0.6 -1.4 1.8 -1.4 4.4 0 10.2 -7 8.2 -10.1 -0.5 -0.7 -0.9 -3.3 -0.9 -5.6 0 -4.2 0.1 -4.3 3.3 -4.3 3.8 0 6.2 2.2 9.6 8.9 1.9 3.8 2.2 5.4 1.6 10.5 -0.4 3.4 -1.5 8 -2.5 10.4 l-1.9 4.2 2.4 0 c3.1 0 4.5 4.2 4.5 13.3 0 8.9 -1.5 13.7 -5.8 18.7 -4.1 4.9 -7.9 7 -12.7 7 -4 0 -4.2 0.3 -1.6 3.8 3.6 5.2 6.1 11.2 6.1 14.7 0 1.9 -0.4 3.5 -1 3.5 -0.5 0 -1 0.6 -1 1.3 0 0.6 -1 4.5 -2.1 8.5 -1.8 6 -2.5 7.2 -4.3 7.2 -1.2 0 -2.8 -0.4 -3.6 -1z m19.7 -95.7 c-0.3 -1 -0.5 -0.2 -0.5 1.7 0 1.9 0.2 2.7 0.5 1.8 0.2 -1 0.2 -2.6 0 -3.5z"/>
  <path d="M209.3 204.3 c-1.8 -0.7 -1.6 -3.7 0.5 -6.1 1.8 -2.2 7.2 -4.1 7.2 -2.5 0 0.8 -5.9 9.4 -6.3 9.2 -0.1 0 -0.8 -0.3 -1.4 -0.6z"/>
  <path d="M137.7 200.3 c-1.2 -1.2 -0.7 -2.2 0.8 -1.7 0.8 0.4 1.5 1 1.5 1.5 0 1.1 -1.4 1.2 -2.3 0.2z"/>
  <path d="M105 198.8 c-0.1 -0.7 -0.9 -3.1 -2 -5.3 -1.9 -4 -2.8 -15.5 -1.2 -15.5 0.8 0 4.2 -5.2 4.2 -6.4 0 -0.3 -1.5 -0.6 -3.4 -0.6 -2.7 0 -4.2 -0.9 -7.5 -4.5 -2.3 -2.4 -5.3 -7.1 -6.7 -10.2 -2.3 -5 -2.7 -7.2 -2.8 -16.3 -0.1 -9.4 0.1 -10.5 1.7 -10.8 1.5 -0.3 1.8 0 1.2 1.8 -0.5 1.5 -0.4 2 0.4 1.6 0.7 -0.5 1.1 0.5 1.1 2.8 0 1.9 0.7 4.1 1.5 5 0.8 0.8 1.5 2.2 1.5 3 0 3.1 2.8 1.6 3.4 -1.9 1 -5.4 3.6 -4.6 3.6 1.1 0 3.7 0.4 4.7 2 5.1 1.1 0.3 2 1.2 2 1.9 0 2.4 4.5 1.5 7.1 -1.3 1.4 -1.6 3.8 -4.8 5.3 -7.1 2.1 -3.3 3.2 -4.3 4.7 -3.9 1.2 0.3 1.9 0 1.9 -0.9 0 -2.3 -2.9 -1.6 -5.5 1.4 -1.3 1.5 -2.5 2.2 -2.5 1.6 0 -1.9 7.1 -9.4 9 -9.4 2.1 0 3.4 1.5 4.8 5.8 1 3 0.9 3.2 -1.1 3.2 -1.6 0 -2.7 1.1 -3.9 3.8 -0.9 2 -3.3 6.5 -5.3 10 -3.4 5.9 -3.4 6.2 -1.4 6.2 1.8 0 1.9 0.2 0.9 1.5 -0.7 0.8 -0.9 1.5 -0.4 1.5 0.5 0 0.5 0.4 -0.1 0.8 -2.2 1.6 -5.5 7.3 -4.9 8.4 0.4 0.6 0 1.6 -0.9 2.3 -1 0.7 -2.8 2.8 -4 4.7 l-2.4 3.4 3.1 -0.4 c2.5 -0.4 2.9 -0.2 2 0.9 -0.6 0.8 -1 3.2 -1 5.4 0.1 2.2 -0.5 4.6 -1.2 5.4 -0.9 1 -1 1.7 -0.3 2.4 1.9 1.9 1.3 4.7 -0.9 4.7 -1.1 0 -2 -0.6 -2 -1.2z m6 -42.5 c0 -1.9 -2.7 -1.6 -3.4 0.4 -0.4 0.9 -0.1 2 0.6 2.4 1.3 0.8 2.8 -0.7 2.8 -2.8z"/>
  <path d="M217.3 193.3 c-1.9 -0.7 0.7 -5.3 3.1 -5.4 1.7 -0.1 1.8 -0.2 0.4 -0.6 -1.9 -0.5 -2.5 -4.3 -0.8 -4.3 0.5 0 1.8 -1.7 2.7 -3.7 1.1 -2.3 2.6 -3.9 3.8 -4 1.8 -0.2 1.8 -0.1 0.1 0.4 -1.5 0.4 -1.6 0.7 -0.5 1.3 2.4 1.5 -6.1 17.3 -8.8 16.3z"/>
  <path d="M22.1 175.3 c-3.3 -8.2 -7.5 -25.5 -6.8 -28.2 0.4 -1.8 0.6 -1 3.1 11.2 0.8 4.3 3.1 11.2 5.1 15.2 3.6 7.6 4.1 9.5 2.6 9.5 -0.5 0 -2.3 -3.5 -4 -7.7z"/>
  <path d="M228.7 169.2 c-1.4 -0.3 -1.7 -1 -1.3 -2.7 1.3 -5.2 2.6 -7.5 4.3 -7.5 1.5 0 1.6 -0.2 0.3 -1 -1.3 -0.8 -1.2 -1 0.3 -1 1.4 0 1.6 0.5 1.1 2.8 -2 7.9 -2.9 9.8 -4.7 9.4z"/>
  <path d="M44 166.1 c0 -0.5 0.6 -1.2 1.3 -1.4 0.7 -0.3 0.5 -0.6 -0.5 -0.6 -2.1 -0.1 -2.4 -1.7 -0.5 -2.4 0.6 -0.3 0.3 -0.6 -0.8 -0.6 -1.7 -0.1 -1.7 -0.3 -0.5 -1.1 0.8 -0.5 2.5 -1 3.8 -1 1.9 0 2.2 0.5 2.2 4 0 3.6 -0.2 4 -2.5 4 -1.4 0 -2.5 -0.4 -2.5 -0.9z"/>
  <path d="M14.5 139.5 c-0.4 -3 -0.3 -8.5 0.2 -12.3 0.9 -6.4 0.9 -6.1 0.9 5.6 0 6.7 -0.1 12.2 -0.2 12.2 -0.2 0 -0.6 -2.5 -0.9 -5.5z"/>
  <path d="M205.3 122.6 c-1.2 -7.4 -7.6 -25.3 -9.8 -27.1 -1.8 -1.6 -4.5 -6.3 -4.5 -8 0 -0.8 -0.5 -1.5 -1.1 -1.5 -1.9 0 -14.9 -14 -14.9 -16 0 -1.4 -0.7 -2 -2.4 -2 -3.5 0 -5.6 -1 -5.6 -2.6 0 -0.9 -1.1 -1.4 -3 -1.4 -2.4 0 -3 -0.4 -3 -2.2 0 -2 0.6 -2.3 4.9 -2.6 5.7 -0.3 10.1 1.1 10.1 3.3 0 1 1 1.5 3 1.5 1.7 0 3 0.4 3 0.8 0 0.5 1.8 2.7 4.1 4.9 2.2 2.2 4.2 5.1 4.5 6.4 1.3 7.9 1.8 9.2 3.5 9.6 2.4 0.7 5.4 5.3 5.1 7.8 -0.2 1.4 0 1.6 0.6 0.7 0.6 -0.9 1.8 0.6 4.2 5.5 3.3 6.8 4.4 11.1 5.6 23.6 0.6 6.2 0.5 6.7 -1.2 6.7 -1.6 0 -2.1 -1.2 -3.1 -7.4z"/>
  <path d="M17.4 110.4 c0.7 -7.8 8.2 -26.1 10 -24.3 0.3 0.3 -1.3 4.1 -3.5 8.5 -2.3 4.3 -4.7 10.8 -5.5 14.4 -1.3 6.3 -1.4 6.4 -1 1.4z"/>
  <path d="M110.6 101.5 c-0.4 -1.4 -1.2 -2.5 -1.9 -2.5 -2.1 0 -4 1.7 -3.3 2.9 1 1.5 -1.9 1.4 -3.1 -0.1 -1.4 -1.8 -1.3 -5.2 0.1 -3.8 0.5 0.5 1.5 1 2.1 1 1.2 -0.1 -3.3 -4 -4.6 -4 -0.5 0 -0.9 0.9 -0.9 2 0 3.2 -2.8 1.3 -4.9 -3.4 -1 -2.2 -2.8 -5 -4 -6 -1.3 -1.2 -2.1 -3.1 -2.1 -5.3 0 -3.2 0.2 -3.3 3.9 -3.3 5.8 0 10.2 1.9 14.8 6.3 4.3 4.1 7.3 10.6 7.3 15.9 0 3.5 -2.5 3.8 -3.4 0.3z"/>
  <path d="M228.3 102.8 c-5 -6.7 -9.5 -20.7 -6.2 -19.6 1.8 0.6 4.2 5.1 7.3 13.7 1.9 5.4 2.2 7.1 1.2 7.1 -0.7 0 -1.8 -0.6 -2.3 -1.2z"/>
  <path d="M116 94.7 c0 -2 0.5 -3.7 1 -3.7 0.6 0 1 -1.2 1 -2.7 0.1 -1.6 0.7 -3.9 1.5 -5.3 0.8 -1.4 1.4 -3.5 1.5 -4.7 0 -1.6 0.6 -2.3 2 -2.3 1.6 0 2 0.7 2 3.6 0 3.7 -2.4 9.8 -4.7 12.2 -0.7 0.8 -1.1 1.7 -0.9 2 0.2 0.4 -0.5 1.6 -1.5 2.6 -1.9 1.9 -1.9 1.9 -1.9 -1.7z"/>
  <path d="M53.2 90.3 c0.1 -1 -0.1 -2.3 -0.5 -3 -1 -1.7 0.3 -6.4 1.5 -5.7 0.6 0.4 0.8 0.1 0.6 -0.7 -0.8 -2 1 -4.9 2.9 -4.9 1 0 2.7 -1.2 3.8 -2.6 1.8 -2.3 2.5 -2.5 4.2 -1.6 2.6 1.4 3.4 0.6 2.7 -2.4 -0.7 -2.6 0.5 -3.1 2.4 -1.2 0.6 0.6 1.5 0.9 1.8 0.5 0.4 -0.4 -0.4 -1.5 -1.7 -2.5 -2.1 -1.8 -2.2 -2.1 -0.7 -3.6 2.2 -2.1 2.5 -2.1 5.3 1 1.8 1.9 2.5 2.3 2.5 1.1 0 -0.8 -0.5 -1.7 -1.2 -1.9 -0.8 -0.3 -0.4 -1.2 0.9 -2.5 4.1 -4.1 8.3 -5 8.3 -1.7 0 1.7 0.5 1.7 2.9 0.2 1 -0.6 1.6 -1.9 1.4 -2.8 -0.6 -2.2 3.2 -3.3 5 -1.6 0.7 0.7 1.8 1.1 2.5 0.8 1.8 -0.6 1.5 3.5 -0.4 4.2 -0.9 0.3 -3.1 0.6 -5 0.6 -2.7 0 -3.4 0.4 -3.4 2 0 1.3 -0.9 2.2 -2.6 2.6 -1.5 0.4 -3.5 1.5 -4.5 2.5 -1.1 1.1 -2.6 1.9 -3.4 1.9 -0.8 0 -1.5 0.5 -1.5 1 0 0.6 -1.3 1 -3 1 -2.6 0 -3 0.4 -3 2.8 0 2 -1.1 3.7 -4 6.2 -2.2 1.9 -4 3.8 -4 4.3 0 0.4 -1.2 2.4 -2.7 4.3 -3.1 3.7 -7.7 4.8 -7.1 1.7z m29.8 -29.4 c0 -0.5 -0.7 -0.9 -1.5 -0.9 -0.9 0 -1.5 0.9 -1.5 2.1 0 1.8 0.2 1.9 1.5 0.9 0.8 -0.7 1.5 -1.6 1.5 -2.1z"/>
  <path d="M210.7 70.1 c-1.5 -1.6 -2.7 -3.4 -2.7 -4.1 0 -1.5 -7.6 -9 -8.4 -8.3 -0.3 0.4 -0.6 -0.1 -0.6 -1 0 -0.9 0.4 -1.7 0.9 -1.7 1.1 0 16.1 15.9 16.1 17.1 0 1.8 -2.6 0.8 -5.3 -2z"/>
  <path d="M139.2 71.3 c-2.4 -0.5 -7.3 -4.8 -6.4 -5.7 0.3 -0.3 -0.3 -2.4 -1.3 -4.6 -2 -4.4 -4.5 -5.3 -4.5 -1.7 0 3.8 -1.2 6.7 -2.7 6.7 -1.2 0 -1.4 -1.5 -1.1 -8.9 0.4 -11.2 2.3 -14.4 8.6 -14.9 4 -0.3 4.2 -0.2 4.2 2.6 0 1.6 -0.6 4.1 -1.3 5.4 -1.4 2.8 -1 11.8 0.5 11.8 0.6 0 1.7 0.8 2.4 1.8 1.2 1.5 1.3 0.8 1.4 -4.6 0 -8.3 2.1 -12.2 6.6 -12.2 l3.1 0 0.8 9.1 c0.7 9.6 0.3 11.4 -1.8 8.5 -1 -1.3 -2 -1.6 -3.6 -1.1 -2.3 0.7 -2.4 2 -0.5 6.9 0.6 1.6 0.1 1.7 -4.4 0.9z"/>
  <path d="M195.7 53.5 c-0.4 -0.8 -2.4 -2.3 -4.7 -3.5 -3.8 -1.9 -5.3 -4 -2.9 -4 1.9 0 11 7.1 10.3 8.1 -0.8 1.3 -2.1 1.1 -2.7 -0.6z"/>
  <path d="M160 48.3 c0 -5.2 2.5 -17.3 3.6 -17.3 1.9 0 2.3 3.6 0.9 9.5 -0.7 3 -1.1 5.5 -0.8 5.5 0.2 0 -0.1 0.9 -0.7 2 -1.3 2.5 -3 2.6 -3 0.3z"/>
  <path d="M119.1 38.1 c-1.1 -0.7 -0.8 -1.7 1.7 -4.7 1.8 -2.1 3.2 -4.7 3.2 -5.6 0 -1.4 0.8 -1.8 4.1 -1.8 4.5 0 8.1 2.3 5.2 3.4 -0.9 0.4 -1.3 0.9 -0.9 1.3 0.3 0.3 1.4 -0.1 2.3 -0.9 3.4 -2.9 5.3 -3 5.3 -0.3 0 1.8 -0.5 2.5 -2 2.5 -1 0 -2.3 0.6 -2.7 1.3 -2.6 4.2 -12.5 7.1 -16.2 4.8z"/>
  <path d="M167.7 38.3 c-0.4 -0.3 -0.7 -1.2 -0.7 -2 0 -1.7 2.8 -1.6 5.9 0.1 l2.3 1.3 -2.3 0.6 c-3.1 0.9 -4.4 0.9 -5.2 0z"/>
  <path d="M82 34.7 c0 -0.8 11.1 -4.8 12.3 -4.4 0.6 0.2 -1.1 1.1 -3.9 2.1 -7.6 2.6 -8.4 2.9 -8.4 2.3z"/>
 </g>
 <g fill="#cd3832">
  <path d="M120 239.6 c2.2 -2 12 -3.1 12 -1.3 0 1.5 -4.8 2.7 -10.5 2.7 -2.5 0 -2.7 -0.2 -1.5 -1.4z"/>
  <path d="M139.3 235.3 c-1.3 -0.8 -2.3 -2.4 -2.3 -3.4 0 -2 1.9 -1.9 9.3 0.5 2.3 0.8 6.5 1.8 9.2 2.2 l5 0.8 -5.5 0.7 c-8.8 1.1 -13.3 0.9 -15.7 -0.8z"/>
  <path d="M122.5 234.9 c5.6 -1.1 10.5 -1.1 10.5 0.1 0 0.6 -3 1 -7.2 0.9 -6.6 -0.1 -6.9 -0.2 -3.3 -1z"/>
  <path d="M126 229 c0 -0.5 1.8 -1 4 -1 2.2 0 4 0.5 4 1 0 0.6 -1.8 1 -4 1 -2.2 0 -4 -0.4 -4 -1z"/>
  <path d="M110.5 225 c-1.1 -1.2 -1.8 -2.5 -1.5 -2.8 0.3 -0.3 -1.4 -1.1 -3.7 -1.7 -4.5 -1.1 -6.7 -2.5 -3.9 -2.5 0.9 0 1.4 -0.4 1.1 -1 -0.3 -0.5 -1.8 -1 -3.2 -1 -2.7 0 -8.3 -2.9 -8.3 -4.3 0 -1.3 9.1 -0.2 9.9 1.1 0.3 0.5 3.1 1.3 6.3 1.7 4.4 0.6 5.7 1.1 6.1 2.6 0.4 1.6 0.1 1.9 -1.3 1.4 -1 -0.3 -2.1 -0.1 -2.5 0.5 -0.3 0.6 0.3 1 1.7 1 1.7 0 1.9 0.3 0.9 0.9 -1 0.6 -1 1 -0.1 1.3 0.7 0.2 1 1.4 0.8 2.7 l-0.3 2.3 -2 -2.2z"/>
  <path d="M126 224 c0 -0.5 1.8 -1 4 -1 3.1 0 4 -0.4 4 -1.7 0 -1.3 0.3 -1.4 1.1 -0.6 2.3 2.3 0.2 4.3 -4.6 4.3 -2.5 0 -4.5 -0.4 -4.5 -1z"/>
  <path d="M115 222.3 c0 -1.3 0.5 -2.3 1 -2.3 1.3 0 1.3 1.1 0 3 -0.8 1.2 -1 1.1 -1 -0.7z"/>
  <path d="M138 218 c0 -0.5 0.9 -1 2 -1 1.1 0 2 0.5 2 1 0 0.6 -0.9 1 -2 1 -1.1 0 -2 -0.4 -2 -1z"/>
  <path d="M109 207.8 c0 -2.7 0.5 -4.8 1 -4.8 0.6 0 1 1 1 2.3 0.1 2.1 0.1 2.1 1.4 0.4 1 -1.3 1.6 -1.5 2.1 -0.7 0.9 1.5 6.8 0.5 11.1 -1.7 3 -1.5 3.3 -1.5 4.9 0 0.9 0.9 2 1.7 2.4 1.7 1.8 0 3.5 -3.4 3.4 -6.8 -0.1 -2.1 0.1 -3 0.4 -2.2 0.3 0.8 1.3 2.1 2.2 2.8 1.4 1.1 1.4 1.4 0.1 2.2 -1 0.7 -1.1 1 -0.2 1 2 0 1.4 1.7 -1 2.5 -2 0.6 -2 0.8 -0.5 1.2 1.3 0.3 1.6 1.1 1.1 3.1 -0.4 2.1 -0.3 2.4 0.5 1.2 0.6 -0.8 1.1 -2.2 1.1 -3.1 0 -0.9 0.7 -3.2 1.5 -5 l1.4 -3.4 0.1 7.1 0 7 -17 0 -17 -0.1 0 -4.7z m26.5 1.7 c-2.4 -0.8 -20.5 -1.1 -20.5 -0.4 0 0.5 4.8 0.9 10.8 0.8 5.9 0 10.3 -0.2 9.7 -0.4z"/>
  <path d="M179.5 202 c1 -1.1 2 -1.8 2.3 -1.5 0.7 0.6 -1.8 3.5 -3.1 3.5 -0.5 0 -0.2 -0.9 0.8 -2z"/>
  <path d="M175 201.7 c0 -1.9 3.3 -4.7 5.5 -4.7 1.6 0 1.5 0.4 -1 3 -3.1 3.3 -4.5 3.8 -4.5 1.7z"/>
  <path d="M66.5 195.5 c-2.3 -2.4 -4.5 -4.2 -4.9 -3.8 -0.3 0.3 -0.1 1.2 0.5 2 0.8 0.9 0.8 1.3 0.1 1.3 -0.6 0 -2 -1.3 -3.1 -2.9 l-2.1 -2.9 2.2 0.6 c2 0.5 2 0.3 -0.7 -3.2 -1.5 -2 -3.4 -3.5 -4 -3.2 -1.7 0.6 -7.9 -8 -9.5 -13.3 -1.1 -3.4 -1.2 -4.5 -0.2 -4.9 2 -0.6 1.4 -3.2 -1 -4.2 -1.3 -0.5 -1.7 -0.9 -1 -0.9 1.7 -0.1 1.5 -2.1 -0.3 -2.1 -0.8 0 -1.5 -0.5 -1.5 -1.1 0 -0.6 0.6 -0.9 1.4 -0.6 1.1 0.5 1.2 -0.1 0.3 -2.9 -0.6 -1.9 -1.6 -3.4 -2.4 -3.4 -0.7 0 -1.3 -0.7 -1.3 -1.5 0 -0.8 0.5 -1.5 1 -1.5 0.6 0 1 -0.9 1 -2 0 -1.1 -0.7 -2 -1.5 -2 -0.9 0 -1.5 -0.9 -1.5 -2.5 0 -1.6 0.6 -2.5 1.6 -2.5 1.4 0 1.5 -0.8 0.9 -4.7 -0.4 -2.7 -1.1 -4.9 -1.6 -5.1 -0.5 -0.2 -0.9 -1.5 -0.9 -2.8 0 -1.7 0.6 -2.4 2 -2.4 1.1 0 2 -0.7 2 -1.5 0 -0.8 0.4 -1.5 0.8 -1.5 0.5 0 1.2 7.2 1.5 16 0.4 12.1 1 16.5 2.1 18.2 0.9 1.2 1.6 3.5 1.6 5 0 1.6 0.4 2.8 1 2.8 0.5 0 1.3 1.2 1.6 2.8 0.4 1.5 1.2 3.4 1.9 4.2 2.9 3.6 6.5 11.5 6.5 14.2 0 2.4 0.5 2.9 3 3.5 1.7 0.3 3 1.2 3 2 0 2.4 3.2 7.1 5.2 7.6 1.6 0.5 2.7 3.7 1.1 3.7 -0.3 0 -2.5 -2 -4.8 -4.5z"/>
  <path d="M139.1 194.8 c0 -1 -0.5 -1.8 -1 -1.8 -0.4 0 -0.7 -1.2 -0.5 -2.7 0.1 -1.5 -0.2 -3.5 -0.7 -4.5 -0.6 -1.1 -0.9 -2.6 -0.7 -3.5 0.5 -2.7 5.1 1.8 5.1 5 0 1.5 0.3 3 0.8 3.3 1.4 0.8 1 2.4 -0.5 2.4 -0.8 0 -1.7 0.8 -1.9 1.8 -0.4 1.6 -0.5 1.6 -0.6 0z"/>
  <path d="M144.1 194.8 c0 -0.7 0.4 -2.2 0.9 -3.3 0.7 -1.7 0.9 -1.5 0.9 1.3 0.1 1.7 -0.3 3.2 -0.9 3.2 -0.5 0 -1 -0.6 -0.9 -1.2z"/>
  <path d="M104.3 192.3 c-0.7 -1.5 -1.3 -3.3 -1.3 -4 0 -0.7 -0.7 -1.3 -1.5 -1.3 -1 0 -1.5 -1 -1.5 -3.3 0 -2.5 0.6 -3.7 2.4 -4.6 3.3 -1.8 5.4 -1 3.2 1.1 -2 2.1 -2 5.4 -0.1 9.2 1.6 3.1 2 5.6 0.8 5.6 -0.5 0 -1.4 -1.2 -2 -2.7z"/>
  <path d="M186 191.1 c0 -1.1 0.6 -2.1 1.4 -2.1 0.7 0 1.6 -0.9 1.9 -2 0.3 -1.1 1.3 -2 2.2 -2 1.4 0 1.4 0.3 -0.4 2.8 -1.1 1.6 -2.7 3.5 -3.6 4.2 -1.3 1.1 -1.5 0.9 -1.5 -0.9z"/>
  <path d="M107.3 189.3 c-0.7 -1.6 -1.4 -3.9 -1.5 -5.3 -0.3 -2.3 0.1 -2.5 4 -2.8 3.2 -0.2 4.2 0 4.2 1.2 0 2 -1.8 3 -3.3 1.8 -1 -0.8 -1.2 0 -1.2 3.4 0 5.1 -0.5 5.5 -2.2 1.7z"/>
  <path d="M124.3 182.3 c0.9 -0.2 2.5 -0.2 3.5 0 0.9 0.3 0.1 0.5 -1.8 0.5 -1.9 0 -2.7 -0.2 -1.7 -0.5z"/>
  <path d="M126.2 176.8 c-0.7 -0.7 -1.2 -2 -1.2 -3.1 0 -1.4 0.6 -1.7 3 -1.5 1.7 0.2 3 0.7 3 1.1 0 0.4 0 1.6 0 2.7 0 2.3 -2.9 2.7 -4.8 0.8z"/>
  <path d="M139.4 158.3 c-0.9 -1.5 -3 -4.7 -4.5 -7.1 -1.6 -2.3 -3.1 -5.4 -3.5 -7 -0.6 -2.6 -0.5 -2.5 1.8 0.8 4 5.7 9.1 15.1 8.5 15.6 -0.3 0.3 -1.3 -0.7 -2.3 -2.3z"/>
  <path d="M153.9 158.6 c2.9 -3.1 3.5 -3.3 2.2 -0.7 -0.6 1 -1.8 2.2 -2.8 2.5 -1.3 0.5 -1.1 0.1 0.6 -1.8z"/>
  <path d="M142.4 155.3 c-0.9 -1.6 -2.9 -4.7 -4.4 -6.9 -3.1 -4.6 -4.8 -9 -3.2 -8 0.6 0.3 1.3 0.2 1.7 -0.4 0.3 -0.5 2.2 -1 4.1 -1 2.7 0 3.7 -0.5 4.4 -2.2 0.8 -2.2 0.9 -2.2 0.9 0.4 0.1 2 0.5 2.6 1.6 2.2 0.8 -0.4 1.5 -1.2 1.5 -2 0 -1.9 3.6 -1.8 4.4 0.2 1.1 2.9 0.6 4.4 -1.4 4.4 -2.3 0 -2.7 2.5 -0.5 3.4 0.8 0.3 1.5 1.2 1.5 2 0 0.8 0.5 1.6 1.2 1.8 1.6 0.6 -0.8 6.5 -3.3 7.8 -3.4 1.9 -6.8 1.1 -8.5 -1.7z"/>
  <path d="M206.4 152.8 c0.3 -5.7 1 -7.8 2.2 -6.5 0.4 0.3 -0.1 3.2 -1 6.4 l-1.5 5.8 0.3 -5.7z"/>
  <path d="M99.5 152 c-1.6 -1.7 -1.6 -2.1 -0.2 -3.5 2.7 -2.7 4.7 -1.9 4.7 2 0 4 -1.7 4.6 -4.5 1.5z"/>
  <path d="M98.2 135 c0.3 -5.5 1.2 -6.4 2.3 -2.2 1.7 6.5 1.6 7.2 -0.5 7.2 -1.8 0 -2 -0.5 -1.8 -5z"/>
  <path d="M115 139.4 c0 -2.2 7.2 -9.4 9.3 -9.4 1.5 0 1.8 0.3 1 0.8 -0.9 0.6 -0.7 1.2 0.7 2.5 2.8 2.4 2.6 4.7 -0.6 4.7 -2.1 0 -2.4 -0.4 -1.9 -2 1 -3.1 -2 -2.5 -5.4 1.3 -1.7 1.7 -3.1 2.7 -3.1 2.1z"/>
  <path d="M87.3 127.8 c0.4 -2.8 1.1 -5.4 1.5 -5.7 0.5 -0.3 1.3 -2.1 1.7 -3.8 0.3 -1.8 1.3 -3.3 2 -3.3 1.1 0 1 1 -0.5 4.8 -1.1 2.6 -2.4 6.6 -3 9 -1.5 5.8 -2.4 5.3 -1.7 -1z"/>
  <path d="M152 128.1 c0 -0.6 1.1 -2.3 2.5 -3.8 l2.4 -2.8 0.1 3.8 c0 3.3 -0.3 3.7 -2.5 3.7 -1.4 0 -2.5 -0.4 -2.5 -0.9z"/>
  <path d="M147 123.1 c0 -2.2 -0.6 -3.2 -2.2 -3.7 -2.3 -0.7 -2.3 -0.7 0.4 -1.9 1.5 -0.6 4.1 -2.4 5.8 -4 3 -2.9 3 -2.9 3 -0.5 0 2.7 -4.8 13 -6.1 13 -0.5 0 -0.9 -1.3 -0.9 -2.9z"/>
  <path d="M138.9 114.3 c-1.3 -1.5 -1.1 -1.6 2 -1 4.9 1 9.1 -3 9.1 -8.5 0 -2.6 0.4 -3.8 1.4 -3.8 3.5 0 1.8 8 -2.6 12.7 -2.6 2.8 -7.9 3.1 -9.9 0.6z"/>
  <path d="M159.2 110.2 c0.2 -3.1 -0.8 -5.2 -2.5 -5.2 -0.7 0 -0.6 0.4 0.3 1 1.3 0.8 1.2 1 -0.2 1 -2 0 -2.5 -2.6 -0.6 -3.2 0.9 -0.3 0.8 -1.2 -0.5 -3.1 l-1.7 -2.7 2.9 0 c2.1 0 3 0.6 3.5 2.3 1 3.6 0.7 12.7 -0.4 12.7 -0.6 0 -0.9 -1.3 -0.8 -2.8z"/>
  <path d="M109.8 107.3 c0.7 -0.2 1.2 -2.2 1.2 -4.4 0 -3.5 0.3 -3.9 2.5 -3.9 1.9 0 2.3 0.4 1.8 1.8 -1.1 2.8 -4.6 7.2 -5.7 7.1 -0.6 0 -0.5 -0.3 0.2 -0.6z"/>
  <path d="M102.4 102.1 c-0.4 -0.9 -0.8 -2.3 -0.9 -3.2 -0.2 -1.3 0.2 -1.4 1.9 -0.6 1.2 0.6 2.2 2 2.2 3.2 0.2 2.5 -2.2 2.9 -3.2 0.6z"/>
  <path d="M98.3 98 c0 -2.5 0.2 -3.5 0.4 -2.2 0.2 1.2 0.2 3.2 0 4.5 -0.2 1.2 -0.4 0.2 -0.4 -2.3z"/>
  <path d="M52.7 91.3 c0.4 -1 1.4 -2.4 2.2 -3.1 1.4 -1.1 1.4 -1.1 0 -0.6 -1 0.3 -2 0.1 -2.3 -0.5 -0.9 -1.4 0.4 -6.2 1.5 -5.6 0.4 0.3 0.6 1.2 0.3 1.9 -0.8 2.2 2.3 2.6 4.1 0.6 1.9 -2.1 2.2 -1.9 -3 -3.5 -1.3 -0.4 -1.4 -0.9 -0.5 -2.5 1.2 -2.3 3 -2.7 3 -0.6 0 2.3 2.3 2.5 5.3 0.4 3.5 -2.5 3.7 -5.2 0.2 -4.6 -2 0.4 -2.3 0.3 -1.4 -0.8 1.5 -1.8 2.4 -1.8 4.2 0.1 1.3 1.3 1.6 1.3 2.1 -0.2 0.4 -0.9 0.1 -2 -0.6 -2.4 -1 -0.6 -1 -1.1 -0.1 -2 0.9 -0.9 1.5 -0.9 2.7 0 0.8 0.7 2 1 2.6 0.6 1.7 -1.1 1.1 -2.3 -1.2 -2.7 -1.5 -0.2 -2.3 -1 -2.3 -2.3 0 -1.3 0.8 -2.1 2.3 -2.3 1.6 -0.3 2.2 0.2 2.2 1.6 0 2.9 2.8 3.5 5.8 1.3 4.4 -3.1 9.2 -5.2 9.2 -4.1 0 0.5 -0.7 1 -1.5 1 -0.8 0 -2.4 0.9 -3.5 2 -1.1 1.1 -2.4 2 -3 2 -0.5 0 -1 1.1 -1 2.3 0 1.7 -1.4 3.3 -5 5.8 -2.7 1.9 -5 3.7 -5 4.2 0 0.4 -0.9 0.7 -2 0.7 -1.3 0 -2 0.7 -2 1.8 0 2.3 -3 5.2 -5.3 5.2 -1.1 0 -1.7 0.8 -1.7 2.3 -0.1 3 -2.3 5.7 -4.8 5.7 -1.6 0 -2 -0.4 -1.5 -1.7z"/>
  <path d="M183.7 77 c-1.6 -1.9 -3.5 -3 -5.1 -3 -1.4 0 -2.6 -0.3 -2.6 -0.8 0 -0.4 -1.8 -1.8 -4 -3.2 -2.2 -1.4 -4 -2.8 -4 -3.1 0 -0.4 -1.1 -1 -2.5 -1.3 -1.8 -0.5 -2.5 -1.3 -2.5 -3 0 -1.9 0.4 -2.3 2 -1.9 1.1 0.3 2 0 2 -0.6 0 -2.6 9.2 -0.1 13.2 3.5 5.4 5 10.8 11.5 10.3 12.5 -0.9 1.4 -3.2 -0.6 -6.1 -5.3 -1.5 -2.3 -3.2 -3.8 -4.4 -3.8 -3.3 0 -2.3 2.2 3 6.9 2.8 2.5 5 4.8 5 5.3 0 1.7 -1.9 0.7 -4.3 -2.2z m-11.5 -14.2 c-0.6 -0.6 -1.5 -0.8 -1.9 -0.4 -0.4 0.4 -0.1 1.1 0.7 1.6 1.9 1.2 2.7 0.3 1.2 -1.2z"/>
  <path d="M136.5 78.1 c-0.3 -0.5 -1.9 -1.2 -3.5 -1.6 -1.7 -0.4 -3 -1.1 -3 -1.6 0 -0.5 -0.7 -0.9 -1.5 -0.9 -0.8 0 -1.5 -0.5 -1.5 -1.1 0 -1.5 3.8 -0.2 8.3 2.8 2 1.4 3.7 2.7 3.7 2.9 0 0.8 -1.9 0.4 -2.5 -0.5z"/>
  <path d="M124 73.1 c0 -2.3 0.5 -4.1 1 -4.1 0.6 0 1 1.5 1 3.4 0 1.9 -0.4 3.8 -1 4.1 -0.6 0.4 -1 -1 -1 -3.4z"/>
  <path d="M77.9 60.1 c3 -3 5.5 -4.1 7.2 -3 1.1 0.7 1.1 0.9 -0.3 0.9 -1 0 -2.7 0.9 -3.8 2 -1.1 1.1 -2.7 2 -3.5 2 -1.2 0 -1.1 -0.4 0.4 -1.9z"/>
  <path d="M113.7 46.4 c0.3 -0.9 0 -2 -0.7 -2.4 -2.1 -1.3 0 -3.2 2.7 -2.5 2.3 0.5 2.5 0.4 2 -1.7 -0.9 -3.2 1.9 -6.1 4.4 -4.7 1.1 0.5 2.4 0.7 2.9 0.4 0.6 -0.3 1 0.4 1 1.7 0 2.9 -7.9 10.8 -10.8 10.8 -1.6 0 -2 -0.4 -1.5 -1.6z"/>
 </g>
 <g fill="#fff4e7">
  <path d="M118.2 234.8 c-2.1 -2.1 -1.4 -4.8 1.2 -4.8 2.3 0 3.6 1.6 3.6 4.6 0 1.7 -3.1 1.9 -4.8 0.2z"/>
  <path d="M108 218 c-6.3 -1 -15.3 -4.3 -15.8 -5.7 -0.5 -1.7 5.9 -1.7 14.4 -0.1 6.1 1.1 6.4 1.3 6.4 4 0 1.5 -0.1 2.7 -0.2 2.7 -0.2 -0.1 -2.3 -0.5 -4.8 -0.9z"/>
  <path d="M138 217 c0 -1.8 -0.7 -2 -6.5 -2 -5.7 0 -6.5 -0.2 -6.5 -1.9 0 -2.2 4.2 -3.2 12 -3 9.9 0.2 14.7 5.5 7.1 7.7 -5.3 1.6 -6.1 1.5 -6.1 -0.8z"/>
  <path d="M83.3 208.6 c-2.9 -1.7 -6 -3.9 -7 -4.8 -1.6 -1.7 -1.5 -1.8 4 -1.8 4.3 0 5.7 0.4 5.7 1.5 0 0.7 0.7 1.8 1.6 2.3 0.9 0.5 1.4 1.9 1.2 3.4 l-0.3 2.5 -5.2 -3.1z"/>
  <path d="M145 192.3 c0 -0.5 0.8 -2.9 1.7 -5.5 2 -5.6 4.3 -6.4 4.3 -1.5 0 5.6 -1 7.7 -3.6 7.7 -1.3 0 -2.4 -0.3 -2.4 -0.7z"/>
  <path d="M59.9 188.1 c-1.9 -2.1 -4.2 -5.3 -5.2 -7 l-1.8 -3.1 3 0 c1.7 0 3.1 0.5 3.1 1 0 0.6 0.9 1 1.9 1 1.6 0 2.1 1 2.6 5.5 0.4 3.1 0.5 5.8 0.2 6.1 -0.2 0.3 -2 -1.3 -3.8 -3.5z"/>
  <path d="M121.7 181.2 c-2.2 -2.4 -2.1 -5.5 0.1 -7.5 3.7 -3.4 9.2 -0.8 9.2 4.2 0 4.8 -6.1 6.9 -9.3 3.3z"/>
  <path d="M141.5 172.3 c-2.7 -4.3 -7.3 -11.5 -10.3 -16.1 l-5.4 -8.3 -3.2 5 c-13.2 21.1 -11.6 19.1 -16.3 19.1 -3.2 0 -4.3 -0.4 -4.3 -1.5 0 -1 -1 -1.5 -3 -1.5 -1.9 0 -3.4 -0.7 -4.2 -2 -0.7 -1.1 -2 -2 -3 -2 -2.5 0 -4.8 -3.9 -4.8 -8.2 0 -3.3 0.3 -3.8 2.4 -3.8 1.7 0 2.6 0.7 3 2.4 0.9 3.7 9.9 13.1 11.8 12.3 0.9 -0.3 2.7 -2.5 4.1 -4.9 10.6 -18.7 17.3 -29.8 18 -29.8 1 0 0.5 6.5 -0.7 9.3 -0.7 1.4 -0.3 1.7 2.8 1.7 3 0 4 0.5 5.6 3.3 1.1 1.7 2 3.9 2 4.7 0 0.8 0.7 2.8 1.5 4.4 0.8 1.5 1.5 4.1 1.5 5.7 0 2.6 0.4 2.9 3 2.9 1.7 0 3 -0.4 3 -0.9 0 -0.5 1.1 -1.2 2.5 -1.5 1.3 -0.3 4 -2 6 -3.7 l3.5 -3.1 0 3.6 c0 2.4 -0.5 3.6 -1.4 3.6 -0.8 0 -1.6 0.7 -2 1.5 -0.3 1 -1.9 1.5 -4.6 1.5 -2.8 0 -4 0.4 -4 1.4 0 0.8 0.5 1.6 1 1.8 1.4 0.4 2.6 10.8 1.3 10.8 -0.5 0 -3.1 -3.5 -5.8 -7.7z"/>
  <path d="M98.6 151.1 c-0.9 -1 -2 -3.5 -2.3 -5.5 -0.5 -3.1 -0.3 -3.6 1.5 -3.6 1.1 0 2.2 0.7 2.6 1.5 0.3 0.8 1.2 1.5 2.1 1.5 2 0 2 4.4 -0.1 6.4 -1.9 2 -1.7 2 -3.8 -0.3z"/>
  <path d="M41.6 146.8 c-0.8 -3 -0.8 -21.6 0 -24.5 0.4 -1.3 1.3 -2.3 2 -2.3 1.1 0 1.4 2.8 1.4 14.5 0 11.7 -0.3 14.5 -1.4 14.5 -0.7 0 -1.6 -1 -2 -2.2z"/>
  <path d="M83 145.6 c0 -2.6 0.5 -3.6 2.1 -4.1 2.6 -0.9 2.9 -0.6 3.6 3.9 0.5 3.5 0.5 3.6 -2.6 3.6 -2.9 0 -3.1 -0.3 -3.1 -3.4z"/>
  <path d="M152.6 139.5 c-0.3 -0.9 -0.6 -3 -0.6 -4.6 0 -2.6 0.3 -2.9 3 -2.9 3.8 0 4.9 2.3 2.7 5.9 -1.9 3.1 -4.2 3.8 -5.1 1.6z"/>
  <path d="M144.7 115.3 c-0.4 -0.3 -0.7 -2.1 -0.7 -4 0 -3.2 0.1 -3.3 4 -3.3 4.7 0 4.9 0.8 1.4 4.9 -2.6 3.2 -3.5 3.6 -4.7 2.4z"/>
  <path d="M137.7 112.3 c-0.4 -0.3 -0.7 -2.5 -0.7 -4.7 0 -4 3.2 -10.7 7.9 -16.6 2 -2.5 2 -2.5 3.5 -0.5 0.9 1.1 1.6 3.6 1.6 5.7 0 3.1 -0.7 4.2 -4.5 7.6 -3.2 2.8 -4.5 4.7 -4.5 6.6 0 2.4 -1.8 3.5 -3.3 1.9z"/>
  <path d="M197.3 102.3 c-0.7 -0.2 -1.3 -2 -1.3 -3.9 0 -4.7 3 -4.6 5.3 0.1 0.9 2 1.7 3.8 1.7 4 0 0.6 -4.1 0.5 -5.7 -0.2z"/>
  <path d="M191 90.1 c0 -0.5 -1.2 -1.1 -2.7 -1.3 -2.2 -0.2 -2.9 -0.9 -3.1 -3 -0.3 -2.2 -0.9 -2.8 -2.8 -2.8 -1.8 0 -2.4 -0.5 -2.4 -2.2 0 -5 -1.1 -6.8 -4.1 -6.8 -1.6 0 -2.9 -0.4 -2.9 -0.9 0 -0.5 -0.9 -1.3 -2 -1.6 -1.1 -0.3 -2 -1.3 -2 -2.1 0 -0.8 -0.7 -1.4 -1.5 -1.4 -1 0 -1.5 -1 -1.5 -3 0 -1.6 0.3 -3 0.8 -3 3.5 0 21 15.7 27 24.3 l3.3 4.7 -3 0 c-1.7 0 -3.1 -0.4 -3.1 -0.9z"/>
  <path d="M75.5 67.9 c0.9 -1.4 8.6 -6.9 9.7 -6.9 1.9 0 0.7 4.9 -1.7 6.4 -2.7 1.8 -9 2.2 -8 0.5z"/>
  <path d="M150 10.9 l0 -3 3 2.1 c4.4 3.1 4.5 4 0.6 4 -3.3 0 -3.6 -0.2 -3.6 -3.1z"/>
 </g>
 <g fill="#fff9e9">
  <path d="M118.9 234.2 c-3 -3.5 -3 -4.9 0.3 -5.6 1.7 -0.3 5.7 -0.6 8.9 -0.6 6.3 0 6.7 0.4 5.3 5.8 -0.6 2 -1.3 2.2 -6.8 2.2 -4.7 0 -6.5 -0.4 -7.7 -1.8z"/>
  <path d="M112.1 216.3 c-0.1 -1.3 -0.7 -2.3 -1.6 -2.3 -1 0 -1.5 -1.1 -1.5 -3.5 0 -2.4 0.5 -3.5 1.5 -3.5 0.8 0 1.5 0.7 1.5 1.5 0 1.3 2.1 1.5 13 1.5 7.2 0 13.3 0 13.8 0 0.4 0 0.8 -1.1 1 -2.5 0.2 -1.7 0.9 -2.5 2.3 -2.5 1.5 0 1.9 0.7 1.9 3.7 0 2.9 0.3 3.4 1.2 2.5 0.7 -0.7 2.5 -1.2 4 -1.2 1.8 0 2.8 -0.5 2.8 -1.5 0 -1 1 -1.5 3 -1.5 2.3 0 3 -0.4 3 -2 0 -1.5 0.7 -2 2.8 -2 1.6 0 3.8 -0.9 5 -2 1.5 -1.4 3.5 -2 6.7 -2 3.8 0 4.5 0.3 4.5 2 0 1.1 -0.5 2 -1 2 -0.6 0 -2.1 0.9 -3.3 2.1 -2.9 2.7 -11.9 7.3 -19.7 10 l-6.2 2.1 -4.3 -2.2 c-3.3 -1.7 -5.3 -2.1 -8.2 -1.6 -2.1 0.3 -7.7 0.9 -12.5 1.2 -6.9 0.5 -8.8 1 -9.1 2.3 -0.3 1.1 -0.5 0.8 -0.6 -0.6z"/>
  <path d="M86.9 210.5 c-1.9 -1.4 -3.7 -3.4 -4.1 -4.3 -0.4 -0.9 -0.7 -1.2 -0.7 -0.5 -0.1 1.3 -8.1 -2.5 -8.1 -3.9 0 -0.4 2.4 -0.8 5.4 -0.8 5.5 0 8.6 1.6 8.6 4.5 0 0.7 0.9 1.5 2 1.8 1.4 0.3 2 1.4 2 3.1 0 3.2 -0.7 3.2 -5.1 0.1z"/>
  <path d="M142.3 199.6 c0.3 -0.8 1.1 -3.2 1.8 -5.5 0.7 -2.3 1.6 -4.1 2.1 -4.1 0.4 0 0.7 -0.3 0.6 -0.7 -0.2 -1.3 1.4 -4.3 2.3 -4.3 1.4 0 1 5.3 -0.8 10.9 -1.3 4.3 -2 5.1 -4.1 5.1 -1.6 0 -2.2 -0.4 -1.9 -1.4z"/>
  <path d="M64 192.6 c-1.4 -1.6 -3 -3.4 -3.7 -4.1 -0.6 -0.7 -0.9 -2.2 -0.6 -3.4 0.4 -1.5 0.1 -2.1 -1.2 -2.1 -1.6 0 -4.5 -2.2 -4.5 -3.4 0 -0.3 1.4 -0.6 3 -0.6 2.3 0 3 0.4 3 2 0 1.1 0.7 2 1.5 2 0.8 0 1.5 0.5 1.5 1.1 0 0.6 0.9 1.8 2.1 2.8 1.5 1.2 2 2.5 1.7 5.1 l-0.3 3.5 -2.5 -2.9z"/>
  <path d="M100.1 183.1 c-1.1 -0.7 -1.2 -2.3 -0.7 -7 0.6 -5.1 0.5 -6.1 -0.9 -6.1 -1 0 -1.5 -1 -1.5 -3.1 l0 -3 2.8 1.9 c6.3 4.5 9.5 3.3 10.5 -3.7 0.6 -5.1 1.9 -6.3 5.3 -4.7 2.7 1.3 2.5 3.4 -1.1 8.1 -1.2 1.7 -3.4 5.3 -4.8 8 -2.3 4.7 -6.7 10.5 -7.7 10.5 -0.3 0 -1.1 -0.4 -1.9 -0.9z"/>
  <path d="M125 181 c-0.6 -1.1 -0.7 -2 -0.2 -2 0.6 0 1.2 -0.9 1.5 -2.1 0.7 -2.8 3.9 -2.1 4.4 1 0.7 4.5 -3.7 6.9 -5.7 3.1z"/>
  <path d="M144.7 176.3 c-0.4 -0.3 -0.7 -1.6 -0.7 -2.7 0 -1.7 -0.2 -1.8 -1 -0.6 -0.8 1.3 -1 1.2 -1.1 -0.5 -0.1 -1.1 -0.2 -2.6 -0.2 -3.2 0.1 -0.7 -0.7 -1.3 -1.6 -1.3 -1.2 0 -2.7 -2 -4.4 -6 -1.5 -3.3 -2.7 -6.5 -2.7 -7.2 0 -0.7 -0.9 -2.8 -2.1 -4.7 -1.4 -2.4 -2.3 -3.1 -3.1 -2.3 -1.1 1.1 -4.5 -0.2 -5.9 -2.2 -1.2 -1.5 2.4 -12.6 4.1 -12.6 0.3 0 2.2 2.8 4.2 6.3 10.9 19.2 13.3 23 15 23.5 1.6 0.4 1.8 1.2 1.2 7.1 -0.7 7.3 -0.8 7.4 -1.7 6.4z"/>
  <path d="M98.1 150.7 c-0.6 -0.8 -0.8 -1.6 -0.6 -1.9 0.3 -0.3 0.1 -1.6 -0.5 -2.9 -1.1 -2.6 0.7 -11 2.5 -11.6 0.9 -0.3 4.5 9.9 4.5 12.7 0 0.5 -0.8 1 -1.7 1.1 -1.1 0 -1.3 0.3 -0.5 0.6 0.6 0.2 1.2 1.1 1.2 1.9 0 1.8 -3.4 1.8 -4.9 0.1z"/>
  <path d="M41.5 137 c-0.9 -4 0.3 -9 2.1 -9 1 0 1.4 1.5 1.4 6 0 4.5 -0.4 6 -1.4 6 -0.8 0 -1.7 -1.3 -2.1 -3z"/>
  <path d="M150.1 136.3 c-1.3 -1.4 -1.2 -2.2 1 -6.1 2.9 -5.5 4.2 -6.1 5.7 -2.7 1.7 3.6 1.5 7.5 -0.3 7.5 -0.9 0 -1.2 0.6 -0.9 1.5 0.8 2.1 -3.6 1.9 -5.5 -0.2z"/>
  <path d="M138.5 113.6 c-1.8 -2.7 -1.3 -4.6 1.2 -4.6 0.8 0 2.6 -0.9 4 -2 1.4 -1.1 3.2 -2 3.9 -2 0.8 0 1.4 -0.6 1.4 -1.3 0 -0.9 -1 -1.2 -3 -0.9 -2.1 0.3 -3 1 -3 2.3 0 1.4 -0.7 1.9 -2.5 1.9 -1.4 0 -2.5 -0.4 -2.5 -1 0 -0.9 9.9 -11 10.7 -11 0.2 0 0.3 1.4 0.3 3 0 2.3 0.4 3 2 3 1.5 0 2 0.7 2 3 0 4.3 -1.9 7.8 -3.9 7.3 -1.3 -0.3 -1.8 0.1 -1.7 1.9 0.1 2 -0.5 2.3 -3.6 2.6 -3 0.3 -4 -0.1 -5.3 -2.2z"/>
  <path d="M186.8 86.3 c-1 -0.2 -1.8 -0.9 -1.8 -1.4 0 -0.5 -1.1 -1.5 -2.5 -2.1 -1.8 -0.8 -2.5 -1.9 -2.5 -4 0 -2.1 -0.5 -2.8 -2 -2.8 -1.1 0 -2 -0.5 -2 -1.1 0 -1.7 -2.3 -3.5 -5.3 -4.3 -1.5 -0.3 -2.7 -1.3 -2.7 -2.1 0 -0.7 -0.9 -1.7 -2 -2 -1.3 -0.4 -2 -1.5 -2 -3.1 0 -2.8 0.1 -2.8 3.4 -1.3 1.4 0.7 2.3 1.6 2 2 -0.3 0.5 0.3 0.9 1.3 0.9 2.6 0.1 5.8 2.6 4.1 3.3 -0.7 0.3 -0.2 0.6 1.2 0.6 2 0.1 2.2 0.3 1 1.1 -1.2 0.8 -1.2 1 0.5 1 2 0.1 7.8 4.8 12.4 10.2 l2.3 2.7 -2.2 -0.6 c-1.7 -0.4 -2.1 -0.2 -1.8 0.8 0.3 0.8 1.8 1.7 3.4 2 l2.9 0.7 -3 0 c-1.6 0 -3.8 -0.2 -4.7 -0.5z"/>
 </g>
 <g fill="#fffeec">
  <path d="M117 231.8 c0 -0.3 -0.3 -1.3 -0.6 -2.2 -0.5 -1.3 0.7 -1.5 8.5 -1.4 5 0 9.1 0.5 9.1 0.9 0 0.5 -0.8 0.9 -1.7 0.9 -1.5 0 -1.5 0.2 -0.4 0.9 1 0.6 -1.4 1.1 -6.7 1.3 -4.5 0.2 -8.2 0 -8.2 -0.4z"/>
  <path d="M149.5 214.3 c0.5 -1.5 0.4 -1.6 -0.6 -0.5 -2 1.9 -3.1 1.4 -2.7 -1 0.2 -1.3 1.1 -2.4 2.2 -2.6 2.5 -0.5 4.3 -2.3 4.7 -4.7 0.7 -3.3 19.9 -7.6 19.9 -4.5 0 0.6 -0.4 1 -1 1 -0.5 0 -1.9 0.8 -3 1.7 -1.4 1.3 -1.6 1.9 -0.7 2.5 0.9 0.6 0.7 1.2 -0.8 2.4 -1.8 1.3 -2.1 1.3 -2.9 -0.6 -0.8 -1.9 -3.7 -2.9 -3.5 -1.2 0.5 2.7 -0.3 5.2 -1.6 5.2 -0.8 0 -1.5 0.5 -1.5 1.1 0 0.7 -1.2 0.9 -3.5 0.5 -2.9 -0.6 -3.4 -0.4 -2.9 0.9 0.4 1 0 1.5 -1.1 1.5 -1.2 0 -1.5 -0.5 -1 -1.7z"/>
  <path d="M99 176.7 c0 -3.3 0.6 -4.9 2.3 -6.5 1.3 -1.2 2.6 -2.2 3 -2.2 0.7 0 0.1 3.5 -0.9 5.3 -0.4 0.6 0.3 0.3 1.6 -0.8 1.3 -1.1 2 -1.4 1.5 -0.6 -0.4 0.8 -0.2 1.7 0.6 2.2 1.1 0.7 0.9 0.9 -0.6 0.9 -1.7 0 -1.7 0.2 -0.5 1 1.3 0.9 1.3 1 0 1 -0.8 0 -2.2 0.5 -3 1 -1.3 0.9 -1.3 1.1 0 2 1.2 0.8 0.9 1 -1.2 1 -2.6 0 -2.8 -0.3 -2.8 -4.3z"/>
  <path d="M143 165.5 c1 -1.2 0.9 -1.6 -0.5 -2.2 -1.2 -0.4 -2.3 0 -3.1 1.2 -0.8 1.1 -1.4 1.3 -1.4 0.6 0 -0.7 -0.7 -1.9 -1.5 -2.7 -0.8 -0.9 -1.5 -2.9 -1.5 -4.5 0 -2.7 0.3 -3 2.3 -2.4 3.1 1 5.1 3.6 3.5 4.6 -1.9 1.2 -0.3 2.1 4.7 2.6 3.5 0.5 4.5 1 4.5 2.4 0 1.6 -0.8 1.9 -4.1 1.9 -3.6 0 -4 -0.2 -2.9 -1.5z"/>
  <path d="M133.6 152.4 c-0.9 -2.3 -0.8 -2.4 1.3 -2.4 2.4 0 3.5 2.6 1.5 3.4 -2.1 0.8 -2.1 0.8 -2.8 -1z"/>
  <path d="M98.7 144.3 c-1.7 -3.6 -1.1 -7.3 1.1 -7.2 1.1 0 1.2 0.3 0.5 0.6 -1.8 0.7 -1.6 2.3 0.1 2.3 1.7 0 2.1 0.5 3 4.3 0.5 2.3 0.3 2.7 -1.4 2.7 -1.1 0 -2.5 -1.1 -3.3 -2.7z"/>
  <path d="M150 140.1 c-1.3 -2.6 -1.3 -6.4 0.1 -7.8 1.3 -1.3 2.4 -0.5 5.3 4 1.5 2.2 1.6 3 0.6 4.2 -1.7 2.1 -4.7 1.9 -6 -0.4z"/>
  <path d="M158 136 c0 -0.5 -0.6 -1 -1.3 -1 -1.3 0 -4.1 -6 -3.2 -6.8 0.8 -0.9 5.5 5.2 5.5 7.1 0 0.9 -0.2 1.7 -0.5 1.7 -0.3 0 -0.5 -0.4 -0.5 -1z"/>
  <path d="M141.2 112.5 c-0.1 -1.9 0.3 -3.5 0.8 -3.5 0.5 0 1 -1 1.2 -2.2 0.2 -1.7 1.1 -2.4 3.1 -2.6 1.9 -0.2 2.7 -0.9 2.7 -2.3 0 -3.7 3.5 -1.8 3.7 1.9 0.1 2.7 -0.3 3.5 -2.5 4.3 -2.9 1.1 -7.2 5.2 -7.2 6.9 0 0.5 -0.4 1 -0.8 1 -0.5 0 -0.9 -1.6 -1 -3.5z"/>
 </g>
 <g fill="#fef6f7">
  <path d="M115.7 224.3 c-0.4 -0.3 -0.7 -1.5 -0.7 -2.5 0 -1.6 0.9 -1.8 7.8 -1.8 9.6 0 12.2 0.7 12.2 3.1 0 1.7 -0.9 1.9 -9.3 1.9 -5.2 0 -9.7 -0.3 -10 -0.7z"/>
  <path d="M104.6 216.5 c0.6 -1.4 0.3 -1.6 -1.6 -1 -1.9 0.6 -2.2 0.4 -1.7 -1 0.4 -0.9 0.7 -1.9 0.7 -2.1 0 -0.2 0.8 -0.4 1.8 -0.4 1.5 0 1.7 -0.6 1.4 -3.5 -0.6 -4.8 0.6 -10.5 2.2 -10.5 1.2 0 4.6 8.6 4.6 11.7 0 0.8 0.4 1.2 0.9 0.9 0.5 -0.3 1.5 0.1 2.2 1 1.1 1.4 1.1 1.8 -0.4 2.9 -0.9 0.7 -1.7 1.7 -1.7 2.4 0 0.6 -0.7 1.1 -1.5 1.1 -0.8 0 -1.5 -0.5 -1.5 -1.1 0 -0.6 -0.7 -0.8 -1.5 -0.5 -0.8 0.3 -2.2 0.9 -3 1.2 -1.1 0.5 -1.3 0.2 -0.9 -1.1z"/>
  <path d="M100 189.5 c0 -4.7 3.2 -4.9 5.4 -0.3 0.9 1.7 1.6 3.3 1.6 3.5 0 0.1 -1.6 0.3 -3.5 0.3 -3.3 0 -3.5 -0.2 -3.5 -3.5z"/>
  <path d="M188.2 183.3 c0.3 -6.6 0.4 -6.8 3.1 -7.1 1.5 -0.2 2.7 -0.8 2.7 -1.3 0 -0.5 1.1 -0.9 2.5 -0.9 1.4 0 2.5 0.3 2.5 0.8 0 2.5 -8.6 15.2 -10.3 15.2 -0.4 0 -0.7 -3 -0.5 -6.7z"/>
  <path d="M203.3 156.3 c-1.9 -0.7 -1.7 -7.3 0.2 -7.3 0.8 0 1.5 -0.7 1.5 -1.5 0 -0.8 0.9 -1.5 2 -1.5 2.3 0 2.4 0.6 0.9 6.6 -1.1 4.2 -1.9 4.9 -4.6 3.7z"/>
  <path d="M155 130 c0 -3.9 0.1 -4 3.5 -4 3.5 0 3.5 0.1 3.5 4.3 -0.1 4.1 -0.1 4.2 -1.5 1.7 -1.3 -2.2 -2.1 -1.6 -1.6 1.3 0 0.4 -0.8 0.7 -1.9 0.7 -1.7 0 -2 -0.7 -2 -4z"/>
  <path d="M89.1 117.1 c-1 -0.7 -1.2 -2.3 -0.7 -7.2 0.7 -6.2 3.1 -10.9 5.5 -10.9 0.6 0 1.1 -0.9 1.1 -2 0 -1.3 0.7 -2 2 -2 1.5 0 2 0.7 2 2.8 0 5.5 -5.4 20.2 -7.4 20.2 -0.6 0 -1.7 -0.4 -2.5 -0.9z"/>
  <path d="M157.5 103.8 c-0.7 -1.8 -2.5 -4.4 -3.9 -5.7 -2.7 -2.5 -3.4 -1.5 -1.5 2 0.9 1.8 0.8 1.9 -1.8 1.3 -3.5 -0.9 -3.4 -0.7 -3.6 -4 -0.2 -2.3 -0.7 -2.9 -2.5 -2.8 -1.3 0.1 -2.1 -0.1 -1.8 -0.3 0.2 -0.3 0.7 -0.3 1.1 -0.1 0.7 0.3 2.3 -3.5 5.1 -12.2 1.5 -4.6 1.2 -11.9 -0.8 -17 -0.5 -1.4 -1.3 -5.4 -1.7 -9 l-0.6 -6.5 -2 4.2 c-2 4.2 -4.5 5.7 -4.5 2.8 0 -1.1 -1.2 -1.5 -4.5 -1.5 -4 0 -4.5 -0.2 -4.5 -2.2 0 -1.3 0.7 -3.5 1.4 -5 0.8 -1.6 1.1 -2.8 0.6 -2.8 -1.2 0 -5 5 -5 6.6 0 0.8 -0.7 1.4 -1.6 1.4 -1.4 0 -1.6 -0.8 -1.1 -5 l0.6 -5 -4.1 0 -4.2 0 3 -3.1 c1.6 -1.7 4.1 -3.7 5.6 -4.5 2.6 -1.4 2.8 -1.3 2.8 0.7 0 1.6 0.4 2 1.8 1.4 0.9 -0.4 4 -0.9 6.7 -1.2 4.6 -0.5 5.4 -0.2 9.2 2.8 3.7 3.1 4.2 3.9 4.5 8.4 l0.3 5 4 0.5 c3.9 0.5 4 0.6 4.3 4.8 0.2 3.1 -0.1 4.4 -1.3 4.8 -1 0.4 -1.5 1.9 -1.5 4.4 0 2.1 -0.4 4 -1 4.2 -1.3 0.4 -2.5 14.5 -1.6 19.2 0.4 2.3 1.3 3.6 2.2 3.6 2.7 0 4.7 3.1 5.2 8.1 0.5 5.8 -1.2 6.7 -3.3 1.7z"/>
  <path d="M117.3 89.5 c-1.4 -1.5 -1.7 -10.3 -0.5 -12.2 0.4 -0.7 2.6 -1.5 4.9 -1.9 l4.1 -0.6 -1.4 4.8 c-2.9 10.9 -4.4 13 -7.1 9.9z"/>
  <path d="M184 85.5 c0 -2.8 0.4 -3.5 2 -3.5 1.1 0 2 0.7 2 1.5 0 0.9 0.7 1.8 1.5 2.1 3 1.2 1.6 3.4 -2 3.4 -3.3 0 -3.5 -0.2 -3.5 -3.5z"/>
  <path d="M136.3 68.8 c-2.4 -2.7 -4.2 -6 -5.3 -9.9 -0.8 -2.7 -0.7 -2.9 2.1 -2.9 2.2 0 2.9 0.5 2.9 2 0 1.1 0.7 2 1.5 2 1.2 0 1.5 1.3 1.5 5.5 0 3 -0.1 5.5 -0.3 5.5 -0.2 0 -1.3 -1 -2.4 -2.2z"/>
  <path d="M87 61.2 c0 -0.5 0.6 -1.4 1.3 -2 1.7 -1.4 16.6 -7 19.7 -7.4 1.5 -0.2 3.4 -1.7 4.8 -3.8 1.3 -1.9 2.7 -3.6 3.3 -3.8 0.5 -0.2 0.9 2.1 0.9 5.2 0 4.7 -0.4 6.1 -2.7 8.7 -2.6 2.8 -3.1 3 -9.8 2.9 -3.8 0 -9.4 0.2 -12.2 0.6 -3.3 0.4 -5.3 0.3 -5.3 -0.4z"/>
  <path d="M159 50.5 c0 -0.8 -0.4 -1.5 -1 -1.5 -1.1 0 -1.3 -3.3 -0.4 -7.9 0.6 -2.7 1 -3.1 4.1 -3.1 2.8 0 3.3 0.3 2.9 1.8 -0.2 0.9 -0.8 3.3 -1.2 5.2 -1.1 5.4 -4.4 9.6 -4.4 5.5z"/>
  <path d="M136 30.3 c0 -0.3 1.8 -2.2 4 -4.1 5.7 -4.8 7.4 -8.5 6.7 -14.4 -0.8 -6 0.4 -6.2 7.1 -0.9 5 4 8.6 9.8 9.8 15.9 0.6 2.8 0.4 3.2 -1.5 3.2 -1.4 0 -2.1 -0.6 -2.1 -2 0 -1.1 -0.7 -2 -1.5 -2 -0.9 0 -1.5 -0.9 -1.5 -2.1 0 -1.1 -0.9 -2.8 -2.1 -3.8 -1.1 -0.9 -2.4 -3.2 -2.9 -5.1 l-0.8 -3.5 -0.1 3.8 c-0.1 2 -0.5 3.7 -1.1 3.7 -0.5 0 -1 1.4 -1 3 0 1.7 -0.4 3 -1 3 -0.5 0 -1 0.6 -1 1.3 0 2.2 -3.9 4.7 -7.5 4.7 -1.9 0 -3.5 -0.3 -3.5 -0.7z"/>
 </g>
 <g fill="#fcfbf6">
  <path d="M117.7 231.3 c-1.7 -1.6 -0.3 -2.1 4.9 -1.6 4.2 0.5 5.8 0.2 6.5 -0.8 0.7 -1.1 0.9 -1.1 0.9 0.3 0 0.9 0.8 1.9 1.8 2.1 0.9 0.3 -1.7 0.5 -5.9 0.6 -4.2 0 -7.9 -0.2 -8.2 -0.6z"/>
  <path d="M123.3 224.3 c2.6 -0.7 2.1 -2 -1 -2.6 -1.8 -0.4 -3.2 -0.1 -3.9 0.9 -1.6 2 -3.4 1.7 -3.4 -0.5 0 -1.8 0.7 -1.9 10.3 -1.8 9.5 0.2 10.2 0.3 10.2 2.2 0 1.8 -0.7 2 -7 2.2 -3.8 0.1 -6.2 -0.1 -5.2 -0.4z"/>
  <path d="M110.8 217.7 c-0.9 -0.9 -2.4 -1.4 -3.2 -1.1 -0.9 0.4 -1.6 0.1 -1.6 -0.6 0 -0.8 -1 -0.9 -3 -0.5 -2 0.4 -3 0.3 -3 -0.5 0 -0.6 -0.4 -0.9 -0.8 -0.6 -0.5 0.3 -2.7 0 -4.9 -0.5 -3.7 -1 -7.4 -3.8 -11.2 -8.4 -0.7 -0.9 -2 -1.4 -2.8 -1.1 -0.8 0.3 -2.6 0 -4.1 -0.8 -3.5 -1.8 -12.2 -9.9 -12.2 -11.2 0 -0.6 -0.9 -1.9 -2 -2.9 -1.1 -1 -2 -2.8 -2 -3.9 0 -1.3 -1 -2.6 -2.8 -3.3 -3.2 -1.5 -8.8 -11.6 -12.7 -23.2 -2.3 -6.8 -2.5 -9 -2.5 -23.8 0 -9 0.5 -18.5 1.1 -21 1.2 -4.4 1.2 -4.5 4.7 -3.9 1.9 0.3 3.6 0.7 3.9 1 0.2 0.2 0.7 2.6 1.1 5.3 l0.7 4.8 4.8 0.3 c3.8 0.3 4.7 0.7 4.7 2.2 0 2.5 5.1 6 8.9 6 3 0 6.9 1.6 8.2 3.4 0.4 0.4 0.9 -2.3 1.2 -6 0.3 -3.8 1.1 -9.6 1.9 -12.9 1.3 -5.9 1.3 -6 5.1 -6.3 2.4 -0.2 3.7 0.1 3.7 0.9 0 0.6 0.8 1.8 1.8 2.5 1.5 1.2 1.5 1.2 -0.5 0.7 -2.5 -0.6 -3.2 1.1 -0.8 2 1.2 0.5 1.2 1.1 -0.2 4.4 -2.8 6.6 -4.3 13.6 -4.3 20 0 4 -0.4 6.3 -1.2 6.6 -0.9 0.4 -0.8 0.6 0.2 0.6 0.8 0.1 2.4 2.2 3.4 4.7 1.5 3.7 1.6 4.8 0.6 5.4 -1.1 0.7 -1 1.3 0.4 3.4 0.9 1.4 2.3 2.6 3 2.6 0.8 0 2.8 1.4 4.4 3 1.7 1.7 3.7 3 4.6 3 1.6 0 1.5 2.5 -0.3 5.9 -1.3 2.4 -1.4 6.1 -0.2 6.1 0.5 0 0.9 1.3 0.9 2.9 -0.1 1.5 0.3 3.4 0.7 4.1 0.4 0.7 0.2 1.6 -0.6 2.1 -1.1 0.7 -1.1 0.9 0.2 0.9 1.2 0 1.4 0.8 1.1 3.1 l-0.5 3.2 -5.7 -0.6 -5.7 -0.5 -0.7 5.1 c-0.3 2.9 -0.1 5.6 0.4 6.1 0.6 0.6 2.8 0.9 5.1 0.7 3 -0.2 4.5 0.2 5.7 1.7 1.8 1.9 6.2 3.6 6.2 2.2 0 -1 4.9 0 5.6 1.2 0.4 0.5 0.1 1.5 -0.5 2.1 -0.8 0.8 -1.1 0.8 -1.1 -0.1 0 -0.7 -0.8 -1.2 -1.7 -1.2 -1.4 0 -1.5 0.2 -0.5 0.9 0.8 0.4 1.2 1.9 1 3.2 -0.3 2.1 -0.4 2.2 -2 0.6z"/>
  <path d="M145 216 c0 -0.5 -0.7 -1 -1.5 -1 -0.9 0 -2.7 -0.7 -4.1 -1.6 -2.4 -1.6 -2.4 -1.7 -0.5 -3 1.1 -0.8 1.7 -2.1 1.4 -3.2 -0.2 -1 0.9 -4.8 2.5 -8.3 5 -10.9 5.8 -14.6 4 -17.7 -0.9 -1.5 -2.3 -5.3 -3.2 -8.5 -1.9 -6.6 -1.3 -8.2 3.4 -9.2 3.4 -0.7 10.3 -7.5 12.6 -12.4 3.1 -6.6 3.1 -16.5 -0.1 -20.7 -1.3 -1.7 -1.4 -1.5 -1 2.6 0.3 2.5 0.2 3.9 -0.1 3.3 -0.3 -0.7 -1.1 -1.3 -1.7 -1.3 -0.7 0 -1.9 -1.7 -2.7 -3.8 -1.5 -3.6 -1.5 -3.8 1.2 -8.3 3 -4.8 5.1 -13.9 3.7 -16.1 -1.8 -2.8 -1 -4.8 2 -4.8 2.4 0 2.9 0.5 3.5 3.1 1.1 5.9 0.6 12 -1.4 15.9 l-2 4 5 0 c2.7 0 5 -0.4 5 -0.9 0 -0.5 1.8 -1.2 4 -1.6 3.6 -0.6 4 -1 4 -3.6 l0 -2.9 6.9 0 6.8 0 0.7 -3.7 c1 -6.5 0.7 -10.3 -0.8 -10.3 -0.9 0 -1.6 -1.2 -1.8 -2.7 -0.2 -2 -1.2 -3.2 -3.5 -4.2 -2.8 -1.2 -3.3 -2 -3.3 -4.8 0 -2 -0.5 -3.3 -1.3 -3.3 -1.5 0 -3.4 -2.1 -6.6 -7.2 -1.2 -2.1 -2.9 -3.8 -3.7 -3.8 -0.8 0 -1.4 -0.3 -1.4 -0.8 0 -0.4 -1 -1.2 -2.2 -1.7 -1.5 -0.7 -2.8 -2.7 -3.8 -5.7 -1.2 -3.8 -2 -4.8 -3.6 -4.8 -1.2 0 -3.6 -0.6 -5.4 -1.4 -2.5 -1 -2.9 -1.4 -1.5 -2 2.4 -0.9 1.2 -3.2 -1.5 -2.8 -2.2 0.4 -2.2 0.2 -1.5 -4.3 1 -6.8 1.4 -7.5 4.5 -7.5 6.4 0 7.3 2 4.1 8.3 -2.1 4.1 -2.1 4 4.7 7.7 2.3 1.3 4.2 2.7 4.2 3.2 0 0.4 0.7 0.8 1.6 0.8 0.8 0 1.2 0.5 0.9 1 -0.4 0.6 0.7 1.6 2.4 2.3 1.7 0.7 2.8 1.6 2.4 2 -0.3 0.4 0.4 0.7 1.6 0.7 1.2 0 2 0.4 1.7 0.8 -0.2 0.4 1 1.4 2.7 2.2 1.7 0.7 2.6 1.5 1.9 1.8 -0.7 0.2 -1.2 1.3 -1.2 2.4 0 1.6 0.5 1.9 2.4 1.4 2.2 -0.5 2.4 -0.3 2.2 2.8 -0.1 1.9 0.1 3.4 0.4 3.4 4.4 -0.3 5.8 0.5 9.3 5.9 2.1 3.2 3.3 5.9 2.8 6.1 -0.6 0.2 -0.3 1.1 0.7 2 5.2 4.6 9.8 25.2 8.8 39.2 -0.7 10.4 -1.4 13 -3.5 13.1 -1 0 -1.1 0.2 -0.3 0.6 1.8 0.7 1.5 3.5 -1.3 10.9 -2.6 6.8 -9.5 18.9 -9.5 16.5 0 -0.7 -0.8 -1.1 -1.7 -0.9 -1.4 0.2 -1.8 1.4 -1.9 4.6 0 3.9 -0.6 4.8 -7.5 11.8 -6.2 6.2 -7.8 7.4 -9.9 6.9 -3.5 -0.7 -17.5 3.8 -17.5 5.6 0 2 -3.2 4.9 -5.3 4.9 -1 0 -2.8 0.9 -4 2 -1.2 1.2 -2.2 1.6 -2.2 1z"/>
  <path d="M125.6 182.1 c-0.3 -0.4 0 -2.2 0.7 -4 1.4 -3.7 4.9 -4.5 4.3 -0.8 -0.3 1.2 -0.5 2.5 -0.5 2.9 -0.2 1.2 -3.9 2.9 -4.5 1.9z"/>
  <path d="M120 176.2 c0 -0.5 0.9 -1.7 2 -2.7 2.2 -2 2.6 -1.4 1 1.6 -1.1 1.9 -3 2.6 -3 1.1z"/>
  <path d="M99.3 146.9 c0 -2.8 0.2 -4.7 0.6 -4.2 0.3 0.5 1.4 1.2 2.4 1.6 0.9 0.3 1.7 1.3 1.7 2.2 0 0.8 -0.8 1.5 -1.7 1.5 -1.4 0 -1.5 0.2 -0.4 0.9 1.5 1 0.7 3.1 -1.3 3.1 -0.8 0 -1.2 -1.7 -1.3 -5.1z"/>
  <path d="M124.7 147.5 c-2.3 -1.7 -2.8 -8.2 -0.7 -9.5 2.4 -1.5 4.2 1.8 3.6 6.4 -0.7 4.8 -0.7 4.8 -2.9 3.1z"/>
  <path d="M140.3 115.4 c-0.7 -0.3 -0.9 -1.2 -0.6 -2 0.3 -0.9 0 -1.4 -0.8 -1.2 -0.8 0.2 -1.4 -0.3 -1.3 -0.9 0.1 -0.7 0.2 -2.5 0.3 -4 0.1 -2 1.3 -3.7 4.1 -5.7 2.2 -1.6 4.3 -3.8 4.6 -4.8 0.6 -1.9 3.9 -2.1 3.9 -0.3 0.1 0.6 0.5 1.9 1.1 3 0.6 1.1 1 3.4 0.9 5 -0.2 2.5 -0.6 3 -2.9 3 -2.6 0 -4.5 2.1 -6.2 6.8 -0.7 1.8 -1 1.9 -3.1 1.1z"/>
  <path d="M90 99.5 c0 -3.3 0.2 -3.5 3.5 -3.5 3.2 0 3.5 0.3 3.5 2.9 0 2.9 -1.4 4.1 -5.1 4.1 -1.5 0 -1.9 -0.7 -1.9 -3.5z"/>
  <path d="M109.9 98.3 c-1.3 -5 -8.9 -14.3 -11.5 -14.3 -0.8 0 -1.4 -0.8 -1.4 -1.7 0.1 -3.1 2.6 -5.3 5.9 -5.3 2.4 0 3.1 0.4 3.1 2 0 1.6 0.7 2 3 2 2.7 0 3 0.3 3 3.3 0 3.2 0 3.2 4.5 2.9 5.7 -0.5 5.8 0.9 1.1 9.3 -4.2 7.7 -5.9 8.1 -7.7 1.8z"/>
  <path d="M151.6 95.8 c-1.9 -2.7 -2 -3.8 -0.3 -3.8 1.5 0 3.8 4.8 2.7 5.5 -0.5 0.3 -1.6 -0.5 -2.4 -1.7z"/>
  <path d="M64.1 80.4 c-1.2 -1.4 -0.8 -2.1 2.5 -5.5 4.8 -4.9 22.1 -16.5 24.1 -16.1 0.8 0.2 1.2 -0.1 0.9 -0.6 -0.3 -0.6 0.2 -0.8 1.4 -0.5 2.7 0.7 2.5 1.9 -0.5 4.7 -1.4 1.3 -2.5 3.3 -2.5 4.5 0 1.6 -0.6 2.1 -2.4 2.1 -1.3 0 -2.6 0.7 -3 1.5 -0.3 0.8 -1.8 1.5 -3.3 1.5 -4.1 0 -5.5 1.3 -6.2 5.6 -0.6 3.8 -0.7 3.9 -5.1 4.1 -3.1 0.2 -4.9 -0.2 -5.9 -1.3z"/>
  <path d="M139.2 70.9 c-1.3 -0.5 -2.6 -1.8 -2.9 -2.8 -0.3 -1.1 -1.1 -2.2 -1.9 -2.5 -0.8 -0.3 -1.4 -1.9 -1.4 -3.6 0 -1.7 -0.4 -2.9 -0.9 -2.5 -1.5 0.8 -2.2 -5.5 -1.2 -9.5 0.6 -2.5 0.9 -2.8 1 -1.2 0.1 1.2 0.5 2.2 1 2.2 0.5 0 1.2 1.6 1.5 3.5 0.7 3.4 3.6 5.1 3.6 2 0 -0.8 0.9 -1.5 1.9 -1.5 1.6 0 1.9 1 2.3 7.8 0.3 4.2 0.2 8 -0.1 8.3 -0.3 0.4 -1.7 0.3 -2.9 -0.2z"/>
  <path d="M122 66.5 c0 -1.1 -1.2 -1.5 -4.6 -1.5 l-4.6 0 0.6 -4.2 c0.8 -5.1 0.9 -7.2 0.5 -11.6 -0.1 -2.4 0.5 -4 2.5 -6.1 3.3 -3.4 6.5 -4.5 7.3 -2.5 0.3 0.8 1.6 1.4 3 1.4 1.8 0 2.4 0.4 2 1.4 -0.3 0.8 -0.1 1.7 0.6 1.9 0.8 0.3 0.6 1.1 -0.7 2.6 -1.6 1.7 -2.1 4.1 -2.4 11.1 -0.4 8 -0.7 9 -2.3 9 -1.1 0 -1.9 -0.7 -1.9 -1.5z"/>
  <path d="M158.2 40.3 c-4.1 -0.5 -5.6 -3.8 -4.8 -10.1 0.6 -4.3 0.6 -4.4 -3.5 -6 -3.8 -1.5 -4 -1.8 -3.4 -4.6 0.4 -1.7 0.7 -5 0.6 -7.3 0 -2.5 0.5 -4.3 1.1 -4.3 1.9 0 7.8 4.1 7.2 5.1 -0.3 0.5 0 0.9 0.5 0.9 0.6 0 1 0.5 0.8 1.2 -0.1 0.7 0.8 1.7 2 2.2 1.6 0.8 2.1 1.7 1.8 3.3 -0.2 1.4 0.1 2.3 0.9 2.3 1.6 0 3.9 10.1 3.4 14.5 -0.3 3.2 -1.1 3.5 -6.6 2.8z"/>
 </g>
 <g fill="#fcfafa">
  <path d="M123.3 224.3 c0.9 -0.2 1.7 -0.9 1.7 -1.4 0 -1.4 2.8 -1.1 3.3 0.4 0.4 1 0.6 1 0.6 0 0.1 -0.7 1 -1.3 2 -1.3 1 0 2.1 0.6 2.4 1.3 0.3 0.9 -1.2 1.2 -5.7 1.3 -3.3 0.1 -5.3 -0.1 -4.3 -0.3z"/>
  <path d="M115 222.6 c0 -1.4 2.4 -2.9 3.3 -1.9 0.3 0.3 0.3 1.1 0 1.9 -0.7 1.8 -3.3 1.8 -3.3 0z"/>
  <path d="M104.5 214.3 c-1.1 -0.3 -2.8 -1.5 -3.8 -2.6 -1.4 -1.7 -2 -1.9 -2.7 -0.8 -0.4 0.8 -1.5 1.1 -2.3 0.8 -0.9 -0.3 -1.7 -0.1 -1.9 0.5 -0.3 0.7 -1.9 -0.3 -3.6 -2.2 -3.3 -3.4 -4 -5 -2.1 -5 0.7 0 1 -1.2 0.7 -3 -0.3 -1.6 -0.1 -3 0.4 -3 0.4 0 0.8 -1.6 0.8 -3.5 0 -3.2 0.2 -3.5 3 -3.5 2.5 0 3 -0.4 3 -2.5 0 -1.8 0.4 -2.3 1.5 -1.9 0.8 0.4 1.5 1.7 1.5 3 0 1.5 0.6 2.4 1.5 2.4 1.8 0 1.7 0.3 0.6 -3.6 -0.8 -2.8 -0.7 -3.1 1 -2.7 2.3 0.6 3.5 2.3 1.7 2.4 -0.7 0 -0.4 0.4 0.7 0.8 1.8 0.8 2.5 2.4 5.2 12.4 0.2 0.9 0 1.7 -0.6 1.7 -1.9 0 -1.2 2 0.7 2.1 1.5 0 1.5 0.1 -0.2 0.8 -1.7 0.7 -1.7 0.8 -0.2 2.3 0.8 0.9 2.1 1.9 2.8 2.1 1 0.4 1 0.8 -0.1 1.5 -1.1 0.8 -1.1 1 0 1.5 1.7 0.7 -4.9 0.6 -7.6 0z"/>
  <path d="M144.5 209.9 c-0.4 -0.6 -1.3 -0.8 -2 -0.5 -0.8 0.3 -1.5 -0.6 -1.7 -2.6 -0.5 -3 0.7 -4.9 4.3 -6.8 1.5 -0.9 1.9 -0.7 1.9 0.5 0 0.9 0.7 1.8 1.5 2.1 1.7 0.7 1.4 4.7 -0.6 7 -1.4 1.7 -2.5 1.8 -3.4 0.3z"/>
  <path d="M158.8 189.3 c0.6 -0.2 1.2 -1.6 1.2 -2.9 0 -1.3 0.4 -2.4 0.8 -2.4 0.5 0 1.3 -1.2 2 -2.7 1 -2.6 1.1 -2.6 0.6 -0.3 -0.9 4.2 -3.4 9 -4.7 8.9 -0.9 0 -0.9 -0.2 0.1 -0.6z"/>
  <path d="M190.3 179.8 c0.1 -1.4 0.6 -2.4 1 -2.1 0.5 0.3 1.4 -0.2 2 -1.1 2 -2.7 4.2 -0.4 2.9 3 -0.6 1.8 -1.1 2.2 -1.1 1.2 -0.1 -2.3 -2.7 -2.3 -4 -0.1 -0.7 1.4 -0.9 1.3 -0.8 -0.9z"/>
  <path d="M59 177 c0 -2.3 1.5 -2.7 2.3 -0.6 0.3 0.8 -0.1 1.7 -0.9 2 -0.9 0.4 -1.4 -0.1 -1.4 -1.4z"/>
  <path d="M181 171.5 c0 -1.6 0.6 -2.5 1.5 -2.5 0.8 0 1.5 -0.4 1.5 -1 0 -0.5 1.1 -1 2.5 -1 1.6 0 2.5 0.6 2.5 1.5 0 0.8 -0.6 1.5 -1.4 1.5 -0.8 0 -1.8 0.9 -2.1 2 -1 3 -4.5 2.6 -4.5 -0.5z"/>
  <path d="M201 170.3 c0 -0.7 -1.2 -1.3 -2.7 -1.4 -2.8 0 -2.8 -0.1 -0.5 -1.1 1.2 -0.6 2.2 -1.5 2.2 -2 0 -0.4 0.7 -0.8 1.5 -0.8 0.8 0 1.5 0.8 1.5 1.8 0 2 -2 5.4 -2 3.5z"/>
  <path d="M92.4 169 c-2.6 -1 -5.4 -4.8 -5.4 -7.1 0 -1 -0.5 -1.9 -1.1 -2.1 -0.7 -0.2 -1 -1.1 -0.7 -1.8 0.4 -1 1.1 -0.2 2.2 2.3 0.9 2 2.2 3.7 3 3.7 0.8 0 1.7 0.7 2 1.6 0.3 0.8 1.1 1.2 1.7 0.8 0.8 -0.4 0.9 -0.3 0.5 0.4 -0.4 0.7 -0.1 1.2 0.8 1.2 0.9 0 1.6 0.5 1.6 1 0 1.2 -1.7 1.2 -4.6 0z"/>
  <path d="M190 165 c0 -2 0.5 -3 1.5 -3 1 0 1.5 1 1.5 3 0 2 -0.5 3 -1.5 3 -1 0 -1.5 -1 -1.5 -3z"/>
  <path d="M198.6 163.3 c0.7 -0.4 1.4 -1.7 1.7 -2.8 0.5 -1.6 0.5 -1.5 0.4 0.4 -0.1 1.4 -0.9 2.6 -1.7 2.8 -1 0.3 -1.1 0.2 -0.4 -0.4z"/>
  <path d="M204.1 162.8 c-0.1 -1 -0.4 -1.8 -0.9 -1.8 -1.7 0 -3.1 -3.9 -2.2 -6.6 0.5 -2 0.9 -2.3 0.9 -1 0.1 1.1 0.4 1.7 0.7 1.3 1 -1 3.4 1.9 3.3 4 0 1 -0.4 2.7 -0.9 3.8 -0.7 1.7 -0.9 1.7 -0.9 0.3z"/>
  <path d="M207.3 148.3 c-1.8 -0.7 -1.6 -4.3 0.2 -4.3 0.9 0 1.5 0.9 1.5 2.5 0 1.4 -0.1 2.5 -0.2 2.4 -0.2 0 -0.9 -0.3 -1.5 -0.6z"/>
  <path d="M79.2 141.5 c-1.5 -5 -2 -5.6 -5.6 -7.5 -2.3 -1.2 -3 -1.2 -3.3 -0.2 -0.6 1.7 -5.3 1.6 -5.3 -0.2 0 -0.7 -1.1 -2.1 -2.5 -3 -1.4 -0.9 -2.5 -2.5 -2.5 -3.6 0 -1.7 -0.7 -2 -4.4 -2 -4.7 0 -7.2 -1.9 -6.2 -4.6 0.9 -2.5 -0.4 -6.2 -2.4 -6.7 -1.1 -0.3 -2.2 0 -2.5 0.7 -0.3 0.6 -0.3 -0.7 0 -2.8 0.6 -5.7 7.7 -19.8 13.4 -27 8.7 -10.7 13.3 -14.5 18.5 -15.2 2.6 -0.4 4.9 -1 5.1 -1.4 0.3 -0.5 -0.5 -0.6 -1.7 -0.3 -1.9 0.4 -2 0.3 -0.8 -0.6 0.8 -0.6 2.9 -1.1 4.7 -1.1 2.7 0 3.1 -0.3 2.8 -2 -0.2 -1.2 0.2 -2.3 1 -2.7 0.8 -0.3 1.3 -0.8 1.1 -1.2 -0.3 -0.4 2.5 -1.5 6 -2.5 4.9 -1.4 6.8 -1.6 7.7 -0.7 3.6 3.6 11.1 -1.4 11.3 -7.7 0.1 -3.8 3.4 -7.8 8.2 -9.7 1.7 -0.8 3.2 -2 3.2 -2.7 0 -1.3 11.9 -8.8 13.9 -8.8 1.6 0 5.1 -3.3 5.1 -4.7 0 -0.7 0.4 -1.3 0.9 -1.3 0.5 0 1.1 -1.5 1.5 -3.2 0.4 -1.9 1 -2.8 1.4 -2.2 0.4 0.6 3 1.4 5.7 1.8 3.8 0.5 4.6 0.4 3.5 -0.4 -1.2 -0.9 -1 -1 1 -0.4 1.4 0.3 2.7 0.9 3 1.1 0.8 0.8 -3.2 3.3 -4.3 2.6 -0.5 -0.3 -0.7 0.3 -0.4 1.3 0.3 1.1 0.8 2.9 1.2 4.1 0.3 1.2 0.2 3 -0.3 4 -0.5 1 -0.6 2.7 -0.3 3.7 0.9 2.3 4.1 3.1 4.1 1 0 -0.8 0.8 -1.4 1.8 -1.4 1.3 0 1.7 0.7 1.6 2.7 -0.2 4.2 -0.3 4.3 -1.9 4.3 -0.8 0 -1.5 0.5 -1.5 1 0 0.6 0.5 1 1 1 1.8 0 1.1 2 -0.7 2.1 -1.1 0 -1.3 0.3 -0.5 0.6 0.6 0.2 1.2 1.4 1.1 2.6 0 1.2 -0.3 1.6 -0.6 1 -0.8 -2.1 -5.1 -1.5 -5.8 0.7 -0.3 1.1 -0.4 2.3 -0.2 2.8 0.3 0.4 -0.1 1.5 -0.8 2.5 -2.9 4 -9.2 -0.9 -7.8 -6.2 0.4 -1.5 0.1 -2.1 -1.2 -2.1 -1.2 0 -1.5 0.5 -1.1 1.6 0.4 0.9 0 2.6 -0.7 3.8 -0.8 1.2 -1.7 3.5 -2.1 5.3 -0.5 1.9 -1.5 3.3 -2.8 3.6 -1.4 0.4 -1.9 1.1 -1.5 2.1 0.4 0.9 0.2 1.6 -0.3 1.6 -0.6 0 -1 -0.5 -1 -1.1 0 -0.6 -0.7 -0.9 -1.5 -0.5 -1.1 0.4 -1.5 -0.1 -1.5 -1.7 0 -1.3 -0.5 -2.8 -1.2 -3.5 -1.6 -1.6 -1.3 -10.1 0.5 -11.9 1.3 -1.3 1.6 -1.2 2.2 1.7 0.4 1.7 1.4 3.4 2.2 3.7 2 0.8 5.2 -3.3 5.3 -6.7 0.1 -2.2 0.2 -2.3 0.9 -0.6 0.4 1.2 1 1.5 1.4 0.9 0.3 -0.5 -0.5 -2.1 -1.8 -3.3 -1.4 -1.3 -2.5 -1.9 -2.5 -1.4 0 0.5 -0.4 0.3 -0.8 -0.4 -0.7 -1 -1.6 -1 -4.8 0.1 -2.1 0.7 -3.8 1.8 -3.7 2.5 0.2 0.7 -0.5 1.2 -1.5 1.2 -1.4 0 -1.4 0.2 -0.3 0.9 1.2 0.8 1.2 1.2 -0.2 2.6 -1 0.9 -1.7 2 -1.7 2.5 0 0.5 -1 1.1 -2.2 1.3 l-2.3 0.4 2.3 0.2 c1.3 0 2 0.5 1.7 1.1 -0.4 0.6 -0.6 5.8 -0.6 11.6 0 11.4 -1.2 15.8 -4 15.1 -2.6 -0.7 -4.3 5.7 -1.8 6.5 0.7 0.2 0.9 1.5 0.4 3.6 -0.6 2.8 -0.8 3 -2.1 1.7 -1.1 -1.1 -2.1 -1.2 -4.1 -0.4 -1.5 0.5 -3.2 0.8 -3.9 0.5 -0.7 -0.3 -1.5 0.3 -1.8 1.2 -0.3 0.9 -0.4 0.5 -0.2 -0.9 0.2 -2.1 -0.1 -2.5 -1.5 -2.2 -1.2 0.4 -2.4 -0.5 -3.8 -2.8 -1.2 -1.9 -1.6 -3.5 -1.1 -3.7 0.6 -0.2 1 -1.1 1 -1.9 0 -1.1 -0.5 -0.9 -1.8 0.7 -1.7 2.1 -2.2 2.2 -5.2 1.2 -5 -1.8 -5.6 -1.5 -2.8 1.6 3.8 4.1 5.2 7.2 5.3 12.5 0.1 3.4 -0.3 4.7 -1.3 4.7 -3.4 0 -7.2 8.9 -3.9 9.1 0.6 0 0 0.5 -1.5 1 -1.5 0.6 -2.9 1.8 -3.1 2.7 -0.2 0.9 -0.3 0.4 -0.2 -1.1 0.1 -1.5 -0.2 -2.4 -0.6 -2 -1.1 1.2 -3.1 11.8 -3.8 20.1 -0.3 4 -1 7.2 -1.6 7.2 -0.5 -0.1 -1.3 1.4 -1.6 3.2 l-0.5 3.3 -1.2 -4z m-7.4 -64.3 c0.3 -0.9 -0.2 -1.3 -1.4 -1 -0.9 0.1 -1.9 0.9 -2.2 1.6 -0.3 0.9 0.2 1.3 1.4 1 0.9 -0.1 1.9 -0.9 2.2 -1.6z m47.2 -16.1 c0 -1.7 -1.8 -2.1 -2.4 -0.6 -0.3 0.9 0 1.5 0.9 1.5 0.8 0 1.5 -0.4 1.5 -0.9z m3 -1.1 c0 -0.5 0.7 -1 1.5 -1 0.8 0 1.5 -0.4 1.5 -1 0 -0.5 -0.6 -1 -1.3 -1 -1.8 0 -4 -4.2 -3.5 -6.6 0.2 -1 1.7 -2.6 3.3 -3.4 l3 -1.5 -5 -0.6 c-2.7 -0.3 -5.4 -0.2 -5.9 0.2 -0.6 0.6 -0.6 0.9 0 0.9 0.9 0 1.9 3.1 3.8 12.3 0.6 2.5 2.6 3.9 2.6 1.7z m32.4 -39.5 c-0.4 -0.8 -1.8 -1.5 -3.3 -1.4 l-2.6 0.1 3 1.3 c1.7 0.8 3.1 1.4 3.2 1.5 0.1 0 0 -0.7 -0.3 -1.5z"/>
  <path d="M206 139.6 c0 -2.4 0.5 -3.6 1.8 -3.9 1.6 -0.4 1.6 -0.5 0 -0.6 -2.4 -0.1 -2.7 -9.1 -0.3 -9.1 1.7 0 1.6 -0.6 1.9 9.3 0.2 6.8 0 7.7 -1.6 7.7 -1.4 0 -1.8 -0.8 -1.8 -3.4z"/>
  <path d="M172.5 135 c-0.4 -0.6 -1 -0.8 -1.5 -0.5 -0.5 0.3 -1.2 0 -1.5 -0.6 -0.4 -0.6 -1.7 -1.5 -2.9 -2 -2.1 -0.9 -2.1 -1 0.2 -0.5 1.2 0.2 2 0 1.6 -0.5 -0.8 -1.4 -7.4 -1.1 -7.4 0.4 0 0.6 -0.8 0 -1.8 -1.5 -0.9 -1.6 -2 -2.8 -2.4 -2.8 -0.5 0 -0.8 -1.3 -0.8 -3 0 -1.9 0.5 -3 1.4 -3 0.9 0 1.2 -0.7 0.9 -1.9 -0.3 -1.1 0 -2.8 0.7 -3.8 1 -1.5 1 -1.4 0.6 1.2 l-0.6 3 1.6 -2.9 c1.2 -2.1 1.4 -4 0.9 -7.5 -0.6 -3.6 -0.9 -4.2 -1.5 -2.6 -0.6 1.6 -1 1.1 -2 -2.7 -0.7 -2.6 -1.6 -4.5 -2.1 -4.2 -0.5 0.3 -0.9 -0.2 -0.9 -1.1 0 -0.9 -0.4 -1.4 -0.9 -1 -0.5 0.3 -1.2 0.1 -1.6 -0.5 -0.4 -0.6 -1.1 -0.7 -1.7 -0.4 -0.6 0.4 -0.8 0.3 -0.5 -0.3 0.3 -0.5 0.2 -2.6 -0.4 -4.6 -0.6 -2.3 -0.6 -6.5 0.1 -12.3 0.7 -6.7 0.7 -9.1 -0.3 -10.3 -0.9 -1.2 -0.9 -1.3 0.1 -0.7 0.7 0.4 1.2 0.2 1.2 -0.4 0 -0.6 0.5 -0.8 1.2 -0.4 0.8 0.5 0.9 0.2 0.5 -1 -1.1 -2.7 0.2 -6.2 2.7 -7.5 1.8 -1 3 -0.8 6.8 0.8 3.6 1.5 4.8 2.7 5.7 5.4 0.7 2 1.9 4.1 2.8 4.9 1.4 1.1 1.6 1.1 0.9 -0.2 -0.4 -0.8 0.1 -0.5 1.2 0.7 1.1 1.2 2.2 2 2.5 1.7 0.3 -0.3 1.8 1.4 3.4 3.7 3.9 6.1 5.5 7.9 7 7.9 0.7 0 1.3 0.7 1.3 1.6 0 0.8 0.5 1.2 1 0.9 0.9 -0.6 1.5 0.8 1.1 2.9 -0.1 0.5 0.6 0.3 1.6 -0.4 1 -0.8 1.4 -1 1 -0.5 -0.5 0.6 0.6 1.5 2.5 2.2 1.8 0.7 2.3 1.1 1.1 0.9 -2.5 -0.4 -4 0.8 -2.3 1.9 0.5 0.3 1.1 1.8 1.1 3.3 l0.1 2.7 0.8 -3 c0.7 -2.9 0.8 -2.9 0.9 -0.4 0 1.5 1 3.8 2.1 5.2 2.4 3 2.5 3.8 0.5 3.1 -1.2 -0.5 -1.5 0.4 -1.7 4.7 -0.1 3 -0.2 7.4 -0.3 9.8 -0.1 4 -0.4 4.6 -2.8 5.2 -2 0.5 -2.7 0.4 -2.7 -0.7 0 -0.8 1 -1.4 2.3 -1.4 4.5 -0.1 -1.1 -2.1 -6.3 -2.3 -4.8 -0.2 -5 -0.1 -5 2.6 0 2 -0.5 2.7 -2 2.7 -1.1 0 -2 0.4 -2 0.9 0 0.5 -0.8 0.8 -1.7 0.7 -1 -0.2 -2.1 0.1 -2.5 0.7 -0.3 0.6 -3.3 1 -6.5 1 l-5.8 -0.1 4.9 0.7 c4.7 0.7 7.6 2.9 7.6 5.8 0 1.6 -0.6 1.7 -1.5 0.3z"/>
  <path d="M206 123.6 c0 -0.8 0.6 -1.7 1.3 -1.9 0.6 -0.3 0.3 -0.6 -0.8 -0.6 -3 -0.1 -4.5 -2 -4.5 -5.8 0 -2.8 0.3 -3.2 2.3 -3 3.5 0.3 5.2 6.2 2 7 -1.4 0.4 -1.2 0.5 0.5 0.6 1.7 0.1 2.2 0.7 2.2 2.6 0 1.6 -0.6 2.5 -1.5 2.5 -0.8 0 -1.5 -0.6 -1.5 -1.4z"/>
  <path d="M111 103.1 c0 -1.8 -0.5 -4.1 -1 -5.1 -1.6 -2.9 0.5 -3.2 2.9 -0.4 2.3 2.7 2.2 5.3 -0.4 7.4 -1.3 1.1 -1.5 0.7 -1.5 -1.9z"/>
  <path d="M147 9.5 c0 -0.8 0.7 -1.5 1.5 -1.5 0.9 0 1.2 0.6 0.9 1.5 -0.4 0.8 -1 1.5 -1.5 1.5 -0.5 0 -0.9 -0.7 -0.9 -1.5z"/>
 </g>
<g opacity="0.5" transform="rotate(-45, 125.0, 125.0)">
</g>
</svg>