<svg width="56" height="57" viewBox="0 0 56 57" fill="none" xmlns="http://www.w3.org/2000/svg">
<circle cx="28" cy="28.5" r="28" fill="#D9EAFF"/>
<path d="M37.3407 38.8945C37.5902 40.5325 36.4646 42.0626 34.8267 42.3121L20.9051 44.4328C20.284 44.5274 19.6488 44.4246 19.0893 44.139L16.7044 42.9215C15.8443 42.4824 15.2481 41.656 15.1027 40.7013L11.3275 15.9189C11.078 14.281 12.2036 12.7509 13.8415 12.5013L29.9126 10.0532C31.5506 9.80367 33.0807 10.9292 33.3302 12.5672L37.3407 38.8945Z" fill="#3F52F4"/>
<path d="M36.9664 38.6829C37.2159 40.3208 36.0903 41.8509 34.4524 42.1004L20.5244 44.2221C19.9072 44.3161 19.2762 44.2153 18.7191 43.9336L16.3433 42.7325C15.4777 42.2949 14.8771 41.4659 14.731 40.507L10.9938 15.9736C10.7443 14.3356 11.8698 12.8055 13.5078 12.556L29.5789 10.1079C31.2168 9.85836 32.7469 10.9839 32.9964 12.6219L36.9664 38.6829Z" fill="#3F52F4"/>
<path d="M18.0245 41.7125C18.481 42.496 17.635 43.3918 16.8267 42.9809C16.1186 42.6209 16.1799 41.5899 16.9257 41.3164C17.3395 41.1647 17.8026 41.3316 18.0245 41.7125Z" fill="#CDD8FA"/>
<path d="M16.674 43.4902C16.1596 43.2056 16.4579 42.7965 16.9815 43.0638C17.5477 43.3528 17.355 43.8523 16.7932 43.5547C16.7534 43.5336 16.7136 43.5121 16.674 43.4902Z" fill="#3F52F4"/>
<path d="M37.137 52.338L14.4181 44.6534C14.0604 44.5324 13.8686 44.1439 13.9898 43.7857L24.3797 13.0686C24.5009 12.7103 24.8891 12.518 25.2468 12.639L47.9657 20.3236C48.3234 20.4446 48.5152 20.8331 48.394 21.1913L38.0041 51.9084C37.8829 52.2667 37.4947 52.459 37.137 52.338Z" fill="#00056D"/>
<path d="M36.9743 50.7374L20.5102 45.1685L17.6048 41.1111L26.74 14.1035L47.0427 20.9708L36.9743 50.7374Z" fill="#9FC7FA"/>
<path d="M36.7493 50.392L20.2852 44.8231L17.3721 40.7886L26.4319 14.0039L46.7346 20.8712L36.7493 50.392Z" fill="white"/>
<path d="M20.2817 44.8344L17.3739 40.7886L20.0959 41.133L20.2817 44.8344Z" fill="#CDD8FA"/>
<path d="M17.3738 40.7891L20.5111 45.1698C20.5111 45.1698 17.6933 43.1842 17.3738 40.7891Z" fill="#9FC7FA"/>
<path d="M42.8029 18.7181L42.3016 20.2C42.2498 20.3532 42.0837 20.4355 41.9305 20.3837L30.6299 16.5613C30.4766 16.5095 30.3945 16.3432 30.4464 16.19L30.9476 14.7081C31.1623 14.0733 31.8504 13.7325 32.4845 13.9469L42.0438 17.1803C42.3393 17.2803 42.5711 17.4833 42.7124 17.7361C42.8741 18.0252 42.9175 18.3793 42.8029 18.7181Z" fill="#3F52F4"/>
<path d="M39.5678 16.7871L34.6927 15.1381C34.7385 15.0027 34.7943 14.8737 34.8595 14.7515C35.4409 13.6565 36.7449 13.1122 37.956 13.5218C39.1668 13.9313 39.8726 15.1555 39.6699 16.3787C39.6475 16.5153 39.6136 16.6516 39.5678 16.7871Z" fill="#3F52F4"/>
<path d="M37.2627 15.5659C37.6653 15.7021 38.1022 15.4857 38.2386 15.0825C38.375 14.6793 38.1591 14.2421 37.7566 14.1059C37.354 13.9698 36.917 14.1862 36.7807 14.5894C36.6443 14.9925 36.8601 15.4297 37.2627 15.5659Z" fill="#E3E9FF"/>
<path d="M28.3456 24.2213L24.9076 23.0585C24.7988 23.0217 24.7404 22.9034 24.7773 22.7944L25.9418 19.3517C25.9787 19.2427 26.0968 19.1841 26.2057 19.221L29.6436 20.3838C29.7525 20.4207 29.8108 20.5389 29.774 20.6479L28.6095 24.0906C28.5726 24.1996 28.4544 24.2582 28.3456 24.2213ZM25.2383 22.7304L28.282 23.7599L29.3129 20.7119L26.2692 19.6824L25.2383 22.7304Z" fill="#C5E1F9"/>
<path d="M26.3602 23.2834L25.2413 20.5222L26.0857 20.1786L26.8114 21.9696L30.1827 20.0206L30.6379 20.8104L26.3602 23.2834Z" fill="#48D882"/>
<path d="M42.1963 25.858L31.0098 22.0742L30.7704 22.7818L41.9569 26.5656L42.1963 25.858Z" fill="#C5E1F9"/>
<path d="M40.51 26.8548L30.5339 23.4805L30.2946 24.1881L40.2707 27.5624L40.51 26.8548Z" fill="#C5E1F9"/>
<path d="M25.6932 32.071L22.2553 30.9081C22.1464 30.8713 22.0881 30.7531 22.1249 30.644L23.2894 27.2013C23.3263 27.0922 23.4445 27.0338 23.5533 27.0706L26.9913 28.2335C27.1001 28.2703 27.1585 28.3885 27.1216 28.4975L25.9571 31.9403C25.9202 32.0493 25.8021 32.1078 25.6932 32.071ZM22.5859 30.58L25.6296 31.6095L26.6606 28.5615L23.6169 27.532L22.5859 30.58Z" fill="#C5E1F9"/>
<path d="M23.7079 31.133L22.589 28.3717L23.4334 28.0282L24.1591 29.8192L27.5304 27.8702L27.9855 28.66L23.7079 31.133Z" fill="#48D882"/>
<path d="M39.2349 33.5885L28.2563 29.875L28.017 30.5826L38.9956 34.2961L39.2349 33.5885Z" fill="#C5E1F9"/>
<path d="M34.8814 33.6831L27.7805 31.2812L27.5412 31.9888L34.6421 34.3907L34.8814 33.6831Z" fill="#C5E1F9"/>
<path d="M23.0453 39.8874L19.6073 38.7245C19.4985 38.6877 19.4401 38.5695 19.477 38.4604L20.6415 35.0177C20.6784 34.9087 20.7965 34.8502 20.9054 34.887L24.3433 36.0499C24.4522 36.0867 24.5105 36.2049 24.4737 36.3139L23.3092 39.7567C23.2723 39.8657 23.1541 39.9242 23.0453 39.8874ZM19.9379 38.3964L22.9817 39.4259L24.0127 36.3779L20.9689 35.3484L19.9379 38.3964Z" fill="#C5E1F9"/>
<path d="M21.0599 38.9494L19.941 36.1882L20.7854 35.8447L21.5111 37.6356L24.8824 35.6866L25.3376 36.4765L21.0599 38.9494Z" fill="#48D882"/>
<path d="M36.9503 41.3974L25.9592 37.6797L25.7199 38.3873L36.711 42.105L36.9503 41.3974Z" fill="#C5E1F9"/>
<path d="M34.7284 42.213L25.4834 39.0859L25.2441 39.7935L34.489 42.9206L34.7284 42.213Z" fill="#C5E1F9"/>
<path d="M34.7524 36.3212L31.7173 40.3258C31.649 40.416 31.7323 40.5421 31.8417 40.5141L36.6996 39.2672L37.2259 38.917L35.2787 35.971L34.7524 36.3212Z" fill="#C5E1F9"/>
<path d="M32.7399 38.9539L31.7178 40.3244C31.6495 40.4146 31.7328 40.5407 31.8422 40.5127L33.4973 40.0879L32.7399 38.9539Z" fill="#00056D"/>
<path d="M50.4001 28.0303C50.9379 28.8439 50.7156 29.9411 49.9037 30.4813L36.7096 39.2597L34.7625 36.3137L47.9566 27.5354C48.7685 26.9954 49.8624 27.2169 50.4001 28.0303Z" fill="#3F52F4"/>
<path d="M46.8181 28.2927L45.6992 29.0371L47.6462 31.9829L48.7651 31.2385L46.8181 28.2927Z" fill="#FBFDFA"/>
<path d="M50.4 28.0301C49.8623 27.2165 48.7684 26.9949 47.9564 27.5351L46.8188 28.292L48.766 31.238L49.9036 30.4811C50.7155 29.9409 50.9378 28.8437 50.4 28.0301Z" fill="#00056D"/>
<path d="M46.3478 30.0181L35.4106 37.2949L36.0607 38.2784L46.9978 31.0016L46.3478 30.0181Z" fill="#3F52F4"/>
</svg>
