<?xml version="1.0" standalone="no"?>
<!DOCTYPE svg PUBLIC "-//W3C//DTD SVG 20010904//EN"
 "http://www.w3.org/TR/2001/REC-SVG-20010904/DTD/svg10.dtd">
<svg version="1.0" xmlns="http://www.w3.org/2000/svg"
 width="250.000000pt" height="250.000000pt" viewBox="0 0 250.000000 250.000000"
 preserveAspectRatio="xMidYMid meet">

<g transform="translate(0.000000,250.000000) scale(0.100000,-0.100000)"
fill="#000000" stroke="none">
<path d="M1020 2221 c-329 -70 -618 -295 -765 -596 -113 -231 -139 -451 -83
-715 51 -239 204 -477 406 -630 88 -66 265 -153 375 -185 378 -107 800 3 1082
282 203 200 311 443 322 725 9 202 -29 381 -113 543 -104 201 -306 392 -519
491 -69 32 -70 32 -73 11 -8 -72 -26 -147 -44 -180 -11 -22 -18 -40 -16 -42 2
-1 23 -13 48 -25 111 -56 233 -160 294 -250 63 -95 96 -149 96 -160 0 -6 7
-24 15 -41 28 -52 55 -207 55 -308 0 -174 -64 -355 -178 -507 -63 -82 -77 -97
-152 -155 -24 -18 -50 -40 -58 -46 -23 -22 -158 -82 -235 -104 -77 -23 -114
-21 -103 6 5 14 -11 15 -117 13 -110 -3 -122 -5 -119 -20 2 -13 -4 -18 -21
-18 -38 0 -178 45 -248 80 -107 54 -265 194 -303 269 -9 17 -20 31 -25 31 -10
0 -73 136 -99 217 -11 34 -26 104 -32 155 -37 314 110 615 391 800 83 55 224
118 264 118 11 0 31 14 45 31 82 99 131 138 263 206 15 8 27 16 27 19 0 2 -66
4 -147 3 -102 0 -175 -6 -233 -18z m340 -1946 c0 -25 0 -25 -100 -25 -87 0
-101 2 -109 19 -6 10 -7 21 -4 25 3 3 53 6 110 6 l103 0 0 -25z m-20 -79 c0
-51 -7 -56 -85 -56 -41 0 -76 3 -78 8 -3 4 -8 22 -12 40 l-7 32 91 0 c90 0 91
0 91 -24z"/>
<path d="M1305 2038 c-32 -39 -44 -89 -45 -193 0 -55 -6 -123 -14 -152 -17
-63 -76 -193 -87 -193 -5 0 -9 -5 -9 -11 0 -6 -11 -24 -25 -41 l-25 -30 0 47
c0 25 -6 61 -14 80 -24 56 -105 125 -147 125 -5 0 3 -18 17 -40 49 -74 43
-148 -25 -307 -34 -78 -55 -195 -46 -252 6 -34 25 -89 48 -138 14 -31 97 -115
110 -110 5 1 24 28 40 58 80 144 169 289 177 289 5 0 34 -44 65 -97 105 -181
119 -203 132 -203 23 0 90 48 116 82 32 44 52 123 43 179 -10 64 -26 85 -26
34 0 -29 -7 -48 -25 -68 -30 -32 -37 -33 -58 -9 -24 26 -21 81 8 127 58 95 75
136 75 175 0 46 -21 93 -57 129 l-24 25 11 -28 c17 -45 12 -100 -13 -137 -19
-29 -29 -34 -67 -37 -41 -3 -47 0 -63 27 -30 50 -19 100 39 176 74 98 89 192
54 331 -12 43 -19 87 -16 97 6 26 -2 20 -20 -15 -15 -29 -16 -107 -3 -158 7
-25 -34 -22 -64 5 -61 58 -83 147 -53 220 18 41 17 42 -9 13z m-265 -1019 c0
-26 -5 -39 -17 -44 -27 -10 -63 38 -63 84 0 37 19 97 36 114 10 10 43 -107 44
-154z"/>
<path d="M1229 973 c-17 -34 -62 -106 -70 -113 -3 -3 -9 -12 -12 -20 -4 -8
-16 -28 -27 -45 -11 -16 -29 -46 -40 -65 -11 -19 -25 -42 -32 -51 -9 -13 -4
-36 24 -110 20 -52 39 -111 43 -131 l7 -38 137 0 137 0 2 28 c1 15 20 75 42
132 l39 105 -56 90 c-31 50 -71 113 -89 141 -18 28 -38 63 -45 77 -16 35 -42
34 -60 0z m73 -210 c24 -21 23 -44 -3 -77 -49 -63 -130 5 -87 74 16 25 64 27
90 3z"/>
</g>
</svg>
